<?xml version="1.0" encoding="UTF-8"?>
<!DOCTYPE svg  PUBLIC '-//W3C//DTD SVG 1.1//EN'  '//www.w3.org/Graphics/SVG/1.1/DTD/svg11.dtd'>
<svg width="133.92px" height="118.75px" enable-background="new 0 0 133.922 118.748" version="1.1" viewBox="0 0 133.922 118.748" xml:space="preserve" xmlns="//www.w3.org/2000/svg">
	<g fill="#222220">
		<path d="M0.918,112.034h2.479v0.529H1.539v2.34h1.495v0.549H1.539v2.655h1.867v0.548H0.918V112.034z"/>
		<path d="m8.633 117.15l0.595-0.019c0.065 0.659 0.315 1.096 0.854 1.096 0.594 0 0.779-0.521 0.779-0.994 0-0.445-0.194-0.91-0.566-1.318l-0.816-0.957c-0.445-0.501-0.733-1.021-0.733-1.597 0-0.808 0.445-1.43 1.347-1.43 0.715 0 1.244 0.39 1.309 1.467l-0.575 0.019c-0.075-0.678-0.315-0.975-0.762-0.975-0.455 0-0.743 0.287-0.743 0.873 0 0.427 0.297 0.826 0.65 1.234l0.705 0.826c0.502 0.576 0.78 1.124 0.78 1.802 0 0.92-0.491 1.561-1.374 1.561-0.864 0-1.376-0.557-1.45-1.588z"/>
		<path d="m16.916 117.32v-3.919c0-0.882 0.594-1.467 1.541-1.467 0.91 0 1.43 0.566 1.43 1.29v0.753h-0.557v-0.641c0-0.512-0.287-0.864-0.882-0.864-0.659 0-0.901 0.437-0.901 0.957v3.798c0 0.641 0.354 0.956 0.92 0.956 0.576 0 0.863-0.371 0.863-0.845v-0.659h0.557v0.696c0 0.808-0.538 1.365-1.42 1.365-0.947 1e-3 -1.551-0.509-1.551-1.42z"/>
		<path d="m25.486 117.3v-5.266h0.632v5.173c0 0.687 0.408 0.984 0.892 0.984 0.612 0 0.872-0.418 0.863-0.966v-5.191h0.594v5.2c0.01 0.929-0.585 1.514-1.504 1.514-0.845 0-1.477-0.464-1.477-1.448z"/>
		<path d="m34.233 112.03h2.479v0.529h-1.857v2.34h1.494v0.549h-1.494v2.655h1.866v0.548h-2.488v-6.621z"/>
		<path d="m42.303 112.03h0.621v6.073h1.867v0.548h-2.488v-6.621z"/>
		<path d="m51.346 112.02h0.826l1.338 6.64h-0.632l-0.408-2.099h-1.485l-0.409 2.099h-0.586l1.356-6.64zm1.021 4.021l-0.621-3.297h-0.029l-0.631 3.297h1.281z"/>
		<path d="m64.959 112.03h1.485c0.826 0 1.467 0.428 1.467 1.338v3.825c0 0.984-0.641 1.458-1.495 1.458h-1.457v-6.621zm1.41 6.073c0.678 0 0.901-0.501 0.901-0.91v-3.751c0-0.483-0.27-0.873-0.892-0.873h-0.798v5.534h0.789z"/>
		<path d="m73.604 112.03h2.479v0.529h-1.857v2.34h1.496v0.549h-1.496v2.655h1.867v0.548h-2.488v-6.621z"/>
		<path d="m87.623 112.03h0.734l1.087 2.916h0.019l1.076-2.916h0.716v6.621h-0.566v-5.404h-0.019l-1.021 2.73h-0.428l-1.012-2.721h-0.019v5.395h-0.567v-6.621z"/>
		<path d="m98.107 112.02h0.826l1.338 6.64h-0.631l-0.408-2.099h-1.485l-0.409 2.099h-0.585l1.354-6.64zm1.022 4.021l-0.622-3.297h-0.028l-0.631 3.297h1.281z"/>
		<path d="m105.77 112.03h0.697l1.773 4.959h0.019v-4.959h0.548v6.621h-0.585l-1.876-5.358h-0.019v5.358h-0.558v-6.621z"/>
		<path d="m114.6 112.03h2.479v0.529h-1.857v2.34h1.495v0.549h-1.495v2.655h1.866v0.548h-2.488v-6.621z"/>
		<path d="m122.38 117.36v-1.133h0.604v1.087c0 0.445 0.168 0.882 0.799 0.882 0.595 0 0.78-0.418 0.78-0.873v-5.293h0.622v5.256c0 0.864-0.482 1.458-1.411 1.458-0.911 0-1.394-0.519-1.394-1.384z"/>
		<path d="m130.84 117.23v-3.779c0-0.984 0.668-1.514 1.56-1.514 0.854 0 1.523 0.455 1.523 1.43v3.816c0 1.05-0.66 1.561-1.561 1.561-0.91-1e-3 -1.522-0.503-1.522-1.514zm2.451 0v-3.854c0-0.529-0.325-0.892-0.919-0.892-0.604 0-0.893 0.418-0.893 0.919v3.835c0 0.511 0.298 0.947 0.91 0.947 0.642 1e-3 0.902-0.454 0.902-0.955z"/>
	</g>
		<g fill="#AF2524">
			<path d="m0 86.838h3.731l2.475 7.992c0.274 0.884 0.53 2.259 0.53 2.259h0.039s0.256-1.375 0.53-2.259l2.514-7.992h3.673l-4.949 14.041h-3.574l-4.969-14.041z"/>
			<path d="M19.934,86.838h3.437v14.041h-3.437V86.838z"/>
			<path d="m37.98 86.602c3.477 0 5.264 1.984 5.264 1.984l-1.591 2.592s-1.571-1.434-3.516-1.434c-2.69 0-3.967 1.983-3.967 4.006 0 2.082 1.375 4.223 3.967 4.223 2.121 0 3.731-1.729 3.731-1.729l1.768 2.514s-1.983 2.356-5.656 2.356c-4.398 0-7.363-3.122-7.363-7.285 0-4.085 3.142-7.227 7.363-7.227z"/>
			<path d="M53.318,89.783h-4.262v-2.945h11.96v2.945h-4.261v11.096h-3.438V89.783z"/>
			<path d="m74.037 86.602c4.242 0 7.345 3.143 7.345 7.168 0 4.124-3.103 7.345-7.345 7.345s-7.344-3.221-7.344-7.345c0-4.026 3.102-7.168 7.344-7.168zm0 11.371c2.102 0 3.791-1.807 3.791-4.203 0-2.297-1.689-4.025-3.791-4.025s-3.79 1.729-3.79 4.025c0 2.396 1.689 4.203 3.79 4.203z"/>
			<path d="m88.629 86.838h4.891c1.434 0 2.12 0.098 2.729 0.334 1.592 0.608 2.593 2.042 2.593 4.084 0 1.493-0.707 3.123-2.101 3.83v0.039s0.195 0.255 0.529 0.845l2.73 4.909h-3.83l-2.494-4.732h-1.609v4.732h-3.438v-14.041zm4.93 6.362c1.1 0 1.787-0.608 1.787-1.728 0-1.061-0.393-1.689-2.121-1.689h-1.158v3.417h1.492z"/>
			<path d="m106.93 86.838h3.438v14.041h-3.438v-14.041z"/>
			<path d="m125.61 97.934h-4.38l-0.844 2.945h-3.535l4.771-14.041h3.614l4.772 14.041h-3.535l-0.863-2.945zm-2.2-7.895s-0.313 1.531-0.568 2.415l-0.806 2.729h2.769l-0.785-2.729c-0.256-0.884-0.569-2.415-0.569-2.415h-0.041z"/>
		</g>
				<polygon points="66.086 74.301 64.048 74.27 89.544 1.933 78.843 1.933 68.244 37.626 66.662 37.626 56.201 1.933 45.299 1.933 61.916 48.891 67.912 48.891 67.912 50.823 60.55 50.823 42.565 0 57.648 0 67.46 33.478 77.4 0 92.273 0" fill="#AF2524"/>
			<polygon points="63.271 65.923 61.232 65.893 64.113 57.722 66.162 57.722" fill="#58575D"/>
</svg>
