<?xml version="1.0" encoding="utf-8"?>
<!-- Generator: Adobe Illustrator 16.0.0, SVG Export Plug-In . SVG Version: 6.00 Build 0)  -->
<!DOCTYPE svg PUBLIC "-//W3C//DTD SVG 1.1//EN" "//www.w3.org/Graphics/SVG/1.1/DTD/svg11.dtd">
<svg version="1.1" xmlns="//www.w3.org/2000/svg" xmlns:xlink="//www.w3.org/1999/xlink" x="0px" y="0px"
	 width="116.984px" height="136.982px" viewBox="0 0 116.984 136.982" enable-background="new 0 0 116.984 136.982"
	 xml:space="preserve">
<g id="Layer_1">
	<g>
		<g>
			<g>
				<path fill="#27AAE2" d="M58.532,3.165L58.532,3.165c-0.012,0-0.023,0-0.039,0c-0.014,0-0.027,0-0.039,0l0,0
					C27.663,3.207,2.72,28.179,2.72,58.978c0,16.78,7.035,30.133,19.125,42.061c15.944,15.729,30.751,30.34,30.751,30.34
					c1.612,1.591,3.729,2.4,5.858,2.437v0.002c0.012,0,0.025-0.002,0.039-0.002c0.016,0,0.027,0.002,0.039,0.002v-0.002
					c2.128-0.036,4.246-0.846,5.861-2.437c0,0,14.802-14.61,30.748-30.34c12.09-11.928,19.124-25.28,19.124-42.061
					C114.266,28.179,89.323,3.207,58.532,3.165"/>
				<path fill="#FFFFFF" d="M110.123,58.977c0,28.518-23.117,51.633-51.63,51.633c-28.511,0-51.631-23.115-51.631-51.633
					c0-28.514,23.12-51.629,51.631-51.629C87.006,7.348,110.123,30.464,110.123,58.977"/>
				<path fill="#27AAE2" d="M22.906,54.935V39.076c0-0.431,0.251-0.684,0.683-0.684h5.322c3.27,0,5.296,1.872,5.296,4.889
					c0,3.015-2.026,4.865-5.296,4.865h-4.408c-0.102,0-0.151,0.05-0.151,0.152v6.637c0,0.506-0.305,0.787-0.736,0.787
					C23.209,55.722,22.906,55.441,22.906,54.935 M32.763,43.281c0-2.203-1.365-3.523-3.901-3.523h-4.358
					c-0.102,0-0.151,0.051-0.151,0.153v6.716c0,0.101,0.05,0.151,0.151,0.151h4.358C31.398,46.778,32.763,45.485,32.763,43.281"/>
				<path fill="#27AAE2" d="M37.551,49.667V39.076c0-0.508,0.307-0.786,0.734-0.786c0.406,0,0.711,0.278,0.711,0.786v10.615
					c0,3.244,1.646,4.814,4.385,4.814c2.762,0,4.409-1.57,4.409-4.814V39.076c0-0.508,0.303-0.786,0.707-0.786
					c0.431,0,0.736,0.278,0.736,0.786v10.591c0,4.204-2.281,6.208-5.853,6.208C39.832,55.875,37.551,53.871,37.551,49.667"/>
				<path fill="#27AAE2" d="M53.821,39.202c0-0.585,0.303-0.912,0.888-0.912c0.479,0,0.73,0.25,1.035,0.786l8.286,13.733h0.076
					V39.076c0-0.508,0.28-0.786,0.711-0.786c0.43,0,0.735,0.278,0.735,0.786v15.736c0,0.582-0.329,0.91-0.887,0.91
					c-0.481,0-0.736-0.254-1.064-0.785l-8.238-13.759h-0.1v13.759c0,0.504-0.305,0.785-0.736,0.785
					c-0.403,0-0.706-0.281-0.706-0.785V39.202z"/>
				<path fill="#27AAE2" d="M73.835,54.937V39.911c0-0.103-0.049-0.153-0.152-0.153h-4.559c-0.483,0-0.737-0.278-0.737-0.682
					c0-0.407,0.254-0.684,0.737-0.684h10.868c0.482,0,0.733,0.277,0.733,0.684c0,0.404-0.251,0.682-0.733,0.682h-4.559
					c-0.104,0-0.153,0.051-0.153,0.153v15.026c0,0.504-0.302,0.785-0.734,0.785C74.142,55.722,73.835,55.441,73.835,54.937"/>
				<path fill="#27AAE2" d="M82.732,51.996c-0.305-0.91-0.509-2.027-0.509-4.989c0-2.966,0.204-4.083,0.509-4.994
					c0.836-2.53,2.762-3.874,5.576-3.874c2.787,0,4.711,1.344,5.546,3.874c0.304,0.912,0.506,2.028,0.506,4.994
					c0,2.962-0.202,4.079-0.506,4.989c-0.835,2.533-2.759,3.879-5.546,3.879C85.493,55.875,83.568,54.529,82.732,51.996
					 M92.462,42.42c-0.636-1.904-2.027-2.916-4.154-2.916c-2.155,0-3.547,1.012-4.183,2.916c-0.23,0.684-0.433,1.798-0.433,4.587
					c0,2.786,0.202,3.903,0.433,4.586c0.636,1.899,2.027,2.913,4.183,2.913c2.127,0,3.519-1.014,4.154-2.913
					c0.227-0.683,0.429-1.8,0.429-4.586C92.891,44.218,92.689,43.104,92.462,42.42"/>
				<path fill="#27AAE2" d="M22.808,63.863c0-0.817,0.502-1.362,1.344-1.362h3.373c3.038,0,4.927,0.964,5.68,3.292
					c0.271,0.815,0.421,1.802,0.421,3.834c0,2.035-0.15,3.02-0.421,3.836c-0.753,2.328-2.642,3.291-5.68,3.291h-3.373
					c-0.842,0-1.344-0.525-1.344-1.34V63.863z M26.016,74.007h1.425c1.425,0,2.453-0.48,2.809-1.612
					c0.146-0.48,0.253-1.321,0.253-2.768c0-1.445-0.106-2.283-0.253-2.766c-0.355-1.132-1.384-1.615-2.809-1.615h-1.425
					c-0.085,0-0.128,0.045-0.128,0.128v8.509C25.888,73.966,25.931,74.007,26.016,74.007"/>
				<path fill="#27AAE2" d="M35.969,64.011c0-0.985,0.648-1.637,1.552-1.637c0.881,0,1.53,0.651,1.53,1.637v11.232
					c0,0.985-0.649,1.637-1.53,1.637c-0.903,0-1.552-0.651-1.552-1.637V64.011z"/>
				<path fill="#27AAE2" d="M41.398,69.627c0-2.094,0.084-2.89,0.399-3.897c0.73-2.306,2.7-3.459,5.239-3.459
					c2.307,0,3.898,0.944,4.652,2.223c0.17,0.292,0.275,0.586,0.275,0.921c0,0.817-0.631,1.384-1.406,1.384
					c-0.526,0-0.943-0.167-1.364-0.753c-0.544-0.758-1.235-1.051-2.157-1.051c-1.215,0-1.973,0.607-2.284,1.594
					c-0.172,0.525-0.231,1.195-0.231,3.039s0.06,2.535,0.231,3.061c0.312,0.963,1.091,1.572,2.327,1.572
					c1.09,0,1.989-0.565,2.283-1.468c0.126-0.375,0.166-0.857,0.166-1.404c0-0.082-0.04-0.124-0.123-0.124h-0.965
					c-0.797,0-1.297-0.482-1.297-1.215c0-0.735,0.5-1.218,1.297-1.218h2.936c0.777,0,1.215,0.44,1.215,1.218v0.144
					c0,1.259-0.104,2.434-0.358,3.229c-0.731,2.286-2.66,3.564-5.196,3.564c-2.539,0-4.509-1.153-5.239-3.459
					C41.482,72.517,41.398,71.724,41.398,69.627"/>
				<path fill="#27AAE2" d="M54.938,64.011c0-0.985,0.646-1.637,1.55-1.637c0.881,0,1.529,0.651,1.529,1.637v11.232
					c0,0.985-0.648,1.637-1.529,1.637c-0.904,0-1.55-0.651-1.55-1.637V64.011z"/>
				<path fill="#27AAE2" d="M63.698,75.244v-9.87c0-0.087-0.045-0.128-0.125-0.128h-2.41c-0.944,0-1.551-0.565-1.551-1.362
					c0-0.815,0.606-1.383,1.551-1.383h8.153c0.943,0,1.551,0.567,1.551,1.383c0,0.797-0.607,1.362-1.551,1.362h-2.408
					c-0.086,0-0.129,0.041-0.129,0.128v9.87c0,0.984-0.649,1.637-1.55,1.637C64.348,76.881,63.698,76.228,63.698,75.244"/>
				<path fill="#27AAE2" d="M70.38,74.847l3.859-10.668c0.399-1.135,1.027-1.805,2.115-1.805c1.094,0,1.742,0.67,2.137,1.805
					l3.797,10.668c0.063,0.168,0.104,0.379,0.104,0.589c0,0.88-0.71,1.444-1.488,1.444c-0.67,0-1.216-0.396-1.445-1.09l-0.588-1.742
					h-5.092l-0.565,1.742c-0.232,0.693-0.775,1.09-1.448,1.09c-0.773,0-1.487-0.564-1.487-1.444
					C70.278,75.226,70.319,75.015,70.38,74.847 M78.012,71.429l-1.633-4.99h-0.063l-1.656,4.99H78.012z"/>
				<path fill="#27AAE2" d="M84.444,64.011c0-0.985,0.651-1.637,1.551-1.637c0.878,0,1.532,0.651,1.532,1.637v9.872
					c0,0.082,0.04,0.123,0.124,0.123h5.073c0.943,0,1.551,0.568,1.551,1.365c0,0.815-0.607,1.382-1.551,1.382h-6.729
					c-0.945,0-1.551-0.626-1.551-1.551V64.011z"/>
			</g>
		</g>
	</g>
</g>
<g id="Layer_2">
	<rect x="0" y="0" fill="none" width="116.984" height="136.982"/>
</g>
</svg>
