<?xml version="1.0"?>
<svg xmlns="http://www.w3.org/2000/svg" id="Layer_1" enable-background="new 0 0 512 512" height="512px" viewBox="0 0 512 512" width="512px" class=""><g><path d="m483.158 196.727h-15v-181.727c0-8.284-6.716-15-15-15h-356.289c-27.702 0-50.239 22.537-50.239 50.239v17.102h-17.788c-8.284 0-15 6.716-15 15s6.716 15 15 15h17.788v56.83h-17.67c-8.284 0-15 6.716-15 15s6.716 15 15 15h17.67v56.829h-17.788c-8.284 0-15 6.716-15 15s6.716 15 15 15h17.788v56.83h-17.67c-8.284 0-15 6.716-15 15s6.716 15 15 15h17.67v56.83h-17.788c-8.284 0-15 6.716-15 15s6.716 15 15 15h17.788v17.102c0 27.701 22.537 50.238 50.239 50.238h356.289c8.284 0 15-6.716 15-15v-181.727h15c8.284 0 15-6.716 15-15v-88.547c0-8.284-6.716-14.999-15-14.999zm-406.528 265.034v-17.102h17.552c8.284 0 15-6.716 15-15s-6.716-15-15-15h-17.552v-56.83h17.67c8.284 0 15-6.716 15-15s-6.716-15-15-15h-17.67v-56.829h17.552c8.284 0 15-6.716 15-15s-6.716-15-15-15h-17.552v-56.83h17.67c8.284 0 15-6.716 15-15s-6.716-15-15-15h-17.67v-56.83h17.552c8.284 0 15-6.716 15-15s-6.716-15-15-15h-17.552v-17.101c0-11.16 9.079-20.239 20.239-20.239h29.761v452h-29.761c-11.16 0-20.239-9.079-20.239-20.239zm361.528 20.239h-281.528v-452h281.528v166.727h-29.273c-32.684 0-59.273 26.59-59.273 59.273s26.59 59.273 59.273 59.273h29.273zm30-196.727h-59.273c-16.142 0-29.273-13.132-29.273-29.273s13.132-29.273 29.273-29.273h59.273z" data-original="#000000" class="active-path" data-old_color="#000000" fill="#808080"/></g> </svg>
