<svg xmlns="http://www.w3.org/2000/svg" width="46" height="61.333" viewBox="0 0 46 61.333">
  <path id="Icon_awesome-file-download" data-name="Icon awesome-file-download" d="M26.833,16.292V0H2.875A2.868,2.868,0,0,0,0,2.875V58.458a2.868,2.868,0,0,0,2.875,2.875h40.25A2.868,2.868,0,0,0,46,58.458V19.167H29.708A2.883,2.883,0,0,1,26.833,16.292Zm9.158,25.319L24.441,53.075a2.043,2.043,0,0,1-2.88,0L10.011,41.611a1.916,1.916,0,0,1,1.348-3.278h7.808V28.75a1.916,1.916,0,0,1,1.917-1.917h3.833a1.916,1.916,0,0,1,1.917,1.917v9.583h7.808A1.917,1.917,0,0,1,35.991,41.611Zm9.17-29.033L33.434.839A2.873,2.873,0,0,0,31.4,0h-.731V15.333H46V14.6A2.866,2.866,0,0,0,45.161,12.578Z" fill="#a4a4a4"/>
</svg>
