<?xml version="1.0" encoding="utf-8"?>
<!-- Generator: Adobe Illustrator 24.0.1, SVG Export Plug-In . SVG Version: 6.00 Build 0)  -->
<svg version="1.1" id="Capa_1" xmlns="http://www.w3.org/2000/svg" xmlns:xlink="http://www.w3.org/1999/xlink" x="0px" y="0px"
	 viewBox="0 0 916 252" style="enable-background:new 0 0 916 252;" xml:space="preserve">
<style type="text/css">
	.st0{fill:#ED6F6A;}
	.st1{fill:#1B2034;}
	.st2{fill:#FFFFFF;}
</style>
<g>
	<path class="st0" d="M442.55,176.58h-14.48c-9.22,0-16.76,7.54-16.76,16.76V228c0,13.2,10.8,24,24,24c13.2,0,24-10.8,24-24v-34.66
		C459.31,184.12,451.77,176.58,442.55,176.58z"/>
	<g>
		<g>
			<path class="st1" d="M0.48,96.08h3.25c0,34.12,20.11,50.17,44.48,50.17c19.5,0,33.51-12.39,33.51-30.67
				c0-21.12-10.97-27.42-34.33-31.08C15.51,79.42,0.48,74.14,0.48,40.02C0.48,16.86,15.71,0,38.46,0C59.38,0,67.3,12.39,74.21,12.39
				c4.67,0,5.28-5.08,5.89-7.72h3.25v42.66H80.1C78.27,24.17,65.68,3.25,38.46,3.25C21.2,3.25,9.01,14.63,9.01,33.31
				c0,18.28,6.91,22.34,40.63,28.44c29.66,5.28,41.84,14.83,41.84,41.23c0,26.61-14.62,46.51-44.08,46.51
				c-20.31,0-31.08-10.56-38.59-10.56c-4.87,0-5.08,5.08-5.08,8.53H0.48V96.08z"/>
			<path class="st1" d="M245.24,99.93h-43.47l-8.33,25.59c-1.42,4.06-3.05,8.94-3.05,12.39c0,2.84,2.44,5.08,8.94,5.08h10.56v3.25
				h-41.84V143h6.5c6.3,0,8.94-0.61,12.8-11.98L231.02,0h2.23l49.36,143h16.86v3.25h-59.51V143h19.91L245.24,99.93z M223.3,35.14
				h-0.41l-19.91,61.55h41.23L223.3,35.14z"/>
			<path class="st1" d="M397.78,13h-0.41v118.42c0,9.75,3.25,11.58,12.59,11.58h8.13v3.25h-43.47V143h6.91
				c9.34,0,12.59-1.83,12.59-11.58V6.5h-19.5V3.25h42.66l76.78,106.03h0.41V17.47c0-8.33-1.62-10.97-10.56-10.97h-9.55V3.25h42.86
				V6.5h-8.94c-8.94,0-10.56,2.64-10.56,10.97v129.99h-2.64L397.78,13z"/>
			<path class="st1" d="M647.81,6.5h-4.27c-36.15,0-44.28,5.48-44.28,38.79h-3.25V3.25h124.31V45.3h-3.25
				c0-33.31-8.13-38.79-44.08-38.79h-4.47V143h20.92v3.25h-62.56V143h20.92V6.5z"/>
			<path class="st1" d="M861.29,99.93h-43.47l-8.33,25.59c-1.42,4.06-3.05,8.94-3.05,12.39c0,2.84,2.44,5.08,8.94,5.08h10.56v3.25
				H784.1V143h6.5c6.3,0,8.94-0.61,12.8-11.98L847.07,0h2.23l49.36,143h16.86v3.25h-59.51V143h19.91L861.29,99.93z M839.35,35.14
				h-0.41l-19.9,61.55h41.23L839.35,35.14z"/>
		</g>
	</g>
	<g>
		<g>
			<path class="st1" d="M195.21,232.97c-7.1,0-12.11-4.86-12.11-11.76v-23.86h2.68v23.51c0,5.85,3.72,9.72,9.43,9.72
				c5.7,0,9.43-3.87,9.43-9.72v-23.51h2.68v23.86C207.31,228.11,202.3,232.97,195.21,232.97z"/>
			<path class="st1" d="M260.66,232.68l-20.39-30.71v30.71h-2.68v-35.32h2.68l20.39,30.61v-30.61h2.68v35.32H260.66z M253.47,193.24
				c-1.14,0-1.88-0.3-3.42-1.19c-0.94-0.54-1.79-1.04-2.78-1.04c-0.79,0-1.39,0.1-2.93,1.64l-1.49-1.44
				c2.28-2.28,3.47-2.38,4.42-2.38c1.44,0,2.23,0.45,3.42,1.19c1.04,0.64,1.79,1.04,2.78,1.04c0.74,0,1.39-0.1,2.93-1.64l1.49,1.44
				C255.6,193.14,254.36,193.24,253.47,193.24z"/>
			<path class="st1" d="M314.9,232.68l-3.08-8.58h-16.47l-3.08,8.58h-2.88l13-35.32h2.38l13,35.32H314.9z M296.2,221.71h14.78
				l-7.39-20.79L296.2,221.71z"/>
			<path class="st1" d="M352.67,232.97c-5.21,0-8.53-1.44-11.76-4.66l1.89-1.88c3.18,3.18,5.8,4.17,10.02,4.17
				c5.61,0,9.08-2.68,9.08-7.29c0-2.13-0.6-3.82-1.94-4.96c-1.24-1.09-2.28-1.44-5.11-1.89l-4.12-0.64c-2.68-0.4-4.76-1.19-6.3-2.53
				c-1.84-1.54-2.78-3.72-2.78-6.55c0-5.91,4.17-9.68,10.96-9.68c4.37,0,7.15,1.19,10.17,3.82l-1.74,1.74
				c-2.08-1.98-4.42-3.27-8.58-3.27c-5.16,0-8.19,2.78-8.19,7.29c0,2.03,0.55,3.62,1.79,4.66c1.24,1.04,3.08,1.74,5.06,2.03
				l4.12,0.64c3.27,0.5,4.66,1.04,6.3,2.43c1.89,1.64,3.03,3.92,3.03,6.8C364.58,229.15,360.06,232.97,352.67,232.97z"/>
			<path class="st2" d="M446.63,232.68l-3.42-4.17c-1.34,1.34-5.06,4.46-10.87,4.46c-6.5,0-10.96-4.07-10.96-10.07
				c0-5.41,3.67-7.99,8.09-10.96c-1.84-2.23-3.92-4.76-3.92-7.84c0-3.97,3.23-7.05,7.19-7.05c3.97,0,7.19,3.13,7.19,7.09
				c0,2.93-1.84,4.81-4.07,6.35l-2.63,1.79l10.12,12.25c1.59-2.38,2.08-4.32,2.08-8.78h2.63c0,4.42-0.84,7.99-3.08,10.77l5.06,6.15
				H446.63z M424.06,222.76c0,4.61,3.32,7.84,8.24,7.84c2.83,0,5.85-0.74,9.43-3.92L431,213.73
				C427.28,216.21,424.06,218.44,424.06,222.76z M432.74,199.44c-2.58,0-4.51,1.94-4.51,4.56c0,1.79,0.7,3.23,3.47,6.5
				c3.27-2.08,5.61-3.62,5.61-6.35C437.3,201.42,435.32,199.44,432.74,199.44z"/>
			<path class="st1" d="M541.69,232.68v-29.12l-10.72,24.16h-2.68l-10.91-24.16v29.12h-2.68v-35.32h2.68l12.3,27.24l12.01-27.24
				h2.68v35.32H541.69z"/>
			<path class="st1" d="M595.94,232.68l-3.08-8.58h-16.47l-3.08,8.58h-2.88l13-35.32h2.38l13,35.32H595.94z M577.23,221.71h14.78
				l-7.39-20.79L577.23,221.71z"/>
			<path class="st1" d="M647.94,232.68l-20.39-30.71v30.71h-2.68v-35.32h2.68l20.39,30.61v-30.61h2.68v35.32H647.94z"/>
			<path class="st1" d="M700.7,229.6c-2.08,2.08-5.06,3.37-8.58,3.37c-3.52,0-6.5-1.29-8.58-3.37c-3.27-3.27-3.52-6-3.52-14.59
				c0-8.58,0.25-11.31,3.52-14.58c2.08-2.08,5.06-3.37,8.58-3.37c3.52,0,6.5,1.29,8.58,3.37c3.27,3.27,3.52,6,3.52,14.58
				C704.22,223.6,703.97,226.33,700.7,229.6z M698.81,202.17c-1.84-1.84-4.12-2.73-6.7-2.73c-2.58,0-4.86,0.89-6.7,2.73
				c-2.53,2.53-2.73,5.41-2.73,12.85s0.2,10.32,2.73,12.85c1.84,1.84,4.12,2.73,6.7,2.73c2.58,0,4.86-0.89,6.7-2.73
				c2.53-2.53,2.73-5.41,2.73-12.85S701.34,204.7,698.81,202.17z"/>
			<path class="st1" d="M742.43,232.97c-5.21,0-8.53-1.44-11.76-4.66l1.88-1.88c3.18,3.18,5.81,4.17,10.02,4.17
				c5.61,0,9.08-2.68,9.08-7.29c0-2.13-0.6-3.82-1.94-4.96c-1.24-1.09-2.28-1.44-5.11-1.89l-4.12-0.64c-2.68-0.4-4.76-1.19-6.3-2.53
				c-1.84-1.54-2.78-3.72-2.78-6.55c0-5.91,4.17-9.68,10.96-9.68c4.36,0,7.14,1.19,10.17,3.82l-1.74,1.74
				c-2.08-1.98-4.42-3.27-8.58-3.27c-5.16,0-8.19,2.78-8.19,7.29c0,2.03,0.55,3.62,1.79,4.66c1.24,1.04,3.08,1.74,5.06,2.03
				l4.12,0.64c3.27,0.5,4.66,1.04,6.3,2.43c1.88,1.64,3.02,3.92,3.02,6.8C754.34,229.15,749.83,232.97,742.43,232.97z"/>
		</g>
	</g>
</g>
</svg>
