<svg xmlns="http://www.w3.org/2000/svg" width="32.4" height="36" viewBox="0 0 32.4 36">
  <path id="Icon_material-assignment-turned-in" data-name="Icon material-assignment-turned-in" d="M33.3,5.1H25.776a5.379,5.379,0,0,0-10.152,0H8.1A3.611,3.611,0,0,0,4.5,8.7V33.9a3.611,3.611,0,0,0,3.6,3.6H33.3a3.611,3.611,0,0,0,3.6-3.6V8.7A3.611,3.611,0,0,0,33.3,5.1Zm-12.6,0a1.8,1.8,0,1,1-1.8,1.8A1.805,1.805,0,0,1,20.7,5.1ZM17.1,30.3,9.9,23.1l2.538-2.538L17.1,25.206,28.962,13.344,31.5,15.9Z" transform="translate(-4.5 -1.5)" fill="gray"/>
</svg>
