<svg xmlns="http://www.w3.org/2000/svg" width="130.804" height="142.645" viewBox="0 0 130.804 142.645">
  <g id="beauty-salon" transform="translate(-48.391 67.058) rotate(-41)">
    <path id="Trazado_499" data-name="Trazado 499" d="M188.359,165.406a1.59,1.59,0,0,0,.327.474,7.533,7.533,0,0,0-.164-2.383q-.085.366-.208.73A1.59,1.59,0,0,0,188.359,165.406Z" transform="translate(-116.565 -103.191)" fill="#d4e1f4"/>
    <path id="Trazado_500" data-name="Trazado 500" d="M190.933,190.187l-62.107-21.294a7.575,7.575,0,0,1-4.923-5.471,7.587,7.587,0,0,0,4.923,8.878l62.107,21.294a6.969,6.969,0,0,0,8.818-3.362l-2.255-.771A7.346,7.346,0,0,1,190.933,190.187Z" transform="translate(-66.706 -103.133)" fill="#caffc7"/>
    <path id="Trazado_501" data-name="Trazado 501" d="M138.782,85.426a1.59,1.59,0,0,0-.913-.8l-2.7-.922,1.322-2.937c.02-.045.038-.091.054-.136a5.445,5.445,0,0,0-.341-4.388,5.944,5.944,0,0,0-3.343-2.785L101.756,62.787a5.942,5.942,0,0,0-4.349.147,5.44,5.44,0,0,0-2.935,3.18l-1.431,3.18L77.4,63.948a10.633,10.633,0,0,0,.016-3.818l16.958-5.818.348,1.392a1.256,1.256,0,0,0,.038.13,5.537,5.537,0,0,0,5.308,3.74,6.163,6.163,0,0,0,2-.339l31.1-10.67a5.643,5.643,0,0,0,3.683-7.173,1.614,1.614,0,0,0-.06-.15l-.591-1.281,1.522-.522a1.59,1.59,0,0,0,.988-2.02l-.252-.735a10.154,10.154,0,0,0-13.166-6.09L64.09,51.6a10.883,10.883,0,0,0-4.152,2.14L48.1,53.852a7.648,7.648,0,0,0-7.786,7.457l-.009.382a7.638,7.638,0,0,0,7.456,7.816h.062l11.119-.178a10.7,10.7,0,0,0,4.392,2.847L125.441,93.47a11.16,11.16,0,0,0,3.623.613,9.944,9.944,0,0,0,9.542-6.706l.252-.736A1.59,1.59,0,0,0,138.782,85.426ZM97.4,67.358c.02-.045.038-.091.054-.136a2.263,2.263,0,0,1,1.242-1.38,2.777,2.777,0,0,1,2.028-.045l31.106,10.665a2.774,2.774,0,0,1,1.574,1.281,2.256,2.256,0,0,1,.155,1.79l-1.411,3.135L96.063,70.328Zm36.475-24.867a2.448,2.448,0,0,1-1.729,3.065l-31.1,10.671a2.448,2.448,0,0,1-3.251-1.368l-.4-1.583L133.186,41ZM126.332,33.6a6.969,6.969,0,0,1,8.819,3.362L76.4,57.117a10.667,10.667,0,0,0-4.785-4.742ZM47.807,66.325a4.456,4.456,0,0,1-4.322-4.56l.009-.382a4.458,4.458,0,0,1,4.56-4.351h.053l9.225-.091a10.9,10.9,0,0,0-.683,1.572,10.677,10.677,0,0,0,.264,7.667Zm78.666,24.136L64.366,69.167A7.575,7.575,0,0,1,63.493,55.2a7.749,7.749,0,0,1,.739-.313,1.594,1.594,0,0,0,.26-.064l.469-.161a7.494,7.494,0,0,1,1.856-.237,7.587,7.587,0,0,1,7.178,10.02,1.59,1.59,0,0,0,.984,2.037L135.291,87.1A6.97,6.97,0,0,1,126.473,90.461Z" transform="translate(-2.245 0)" fill="#159d0b"/>
    <path id="Trazado_502" data-name="Trazado 502" d="M142.688,150.519a4.706,4.706,0,1,0-1.558,9.15,4.818,4.818,0,0,0,2.572-.746,5.435,5.435,0,0,0,1.949-2.432A4.866,4.866,0,0,0,142.688,150.519Zm-.128,4.939a1.521,1.521,0,1,1-.945-1.932,1.521,1.521,0,0,1,.945,1.932Z" transform="translate(-76.544 -92.964)" fill="#159d0b"/>
    <g id="Grupo_676" data-name="Grupo 676" transform="translate(37.399 75.571)">
      <path id="Trazado_503" data-name="Trazado 503" d="M122.1,272.019a5,5,0,0,0-2.362-3.812l-.186-.119a1.59,1.59,0,0,0-2.2.486l-5.728,8.986-1.611-1.158,5.945-9.326a1.59,1.59,0,1,0-2.68-1.709l-5.849,9.177-1.933-1.389,6.136-9.626a1.591,1.591,0,0,0-2.683-1.71l-6.042,9.477-2.294-1.649,6.315-9.906a1.59,1.59,0,1,0-2.68-1.709l-6.219,9.756L96.1,266.4l6.387-10.019a1.59,1.59,0,1,0-2.68-1.709l-6.292,9.869L91.4,263.019l6.571-10.309A1.59,1.59,0,1,0,95.292,251l-6.476,10.159L86.7,259.641l6.516-10.225a1.59,1.59,0,1,0-2.68-1.709l-6.422,10.074-1.971-1.417,6.534-10.25a1.59,1.59,0,0,0-.486-2.2l-.186-.118c-2.671-1.7-6.087-.786-7.947,2.131l-5.8,9.1c-6.413-2.338-9.459-7.087-12.675-12.1-2.46-3.835-5-7.8-9.132-10.432a10.582,10.582,0,0,0-7.468-1.662A9.078,9.078,0,0,0,38.856,235a9.227,9.227,0,0,0,3.73,13.273c.818.434,20.47,10.87,28.214,15.505,7.939,4.752,27.982,17.7,36.231,23.052a5.954,5.954,0,0,0,3.248.967,6.044,6.044,0,0,0,1.286-.139,5.954,5.954,0,0,0,3.783-2.636l5.625-8.825a6.742,6.742,0,0,0,1.128-4.173Zm-3.809,2.464-5.624,8.825a2.817,2.817,0,0,1-3.907.85c-8.263-5.357-28.344-18.334-36.327-23.112-7.939-4.752-28.179-15.491-28.382-15.6L44,245.42a6.048,6.048,0,0,1-2.461-8.714,5.858,5.858,0,0,1,3.995-2.735,6.094,6.094,0,0,1,1.049-.089,7.816,7.816,0,0,1,4.164,1.3c3.539,2.256,5.786,5.759,8.165,9.468,3.395,5.292,7.243,11.291,15.566,13.8a1.59,1.59,0,0,0,1.8-.667l6.464-10.141a3.124,3.124,0,0,1,2.152-1.505l-6.239,9.787a1.59,1.59,0,0,0,.413,2.146l32.069,23.056a1.59,1.59,0,0,0,2.269-.436l5.492-8.618a2,2,0,0,1,.036.239,3.576,3.576,0,0,1-.642,2.173Z" transform="translate(-37.399 -230.7)" fill="#f7622d"/>
      <path id="Trazado_504" data-name="Trazado 504" d="M67.607,254.672a4.178,4.178,0,1,0,1.277,5.769,4.178,4.178,0,0,0-1.277-5.769Zm-1.4,4.06a1,1,0,1,1,.133-.753,1,1,0,0,1-.133.753Z" transform="translate(-55.781 -248.72)" fill="#f7622d"/>
    </g>
  </g>
</svg>
