<svg id="doctor" xmlns="http://www.w3.org/2000/svg" width="102.152" height="127.484" viewBox="0 0 102.152 127.484">
  <path id="Trazado_541" data-name="Trazado 541" d="M222.937,291.37l-2.08-14.533,1.42-2.9a20.4,20.4,0,0,1-4.643-1.5l-2.153,4.4,2.08,14.533a41.764,41.764,0,0,0,9.582,2.542,18.143,18.143,0,0,0,2.731-.448A42.213,42.213,0,0,1,222.937,291.37Z" transform="translate(-175.297 -204.275)" fill="#c2ffbe"/>
  <path id="Trazado_542" data-name="Trazado 542" d="M85.376,358.178V337.418c0-5.755,5.984-11.535,16.335-16.056a6.546,6.546,0,0,1-.561-1.9C87.86,324.192,80,330.822,80,337.418v20.759c0,1.758,2.466,4.18,4.257,4.18h5.376C87.843,362.358,85.376,359.936,85.376,358.178Z" transform="translate(-76.237 -238.663)" fill="#c2ffbe"/>
  <path id="Trazado_543" data-name="Trazado 543" d="M311.564,58.041a10.885,10.885,0,0,0-2.192-.325,1.882,1.882,0,0,0,1.8.424C311.3,58.1,311.434,58.074,311.564,58.041Z" transform="translate(-243.948 -47.278)" fill="#d4e1f4"/>
  <path id="Trazado_544" data-name="Trazado 544" d="M183.87,93.067c-6.729-4.16-7.491-12.4-7.575-14.008a1.882,1.882,0,0,0-1.882-1.83h-.035c-2.346.04-5.753-3.616-7.057-9.135-.408-1.734.132-3.028.876-3.412.708-.365,1.442.3,1.816.723a1.882,1.882,0,0,0,3.005-2.247c-.655-1.645-1.444-11.888-1.444-13.708A16.6,16.6,0,0,1,185.462,33.1a16.784,16.784,0,0,0-2.694-.22A16.59,16.59,0,0,0,166.2,49.451c0,1.82.789,12.063,1.444,13.708a1.882,1.882,0,0,1-3.005,2.247c-.374-.427-1.109-1.087-1.816-.723-.744.383-1.284,1.678-.876,3.412,1.3,5.519,4.711,9.175,7.057,9.135h.035a1.882,1.882,0,0,1,1.882,1.83c.084,1.609.846,9.848,7.575,14.008A18.128,18.128,0,0,0,188.15,95.5a23.3,23.3,0,0,0,2.668-.149A16.678,16.678,0,0,1,183.87,93.067Z" transform="translate(-136.05 -29.119)" fill="#c2ffbe"/>
  <path id="Trazado_545" data-name="Trazado 545" d="M368.194,348.563a7.647,7.647,0,0,0,3.505-14.879,57.735,57.735,0,0,0-5.006-21.737,1.882,1.882,0,0,0-3.39,1.635,53.649,53.649,0,0,1,4.624,20.042,7.65,7.65,0,0,0,.266,14.939Zm-2.3-8.265a3.885,3.885,0,1,1,3.04,4.576,3.888,3.888,0,0,1-3.04-4.576Z" transform="translate(-282.47 -232.388)" fill="#f8622d"/>
  <path id="Trazado_546" data-name="Trazado 546" d="M90.146,345.6a1.882,1.882,0,0,0,.266-3.754,1.1,1.1,0,0,1-1.022-1.027l3.9-13.54a1.882,1.882,0,0,0,.069-.388,1.1,1.1,0,0,1,1.177-1.021l6.7.473a1.1,1.1,0,0,1,1.022,1.177,1.892,1.892,0,0,0,.013.394l1.953,13.954a1.1,1.1,0,0,1-1.156.872,1.882,1.882,0,1,0-.266,3.754q.176.013.351.012a4.866,4.866,0,0,0,4.846-4.522,1.89,1.89,0,0,0-.013-.394l-1.962-14.026a4.872,4.872,0,0,0-4.521-4.976l-.906-.064a54.968,54.968,0,0,1,4.531-12.023,1.882,1.882,0,0,0-3.285-1.837,60.509,60.509,0,0,0-5.059,13.59l-1.977-.14a4.866,4.866,0,0,0-5.176,4.291L85.7,340.015a1.879,1.879,0,0,0-.069.388A4.872,4.872,0,0,0,90.146,345.6Z" transform="translate(-80.348 -230.061)" fill="#f8622d"/>
  <path id="Trazado_547" data-name="Trazado 547" d="M112.108,146.347a1.736,1.736,0,0,0,.593,0h47.6c3.816,0,7.851-4.083,7.851-7.944V117.644c0-8.5-8.567-16.552-22.955-21.635a8.707,8.707,0,0,0-3.916-3.873c-.542-.287-4.494-1.7-7.99-2.928l-2.151-4.227c5.693-4.409,7.324-11.209,7.784-14.431,3.949-1.026,7.589-5.664,9.044-11.822.751-3.182-.33-6.176-2.69-7.452a4.845,4.845,0,0,0-1.928-.577,68.756,68.756,0,0,0,2.258-10.453,14.7,14.7,0,0,0-17.587-14.409A20.333,20.333,0,0,0,92.384,39.221c0,.867.207,4.288.532,7.677.143,1.493.281,2.7.413,3.679a4.668,4.668,0,0,0-2.283.531c-2.459,1.267-3.59,4.328-2.815,7.62v0c1.452,6.147,5.081,10.78,9.022,11.816.423,3.272,2,10.144,7.846,14.556l-2.226,4.552c-4.459,1.407-6.948,2.24-7.393,2.471a9.009,9.009,0,0,0-3.615,3.263C75.427,100.757,66,108.866,66,117.644V138.4c0,3.861,4.122,7.944,8.02,7.944Zm1.9-3.764-5.089-32.326a41.352,41.352,0,0,0,8.93,2.031,42.325,42.325,0,0,0,9.328-2.128l-4.99,32.423Zm-5.74-36.6-2.08-14.533,2.153-4.4a22.913,22.913,0,0,0,9.763,1.982,22.457,22.457,0,0,0,9.829-2.06l2.078,4.086-2.178,14.819a41.1,41.1,0,0,1-9.982,2.652A41.756,41.756,0,0,1,108.263,105.983Zm36.743-3.955a6.786,6.786,0,0,0,.7-1.823c11.591,4.467,18.682,11.027,18.682,17.439V138.4c0,1.8-2.33,4.18-4.088,4.18H127.193l16.973-26.876a7.968,7.968,0,0,0,1.51-5.783,4.21,4.21,0,0,0-1.783-2.815,11.226,11.226,0,0,0-2.055-1.017A19.2,19.2,0,0,0,145.007,102.028Zm-13.556,5.081,2.036-13.842c2.921,1.035,5.618,2.01,6.065,2.21a4.706,4.706,0,0,1,2.426,2.6,2.661,2.661,0,0,1-.261,2.124,19.862,19.862,0,0,1-4.731,5.169,1.882,1.882,0,0,0,.669,3.337,17.521,17.521,0,0,1,4.151,1.534.633.633,0,0,1,.171.379,4.272,4.272,0,0,1-.92,2.966c-.017.025-.034.05-.05.076L127.038,135.78Zm-30.582-38.28A1.882,1.882,0,0,0,98.987,67h-.035c-2.346.04-5.753-3.616-7.057-9.135-.408-1.734.132-3.028.876-3.412.708-.365,1.442.3,1.816.723a1.882,1.882,0,0,0,3.005-2.247c-.655-1.645-1.444-11.888-1.444-13.708A16.569,16.569,0,0,1,125.833,29.1a1.882,1.882,0,0,0,2.016.655,10.937,10.937,0,0,1,14,10.5c0,1.407-2.373,11.171-3.181,12.595a1.882,1.882,0,0,0,2.9,2.386c.317-.334,1.139-1.064,1.925-.64.679.367,1.224,1.549.817,3.276-1.3,5.519-4.715,9.178-7.057,9.136a1.878,1.878,0,0,0-1.917,1.808c-.111,1.6-.995,9.806-7.6,13.975a17.749,17.749,0,0,1-9.633,2.481,18.131,18.131,0,0,1-9.657-2.428C101.715,78.677,100.953,70.438,100.869,68.829ZM94.742,98.093a4.725,4.725,0,0,1,2.439-2.611c.459-.192,2.882-.986,5.517-1.826l2.077,14.515c.006.041.013.081.021.121l4.29,27.252L95.719,113.9c-.019-.031-.039-.062-.06-.092a4.46,4.46,0,0,1-.917-3.063.691.691,0,0,1,.17-.4,18.553,18.553,0,0,1,4.178-1.6,1.882,1.882,0,0,0,.648-3.325,19.877,19.877,0,0,1-4.739-5.2,2.669,2.669,0,0,1-.257-2.135ZM69.764,138.4V117.644c0-6.6,7.86-13.226,21.151-17.954a6.64,6.64,0,0,0,.795,2.366,19.515,19.515,0,0,0,3.211,4.12,11.878,11.878,0,0,0-2.1,1.046,4.229,4.229,0,0,0-1.781,2.832,8.072,8.072,0,0,0,1.5,5.872l16.465,26.659H74.02C72.23,142.583,69.764,140.161,69.764,138.4Z" transform="translate(-66 -18.888)" fill="#159d0b"/>
</svg>
