<svg id="Grupo_717" data-name="Grupo 717" xmlns="http://www.w3.org/2000/svg" width="94.867" height="94.625" viewBox="0 0 94.867 94.625">
  <g id="Grupo_414" data-name="Grupo 414" transform="translate(27.484 26.881)">
    <path id="Trazado_240" data-name="Trazado 240" d="M1087.587,3263.415a14.786,14.786,0,0,0-7.112-5.906,7.545,7.545,0,0,0,1.929-5.063V3251a7.594,7.594,0,0,0-15.188,0v1.447a7.781,7.781,0,0,0,1.929,5.063,15.478,15.478,0,0,0-7.112,5.906,16.273,16.273,0,1,1,25.555,0Zm-16.755-10.849v-1.447a3.857,3.857,0,1,1,7.715,0v1.447a3.808,3.808,0,0,1-3.857,3.857,3.884,3.884,0,0,1-3.857-3.857Zm-6.147,13.621a11.247,11.247,0,0,1,10.125-6.027,11.383,11.383,0,0,1,10.125,6.027,16.413,16.413,0,0,1-20.251,0Zm10.125-32.787a19.954,19.954,0,0,0-13.742,34.475l.241.241a19.909,19.909,0,0,0,13.5,5.3,20.14,20.14,0,0,0,13.5-5.3l.241-.241a19.838,19.838,0,0,0,6.268-14.465,20.194,20.194,0,0,0-20.01-20.01Z" transform="translate(-1054.8 -3233.4)" fill="#f15a24"/>
  </g>
  <g id="Grupo_724" data-name="Grupo 724">
    <g id="Grupo_718" data-name="Grupo 718" transform="translate(0 19.527)">
      <path id="Trazado_239" data-name="Trazado 239" d="M1079.494,3278.289a23.626,23.626,0,1,1,23.626-23.626,23.665,23.665,0,0,1-23.626,23.626Zm-35.56-26.881a4.1,4.1,0,0,1,8.2,0v1.447a4.1,4.1,0,0,1-8.2,0v-1.447Zm62.8,0a4.1,4.1,0,0,1,8.2,0v1.447a4.1,4.1,0,0,1-8.2,0v-1.447Zm10.608,5.906a7.688,7.688,0,0,0,1.326-4.339v-1.447a7.819,7.819,0,0,0-7.835-7.835,7.738,7.738,0,0,0-5.545,2.29,27.316,27.316,0,0,0-51.833,0,7.739,7.739,0,0,0-5.545-2.29,7.819,7.819,0,0,0-7.835,7.835v1.447a7.688,7.688,0,0,0,1.326,4.339,11.8,11.8,0,0,0-9.4,11.693v3.737a1.854,1.854,0,0,0,1.808,1.808h9.643a1.808,1.808,0,0,0,0-3.616h-7.715v-1.929a8.205,8.205,0,0,1,8.2-8.2h8.8a27.6,27.6,0,0,0,3.616,8.679l-21.095,21.095a6.931,6.931,0,0,0,4.942,11.813,7.251,7.251,0,0,0,4.942-2.049l11.572-11.572a1.875,1.875,0,0,0-2.652-2.652l-11.572,11.572a3.239,3.239,0,0,1-4.581-4.581l20.733-20.733a27.325,27.325,0,0,0,47.494-11.693h8.8a8.206,8.206,0,0,1,8.2,8.2v1.929h-17.358a1.808,1.808,0,1,0,0,3.616h19.287a1.854,1.854,0,0,0,1.808-1.808v-3.737a12,12,0,0,0-9.523-11.572Z" transform="translate(-1032 -3227.3)" fill="#159d0b"/>
    </g>
    <g id="Grupo_719" data-name="Grupo 719" transform="translate(26.519 72.807)">
      <path id="Trazado_241" data-name="Trazado 241" d="M1055.808,3271.5a2.528,2.528,0,0,0-1.326.482,1.814,1.814,0,0,0-.482,1.326,2.527,2.527,0,0,0,.482,1.326,1.645,1.645,0,0,0,1.326.482,2.528,2.528,0,0,0,1.326-.482,1.812,1.812,0,0,0,.482-1.326,2.529,2.529,0,0,0-.482-1.326,1.815,1.815,0,0,0-1.326-.482Z" transform="translate(-1054 -3271.5)" fill="#159d0b"/>
    </g>
    <g id="Grupo_720" data-name="Grupo 720" transform="translate(45.686)">
      <path id="Trazado_242" data-name="Trazado 242" d="M1071.708,3220.985a1.854,1.854,0,0,0,1.808-1.808v-6.269a1.808,1.808,0,0,0-3.616,0v6.269a1.775,1.775,0,0,0,1.808,1.808Z" transform="translate(-1069.9 -3211.1)" fill="#159d0b"/>
    </g>
    <g id="Grupo_721" data-name="Grupo 721" transform="translate(45.686 12.295)">
      <path id="Trazado_243" data-name="Trazado 243" d="M1071.708,3224.916a2.527,2.527,0,0,0,1.326-.482,1.813,1.813,0,0,0,.482-1.326,2.526,2.526,0,0,0-.482-1.326,1.813,1.813,0,0,0-1.326-.482,2.527,2.527,0,0,0-1.326.482,1.812,1.812,0,0,0-.482,1.326,2.525,2.525,0,0,0,.482,1.326,1.812,1.812,0,0,0,1.326.482Z" transform="translate(-1069.9 -3221.3)" fill="#159d0b"/>
    </g>
    <g id="Grupo_722" data-name="Grupo 722" transform="translate(56.715 6.57)">
      <path id="Trazado_244" data-name="Trazado 244" d="M1080.918,3223.481a1.815,1.815,0,0,0,1.326-.482l3.255-3.255a1.875,1.875,0,1,0-2.652-2.652l-3.255,3.254a1.893,1.893,0,0,0,0,2.652,1.815,1.815,0,0,0,1.326.482Z" transform="translate(-1079.05 -3216.55)" fill="#159d0b"/>
    </g>
    <g id="Grupo_723" data-name="Grupo 723" transform="translate(31.16 6.569)">
      <path id="Trazado_245" data-name="Trazado 245" d="M1061.647,3223a2.065,2.065,0,0,0,2.652,0,1.892,1.892,0,0,0,0-2.652l-3.255-3.255a1.875,1.875,0,0,0-2.652,2.652l3.255,3.255Z" transform="translate(-1057.85 -3216.55)" fill="#159d0b"/>
    </g>
  </g>
</svg>
