<svg xmlns="http://www.w3.org/2000/svg" width="99.993" height="88.033" viewBox="0 0 99.993 88.033">
  <g id="Grupo_483" data-name="Grupo 483" transform="translate(-525.3 -3041.3)">
    <g id="Grupo_399" data-name="Grupo 399" transform="translate(525.3 3041.3)">
      <g id="Grupo_714" data-name="Grupo 714">
        <path id="Trazado_615" data-name="Trazado 615" d="M79.5,29.825a6.254,6.254,0,0,1,2.547,4.839c.255,3.438,0,29.926,0,29.926h5.6l-.637-33.364v-1.4l-4.075-.891Z" transform="translate(-30 19.344)" fill="#ffdfd4"/>
        <path id="Trazado_616" data-name="Trazado 616" d="M79.5,29.425s2.292.772,2.547,2.668,0,16.5,0,16.5h5.6L87.013,30.2v-.772l-4.075-.491Z" transform="translate(-62 36.344)" fill="#ffdfd4"/>
        <path id="Trazado_614" data-name="Trazado 614" d="M79.5,30.333a9.822,9.822,0,0,1,4,7.6c.4,5.4,0,47,0,47h8.8l-1-52.4v-2.2l-6.4-1.4Z" fill="#ffdfd4"/>
        <g id="Grupo_397" data-name="Grupo 397" transform="translate(0 27.742)">
          <path id="Trazado_235" data-name="Trazado 235" d="M623.2,3119.9h-4.562v-50.552a5.525,5.525,0,0,0-5.548-5.548h-10.11a5.525,5.525,0,0,0-5.548,5.548V3119.9H585.962v-31.811a5.525,5.525,0,0,0-5.548-5.548H570.3a5.525,5.525,0,0,0-5.548,5.548V3119.9H553.288v-14.426a5.525,5.525,0,0,0-5.548-5.548H537.63a5.525,5.525,0,0,0-5.548,5.548V3119.9H527.4a2.1,2.1,0,1,0,0,4.192h95.8a2.078,2.078,0,0,0,2.1-2.1,2.253,2.253,0,0,0-2.1-2.1Zm-73.978,0H536.273v-14.426a1.5,1.5,0,0,1,1.48-1.479h10.11a1.4,1.4,0,0,1,1.356,1.479Zm32.673,0H568.947v-31.811a1.5,1.5,0,0,1,1.48-1.479h10.11a1.4,1.4,0,0,1,1.356,1.479Zm32.55,0H601.5v-50.552a1.4,1.4,0,0,1,1.48-1.356h10.11a1.368,1.368,0,0,1,1.356,1.356Zm0,0" transform="translate(-525.3 -3063.8)" fill="#f15a24"/>
        </g>
        <g id="Grupo_398" data-name="Grupo 398" transform="translate(12.669)">
          <path id="Trazado_236" data-name="Trazado 236" d="M611.31,3043.52a2.043,2.043,0,0,0-.616-1.6,2.345,2.345,0,0,0-1.6-.616H596.514a2.078,2.078,0,0,0-2.1,2.1,2.007,2.007,0,0,0,2.1,2.1h7.644l-20.344,20.344-7.644-7.644a2.041,2.041,0,0,0-1.48-.617,2.274,2.274,0,0,0-1.48.617l-36.989,36.989a2.014,2.014,0,0,0,0,2.959,2.084,2.084,0,0,0,2.959,0l35.633-35.633,7.644,7.645a2.015,2.015,0,0,0,2.959,0l21.823-21.823v7.028a2.1,2.1,0,0,0,4.192,0l-.123-11.836Zm0,0" transform="translate(-535.575 -3041.3)" fill="#159d0b"/>
        </g>
      </g>
    </g>
  </g>
</svg>
