<svg xmlns="http://www.w3.org/2000/svg" width="93.459" height="93.434" viewBox="0 0 93.459 93.434">
  <g id="Grupo_702" data-name="Grupo 702" transform="translate(-9686.972 -2623.772)">
    <g id="free-time" transform="translate(9688 2624.773)">
      <g id="Grupo_678" data-name="Grupo 678" transform="translate(2.228 1.404)">
        <path id="Trazado_548" data-name="Trazado 548" d="M327.754,80.5c.613-.024,1.236-.036,1.851-.036a46.845,46.845,0,0,1,12.583,1.713l.646-2.318a49.262,49.262,0,0,0-13.229-1.8c-.647,0-1.3.013-1.945.038a1.2,1.2,0,1,0,.093,2.4Z" transform="translate(-268.884 -69.449)" fill="#f8622d" stroke="#f8622d" stroke-width="1"/>
        <path id="Trazado_549" data-name="Trazado 549" d="M67.55,59.292h-.12A46.767,46.767,0,0,1,93.473,46.583a1.2,1.2,0,1,0-.329-2.384A49.172,49.172,0,0,0,66.523,56.838a56.977,56.977,0,0,1,8.469-20.375l-2-1.339a59.38,59.38,0,0,0-9.16,23.031,59.026,59.026,0,0,0-14.606-8.575l-1.366,1.934a1.208,1.208,0,0,0,.408.274,56.6,56.6,0,0,1,13.481,7.789,58.491,58.491,0,0,0-22.529,6.91L39.2,66.5l1.107,2.137c.02-.011.04-.02.059-.031h0A56.107,56.107,0,0,1,61.7,62a49.165,49.165,0,0,0-4.467,55.239l.042.074,2.079-1.213-.037-.065a46.763,46.763,0,0,1,3.824-51.984C63.049,65.385,63,66.726,63,68.066a60.018,60.018,0,0,0,.535,8,1.2,1.2,0,1,0,2.385-.322,57.562,57.562,0,0,1-.163-14.011c.607-.018,1.206-.029,1.79-.029A56.919,56.919,0,0,1,121.275,99.88l2.273-.791a59.327,59.327,0,0,0-56-39.8Z" transform="translate(-39.204 -35.124)" fill="#f8622d" stroke="#f8622d" stroke-width="1"/>
        <path id="Trazado_550" data-name="Trazado 550" d="M165.27,254.457a1.2,1.2,0,0,0-.924,1.429,59.481,59.481,0,0,0,33.637,41.573l.988-2.194A57.068,57.068,0,0,1,166.7,255.381,1.2,1.2,0,0,0,165.27,254.457Z" transform="translate(-139.227 -210.447)" fill="#f8622d" stroke="#f8622d" stroke-width="1"/>
        <path id="Trazado_551" data-name="Trazado 551" d="M233.458,197.786a1.2,1.2,0,1,0,.639-2.32c-.89-.245-1.77-.464-2.617-.649a1.2,1.2,0,0,0-.515,2.351C231.77,197.344,232.609,197.552,233.458,197.786Z" transform="translate(-191.75 -162.767)" fill="#f8622d" stroke="#f8622d" stroke-width="1"/>
        <path id="Trazado_552" data-name="Trazado 552" d="M283.968,221.784a1.2,1.2,0,1,0,1.87-1.515,52.76,52.76,0,0,0-23.184-16.449,1.2,1.2,0,1,0-.813,2.265,50.356,50.356,0,0,1,22.127,15.7Z" transform="translate(-216.553 -169.93)" fill="#f8622d" stroke="#f8622d" stroke-width="1"/>
      </g>
      <path id="Trazado_553" data-name="Trazado 553" d="M41.489,106.138A45.7,45.7,0,1,0,106.117,41.51c-.432-.432-.887-.869-1.351-1.3a45.691,45.691,0,0,0-63.277,1.3c-.895.894-1.759,1.833-2.567,2.788a45.137,45.137,0,0,0-9.167,17.329,45.684,45.684,0,0,0,11.734,44.511ZM32.075,62.267a42.749,42.749,0,0,1,8.683-16.413c.767-.906,1.586-1.795,2.434-2.642a43.307,43.307,0,0,1,59.942-1.23c.44.407.871.82,1.281,1.23a43.292,43.292,0,1,1-72.34,19.055Z" transform="translate(-28.096 -28.122)" fill="#159d0b" stroke="#159d0b" stroke-width="2"/>
    </g>
  </g>
</svg>
