<svg id="Grupo_692" data-name="Grupo 692" xmlns="http://www.w3.org/2000/svg" width="125.156" height="109.136" viewBox="0 0 125.156 109.136">
  <g id="car" transform="translate(0 0)">
    <path id="Trazado_523" data-name="Trazado 523" d="M87.56,67.9c.018-.032.034-.065.051-.1,1.549-3.255,4.961-8.722,10.408-8.763l48.41-.357h.061a7.538,7.538,0,0,1,3.621.91c-2.816-4.151-5.508-5.977-8.688-5.977h-.061l-48.41.357c-5.447.04-8.859,5.507-10.408,8.763-.016.033-.033.066-.051.1L74.193,77.8l7.91-.058Z" transform="translate(-57.676 -50.321)" fill="#c2ffbe"/>
    <path id="Trazado_524" data-name="Trazado 524" d="M45.013,196.178a3.219,3.219,0,0,1-.925-2.245,1.885,1.885,0,0,0-.016-.23l-3.006-23.152c.011-3.8,1.991-6.444,4.394-7.494l-2.8.021h-.013a1.768,1.768,0,0,1-.289-.025c-3.187.213-6.349,3.077-6.364,7.731L39.006,193.2a1.771,1.771,0,0,1,.016.223,3.1,3.1,0,0,0,3.089,3.067h.023l3.207-.024A3.216,3.216,0,0,1,45.013,196.178Z" transform="translate(-29.159 -132.032)" fill="#c2ffbe"/>
    <path id="Trazado_525" data-name="Trazado 525" d="M284.36,119.656h.013a1.774,1.774,0,0,0,1.76-1.786,8.172,8.172,0,0,1,8.1-8.223h.062a8.162,8.162,0,0,1,8.161,8.1,1.773,1.773,0,0,0,1.773,1.762h.013a1.773,1.773,0,0,0,1.76-1.787,11.71,11.71,0,1,0-23.42.173,1.773,1.773,0,0,0,1.773,1.761Z" transform="translate(-213.272 -89.508)" fill="#f8622d"/>
    <path id="Trazado_526" data-name="Trazado 526" d="M61.936,206.641a6.741,6.741,0,0,0,6.739,6.692h.051a6.749,6.749,0,0,0,6.692-6.79h0a6.741,6.741,0,0,0-13.482.1Zm6.741-3.243a3.211,3.211,0,1,1-.024,0Z" transform="translate(-48.524 -159.508)" fill="#f8622d"/>
    <path id="Trazado_527" data-name="Trazado 527" d="M12.531,79.215a1.817,1.817,0,0,0,.016.222l2.964,22.105a6.576,6.576,0,0,0,5.476,6.306l.052,7.057a4.171,4.171,0,0,0,4.169,4.14h.032l7.277-.054a4.171,4.171,0,0,0,4.139-4.2l-.051-6.961,21.67-.165-.027-3.547-36.15.275h-.023a3.023,3.023,0,0,1-3.019-3,1.817,1.817,0,0,0-.016-.223L16.079,79.081c.015-4.57,3.116-7.382,6.245-7.593a1.792,1.792,0,0,0,.286.025h.013l90.422-.666.041,0h.013a6.3,6.3,0,0,1,4.794,2.2,8.275,8.275,0,0,1,2,5.264l-.636,5.108a1.773,1.773,0,1,0,3.52.439l.652-5.228a1.78,1.78,0,0,0,.013-.233,11.717,11.717,0,0,0-2.893-7.7,10.5,10.5,0,0,0-1.538-1.424l6.042-.047a1.773,1.773,0,0,0,1.757-1.872,17.792,17.792,0,0,0-.887-4.3c-1.044-3.058-4.276-5.007-8.238-4.987-2.363.017-6.642.034-8.614.041L105.151,51c-2.747-4.839-6.738-10.386-13.3-10.386h-.086l-47.714.351c-5.388.04-10.141,3.8-13.388,10.594l-3.985,7.185c-1.967.01-6.3.034-8.69.051-3.96.029-7.165,2.034-8.164,5.107A17.768,17.768,0,0,0,9,68.22a1.774,1.774,0,0,0,1.772,1.848h.015l5.928-.051A11.5,11.5,0,0,0,12.531,79.215Zm20.527,28.642.051,6.96a.623.623,0,0,1-.618.628l-7.276.054a.648.648,0,0,1-.442-.179.62.62,0,0,1-.186-.439l-.051-6.958Zm84.654-46.246c2.366-.025,4.321,1.022,4.856,2.586a13.923,13.923,0,0,1,.417,1.5l-9.68.076-2.278-4.126C113.164,61.636,115.961,61.624,117.712,61.611ZM33.793,53.234c.018-.032.035-.065.051-.1,1.524-3.2,4.881-8.583,10.236-8.622l47.714-.352h.06c3.741,0,6.8,2.574,10.2,8.572l8.054,14.589-84.477.622ZM12.8,66.5A13.942,13.942,0,0,1,13.2,65c.511-1.572,2.447-2.64,4.817-2.657,1.755-.013,4.549-.029,6.691-.041L22.423,66.42Z" transform="translate(-9 -40.615)" fill="#159d0b"/>
    <path id="Trazado_528" data-name="Trazado 528" d="M186.625,202.044h-.014a1.773,1.773,0,0,0-1.761,1.786l.034,4.578a1.773,1.773,0,0,0,1.773,1.76h.013a1.774,1.774,0,0,0,1.76-1.786L188.4,203.8A1.773,1.773,0,0,0,186.625,202.044Z" transform="translate(-140.298 -161.145)" fill="#f8622d"/>
    <path id="Trazado_529" data-name="Trazado 529" d="M153.162,202.291h-.013a1.773,1.773,0,0,0-1.76,1.786l.034,4.578a1.774,1.774,0,0,0,1.774,1.76h.013a1.774,1.774,0,0,0,1.76-1.787l-.034-4.578A1.774,1.774,0,0,0,153.162,202.291Z" transform="translate(-115.313 -161.33)" fill="#f8622d"/>
    <path id="Trazado_530" data-name="Trazado 530" d="M220.127,209.922h.013a1.773,1.773,0,0,0,1.76-1.787l-.034-4.578a1.773,1.773,0,0,0-1.773-1.761h-.013a1.773,1.773,0,0,0-1.76,1.787l.034,4.578A1.773,1.773,0,0,0,220.127,209.922Z" transform="translate(-165.288 -160.961)" fill="#f8622d"/>
    <path id="Trazado_531" data-name="Trazado 531" d="M312.188,301.269a1.768,1.768,0,0,0,1.239-.5l12.23-11.941a1.774,1.774,0,0,0-2.478-2.538l-10.991,10.731-5.548-5.418a1.773,1.773,0,0,0-2.478,2.538l6.789,6.628A1.768,1.768,0,0,0,312.188,301.269Z" transform="translate(-228.982 -223.667)" fill="#f8622d"/>
    <path id="Trazado_532" data-name="Trazado 532" d="M270.17,193.326l-6.889-.664a31.348,31.348,0,0,0-3.465-8.232l4.383-5.291a1.773,1.773,0,0,0-.1-2.377L256.437,169a1.773,1.773,0,0,0-2.393-.12l-5.3,4.391a32.009,32.009,0,0,0-8.221-3.473l-.664-6.89a1.774,1.774,0,0,0-1.765-1.6h-11a1.773,1.773,0,0,0-1.765,1.6l-.664,6.889a31.355,31.355,0,0,0-8.233,3.464l-5.291-4.382a1.773,1.773,0,0,0-2.385.112L201,176.752a1.774,1.774,0,0,0-.112,2.385l4.391,5.3a32.017,32.017,0,0,0-3.473,8.221l-6.889.664a1.773,1.773,0,0,0-1.6,1.765v11a1.774,1.774,0,0,0,1.6,1.765l6.889.664a31.358,31.358,0,0,0,3.464,8.232l-4.382,5.291a1.773,1.773,0,0,0,.112,2.385l7.756,7.756a1.773,1.773,0,0,0,2.385.112l5.3-4.391a32.007,32.007,0,0,0,8.221,3.473l.664,6.89a1.773,1.773,0,0,0,1.765,1.6h11a1.773,1.773,0,0,0,1.765-1.6l.664-6.889a31.357,31.357,0,0,0,8.232-3.465l5.291,4.383a1.773,1.773,0,0,0,2.385-.112l7.757-7.756a1.774,1.774,0,0,0,.112-2.385l-4.391-5.3a32.011,32.011,0,0,0,3.473-8.222l6.793-.663a1.773,1.773,0,0,0,1.6-1.765v-11a1.773,1.773,0,0,0-1.6-1.766Zm-1.944,11.153-6.45.629a1.774,1.774,0,0,0-1.561,1.39,28.5,28.5,0,0,1-3.978,9.428,1.774,1.774,0,0,0,.124,2.093l4.174,5.04-5.472,5.472-5.04-4.174a1.774,1.774,0,0,0-2.115-.11,27.642,27.642,0,0,1-9.406,3.964,1.773,1.773,0,0,0-1.39,1.563l-.631,6.546H228.7l-.631-6.546a1.774,1.774,0,0,0-1.391-1.563,28.506,28.506,0,0,1-9.428-3.978,1.774,1.774,0,0,0-2.092.125l-5.04,4.174-5.472-5.472,4.174-5.04a1.773,1.773,0,0,0,.11-2.115,27.648,27.648,0,0,1-3.964-9.407,1.773,1.773,0,0,0-1.563-1.39l-6.546-.631V196.7l6.546-.631a1.774,1.774,0,0,0,1.563-1.391,28.5,28.5,0,0,1,3.978-9.428,1.773,1.773,0,0,0-.124-2.093l-4.174-5.04,5.472-5.472,5.04,4.174a1.773,1.773,0,0,0,2.115.11,27.651,27.651,0,0,1,9.406-3.964,1.773,1.773,0,0,0,1.391-1.563l.631-6.546h7.775l.631,6.546a1.773,1.773,0,0,0,1.39,1.563,28.5,28.5,0,0,1,9.428,3.978,1.774,1.774,0,0,0,2.093-.124l5.032-4.167,5.39,5.459-4.18,5.048a1.774,1.774,0,0,0-.11,2.115,27.65,27.65,0,0,1,3.964,9.406,1.773,1.773,0,0,0,1.563,1.391l6.547.631Z" transform="translate(-146.616 -130.731)" fill="#159d0b"/>
    <path id="Trazado_533" data-name="Trazado 533" d="M280.027,224.842a23.183,23.183,0,1,0,23.183,23.183A23.184,23.184,0,0,0,280.027,224.842Zm0,42.82a19.637,19.637,0,1,1,19.636-19.636,19.637,19.637,0,0,1-19.636,19.636Z" transform="translate(-194.051 -178.167)" fill="#159d0b"/>
  </g>
</svg>
