<svg xmlns="http://www.w3.org/2000/svg" width="91.977" height="91.627" viewBox="0 0 91.977 91.627">
  <g id="Grupo_359" data-name="Grupo 359" transform="translate(-526.4 -3225.7)">
    <g id="Grupo_358" data-name="Grupo 358" transform="translate(526.4 3225.7)">
      <g id="Grupo_345" data-name="Grupo 345" transform="translate(0.234)">
        <path id="Trazado_189" data-name="Trazado 189" d="M614.014,3225.7H530.93a4.4,4.4,0,0,0-4.33,4.33v13.106a4.4,4.4,0,0,0,4.33,4.33h83.084a4.4,4.4,0,0,0,4.33-4.33V3230.03a4.32,4.32,0,0,0-4.33-4.33Zm1.4,17.319a1.352,1.352,0,0,1-1.4,1.4H530.93a1.352,1.352,0,0,1-1.4-1.4v-13.106a1.352,1.352,0,0,1,1.4-1.4h83.084a1.352,1.352,0,0,1,1.4,1.4Zm0,0" transform="translate(-526.6 -3225.7)" fill="#159d0b"/>
      </g>
      <g id="Grupo_346" data-name="Grupo 346" transform="translate(9.713 33.936)">
        <path id="Trazado_190" data-name="Trazado 190" d="M580.923,3254.7h-44.7a1.521,1.521,0,0,0,0,3.043h44.7a1.549,1.549,0,0,0,1.521-1.521,1.736,1.736,0,0,0-1.521-1.521Zm0,0" transform="translate(-534.7 -3254.7)" fill="#f15a24"/>
      </g>
      <g id="Grupo_347" data-name="Grupo 347" transform="translate(76.648 31.01)">
        <path id="Trazado_191" data-name="Trazado 191" d="M596.347,3252.2a4.447,4.447,0,1,0,4.447,4.447,4.445,4.445,0,0,0-4.447-4.447Zm0,5.851a1.521,1.521,0,1,1,1.521-1.521,1.475,1.475,0,0,1-1.521,1.521Zm0,0" transform="translate(-591.9 -3252.2)" fill="#f15a24"/>
      </g>
      <g id="Grupo_348" data-name="Grupo 348" transform="translate(63.776 31.01)">
        <path id="Trazado_192" data-name="Trazado 192" d="M585.347,3252.2a4.447,4.447,0,1,0,4.447,4.447,4.6,4.6,0,0,0-4.447-4.447Zm0,5.851a1.521,1.521,0,1,1,1.521-1.521,1.549,1.549,0,0,1-1.521,1.521Zm0,0" transform="translate(-580.9 -3252.2)" fill="#f15a24"/>
      </g>
      <g id="Grupo_349" data-name="Grupo 349" transform="translate(0.234 24.574)">
        <path id="Trazado_193" data-name="Trazado 193" d="M614.014,3246.7H530.93a4.4,4.4,0,0,0-4.33,4.33v13.106a4.4,4.4,0,0,0,4.33,4.33h83.084a4.4,4.4,0,0,0,4.33-4.33V3251.03a4.4,4.4,0,0,0-4.33-4.33Zm1.4,17.319a1.352,1.352,0,0,1-1.4,1.4H530.93a1.352,1.352,0,0,1-1.4-1.4v-13.106a1.352,1.352,0,0,1,1.4-1.4h83.084a1.352,1.352,0,0,1,1.4,1.4Zm0,0" transform="translate(-526.6 -3246.7)" fill="#159d0b"/>
      </g>
      <g id="Grupo_350" data-name="Grupo 350" transform="translate(9.713 58.627)">
        <path id="Trazado_194" data-name="Trazado 194" d="M580.923,3275.8h-44.7a1.521,1.521,0,1,0,0,3.042h44.7a1.549,1.549,0,0,0,1.521-1.521,1.628,1.628,0,0,0-1.521-1.521Zm0,0" transform="translate(-534.7 -3275.8)" fill="#f15a24"/>
      </g>
      <g id="Grupo_351" data-name="Grupo 351" transform="translate(76.648 55.701)">
        <path id="Trazado_195" data-name="Trazado 195" d="M596.347,3273.3a4.447,4.447,0,1,0,4.447,4.447,4.372,4.372,0,0,0-4.447-4.447Zm0,5.851a1.521,1.521,0,1,1,1.521-1.521,1.549,1.549,0,0,1-1.521,1.521Zm0,0" transform="translate(-591.9 -3273.3)" fill="#f15a24"/>
      </g>
      <g id="Grupo_352" data-name="Grupo 352" transform="translate(63.776 55.701)">
        <path id="Trazado_196" data-name="Trazado 196" d="M585.347,3273.3a4.447,4.447,0,1,0,4.447,4.447,4.519,4.519,0,0,0-4.447-4.447Zm0,5.851a1.521,1.521,0,1,1,1.521-1.521,1.635,1.635,0,0,1-1.521,1.521Zm0,0" transform="translate(-580.9 -3273.3)" fill="#f15a24"/>
      </g>
      <g id="Grupo_353" data-name="Grupo 353" transform="translate(0.234 49.148)">
        <path id="Trazado_197" data-name="Trazado 197" d="M614.014,3267.7H530.93a4.4,4.4,0,0,0-4.33,4.33v13.106a4.4,4.4,0,0,0,4.33,4.33h83.084a4.4,4.4,0,0,0,4.33-4.33V3272.03a4.4,4.4,0,0,0-4.33-4.33Zm1.4,17.436a1.352,1.352,0,0,1-1.4,1.4H530.93a1.352,1.352,0,0,1-1.4-1.4V3272.03a1.352,1.352,0,0,1,1.4-1.4h83.084a1.352,1.352,0,0,1,1.4,1.4Zm0,0" transform="translate(-526.6 -3267.7)" fill="#159d0b"/>
      </g>
      <g id="Grupo_354" data-name="Grupo 354" transform="translate(0 73.371)">
        <path id="Trazado_198" data-name="Trazado 198" d="M616.856,3298.815a1.521,1.521,0,0,0,0-3.043H583.74a1.5,1.5,0,0,0-1.4-1.287h-3.862v-4.447a1.521,1.521,0,0,0-3.042,0v5.851a1.549,1.549,0,0,0,1.521,1.521h3.862v6.085H564.08v-6.085H571.1a1.521,1.521,0,0,0,0-3.042h-1.755v-4.447a1.521,1.521,0,1,0-3.042,0v4.447h-3.862a1.5,1.5,0,0,0-1.4,1.287H527.921a1.521,1.521,0,0,0,0,3.042h33.117v2.926H527.921a1.521,1.521,0,0,0,0,3.043h33.117v.468a1.549,1.549,0,0,0,1.521,1.521h19.659a1.549,1.549,0,0,0,1.521-1.521v-.468h33.117a1.521,1.521,0,0,0,0-3.043H583.74V3298.7h33.117Zm0,0" transform="translate(-526.4 -3288.4)" fill="#159d0b"/>
      </g>
      <g id="Grupo_355" data-name="Grupo 355" transform="translate(9.713 9.362)">
        <path id="Trazado_199" data-name="Trazado 199" d="M580.923,3233.7h-44.7a1.521,1.521,0,1,0,0,3.042h44.7a1.549,1.549,0,0,0,1.521-1.521,1.628,1.628,0,0,0-1.521-1.521Zm0,0" transform="translate(-534.7 -3233.7)" fill="#f15a24"/>
      </g>
      <g id="Grupo_356" data-name="Grupo 356" transform="translate(76.648 6.436)">
        <path id="Trazado_200" data-name="Trazado 200" d="M596.347,3231.2a4.447,4.447,0,1,0,4.447,4.447,4.445,4.445,0,0,0-4.447-4.447Zm0,5.851a1.521,1.521,0,1,1,1.521-1.521,1.549,1.549,0,0,1-1.521,1.521Zm0,0" transform="translate(-591.9 -3231.2)" fill="#f15a24"/>
      </g>
      <g id="Grupo_357" data-name="Grupo 357" transform="translate(63.776 6.436)">
        <path id="Trazado_201" data-name="Trazado 201" d="M585.347,3231.2a4.447,4.447,0,1,0,4.447,4.447,4.6,4.6,0,0,0-4.447-4.447Zm0,5.851a1.521,1.521,0,1,1,1.521-1.521,1.549,1.549,0,0,1-1.521,1.521Zm0,0" transform="translate(-580.9 -3231.2)" fill="#f15a24"/>
      </g>
    </g>
  </g>
</svg>
