<svg xmlns="http://www.w3.org/2000/svg" width="75.071" height="82.999" viewBox="0 0 75.071 82.999">
  <g id="Grupo_696" data-name="Grupo 696" transform="translate(0.5 0.5)">
    <g id="teeth" transform="translate(0 0)">
      <path id="Trazado_605" data-name="Trazado 605" d="M77.066,107.469c-5.177-5.276-6.228-24.019-6.034-34.262.064-3.393-1.981-8-4.146-12.884-1.993-4.493-4.054-9.138-4.054-12.183a18.236,18.236,0,0,1,3-10.522c-6.09,2.038-9.917,7.844-9.917,15.712,0,3.045,2.061,7.69,4.054,12.183C62.132,70.393,64.177,75,64.113,78.4c-.195,10.243.857,28.986,6.034,34.262a3.853,3.853,0,0,0,2.809,1.316c.124,0,1.277-.142,3.514-5.042.208-.457.418-.937.628-1.434Z" transform="translate(-53.491 -34.397)" fill="#c2ffbe"/>
      <path id="Trazado_606" data-name="Trazado 606" d="M286.866,277.577c-1.284-2.864-2.629-6.594-4.052-10.544-4.329-12.016-7.227-19.313-10.95-19.313-1.811,0-3.349,2.035-5.049,5.833,2.9,2.024,5.5,8.733,9.079,18.67,1.423,3.95,2.768,7.681,4.051,10.544,1.814,4.045,2.7,4.449,2.828,4.487,2.136-.014,3.962-2.46,5.361-7.134C287.777,279.5,287.356,278.669,286.866,277.577Z" transform="translate(-227.908 -208.153)" fill="#c2ffbe"/>
      <path id="Trazado_607" data-name="Trazado 607" d="M71.847,81.959C73.3,77.777,74.673,73.828,76.01,70.8c1.931-4.37,2.878-4.61,2.943-4.622.232,0,1.451.282,3.767,5.184,1.63,3.45,3.292,8.065,4.9,12.528,3.938,10.929,6.133,16.632,9.141,16.632,4.189,0,7.09-4.488,8.867-13.721A160.381,160.381,0,0,0,107.7,65.628c.052-1.029.1-1.955.144-2.752.144-2.464,1.944-6.684,3.685-10.765,2.189-5.13,4.452-10.435,4.452-14.18,0-5.325-1.531-9.932-4.427-13.325-3.122-3.657-7.614-5.59-12.99-5.59-2.7,0-6.332,1.145-10.171,2.356-3.5,1.1-7.112,2.245-9.445,2.245h0c-2.332,0-5.946-1.145-9.441-2.251C65.666,20.149,62.038,19,59.331,19a16.58,16.58,0,0,0-12.646,5.313c-3.122,3.43-4.772,8.139-4.772,13.619,0,3.558,2.167,8.442,4.262,13.165,1.963,4.424,3.992,9,3.938,11.855a141.1,141.1,0,0,0,.9,18.463c1.088,8.807,3.048,14.709,5.827,17.542A6.231,6.231,0,0,0,61.377,101C65.043,101,67.744,93.764,71.847,81.959ZM52.534,63c.064-3.393-1.981-8-4.146-12.884-1.993-4.493-4.054-9.138-4.054-12.183,0-9.875,6.026-16.51,15-16.51,2.333,0,5.949,1.145,9.447,2.252,3.839,1.215,7.465,2.363,10.171,2.364h0c2.706,0,6.333-1.145,10.174-2.357,3.5-1.1,7.11-2.244,9.442-2.244a14.12,14.12,0,0,1,11.149,4.74,18.027,18.027,0,0,1,3.847,11.752c0,3.25-2.164,8.323-4.257,13.23-1.906,4.469-3.707,8.69-3.875,11.575-.047.8-.093,1.735-.145,2.772a158.62,158.62,0,0,1-2.036,20.838c-1.477,7.675-3.715,11.74-6.471,11.757-.13-.039-1.014-.443-2.828-4.487-1.284-2.864-2.629-6.594-4.052-10.544-4.33-12.015-7.228-19.312-10.951-19.312-3.185,0-5.526,6.29-9.39,17.407-1.535,4.419-3.123,8.987-4.668,12.371-2.236,4.9-3.39,5.042-3.514,5.042a3.854,3.854,0,0,1-2.809-1.316C53.391,91.985,52.34,73.242,52.534,63Z" transform="translate(-41.913 -19)" fill="#159d0b" stroke="#159d0b" stroke-width="1"/>
    </g>
  </g>
</svg>
