<svg xmlns="http://www.w3.org/2000/svg" width="85.203" height="85.434" viewBox="0 0 85.203 85.434">
  <g id="Grupo_412" data-name="Grupo 412" transform="translate(-1042.3 -3044.9)">
    <g id="Grupo_408" data-name="Grupo 408" transform="translate(1058.988 3091.75)">
      <rect id="Rect치ngulo_75" data-name="Rect치ngulo 75" width="2.756" height="2.756" fill="#f15a24"/>
    </g>
    <g id="Grupo_409" data-name="Grupo 409" transform="translate(1058.988 3097.262)">
      <rect id="Rect치ngulo_76" data-name="Rect치ngulo 76" width="2.756" height="5.512" fill="#f15a24"/>
    </g>
    <g id="Grupo_410" data-name="Grupo 410" transform="translate(1087.2 3096.931)">
      <path id="Trazado_237" data-name="Trazado 237" d="M1079.022,3090.306V3088.1h-2.206v2.206a5.516,5.516,0,1,0,0,11.032h2.206a3.31,3.31,0,0,1,0,6.619h-2.206a3.3,3.3,0,0,1-3.309-3.31v-1.1H1071.3v1.1a5.532,5.532,0,0,0,5.516,5.516v2.207h2.206v-2.207a5.516,5.516,0,1,0,0-11.031h-2.206a3.31,3.31,0,0,1,0-6.619h2.206a3.3,3.3,0,0,1,3.309,3.31v1.1h2.206v-1.1a5.532,5.532,0,0,0-5.516-5.516Zm0,0" transform="translate(-1071.3 -3088.1)" fill="#159d0b" stroke="#159d0b" stroke-width="1"/>
    </g>
    <g id="Grupo_491" data-name="Grupo 491" transform="translate(8)">
      <path id="Trazado_620" data-name="Trazado 620" d="M1045.8,3053a44.441,44.441,0,0,0,.546,16.981c1.529,6.206,5.3,12.748,13.654,15.619,19.2,6.6,0,1.6,0,1.6s-15.4-5.8-16.4-9.2-6-7.2-5.4-10.4,0-14.6,0-14.6Z" fill="#ffdfd4"/>
      <path id="Trazado_624" data-name="Trazado 624" d="M1045.8,3091.461a50.623,50.623,0,0,1,.546-18.135c1.529-6.627,5.3-13.614,13.654-16.68,19.2-7.049,0-1.709,0-1.709s-15.4,6.194-16.4,9.825-6,7.689-5.4,11.106,0,15.592,0,15.592Z" transform="translate(-1 33.539)" fill="#ffdfd4"/>
      <path id="Trazado_625" data-name="Trazado 625" d="M1048.93,3088.407s-5.783-9.389-4.014-17.539c1.262-5.826,4.377-11.967,11.272-14.662,15.851-6.2,0-3.38,0-3.38s-12.713,7.323-13.539,10.515-4.953,6.759-4.458,9.763,5.332,11.815,5.332,11.815Z" transform="translate(26 37.191)" fill="#ffdfd4"/>
      <g id="Grupo_411" data-name="Grupo 411" transform="translate(1034.3 3044.9)">
        <path id="Trazado_238" data-name="Trazado 238" d="M1113.991,3119.195v-5.512h2.756v-11.023h-12.172a20.629,20.629,0,0,0-31.693-9.761l-9.646-5.4,10.794-6.086a19.25,19.25,0,0,0,9.76-16.765v-11.483h2.756V3044.9H1034.3v8.268h2.756v11.6a19.35,19.35,0,0,0,9.76,16.765l10.794,6.086-10.794,6.086a19.114,19.114,0,0,0-9.76,16.765v11.6h-1.378a1.326,1.326,0,0,0-1.378,1.377v5.512a1.327,1.327,0,0,0,1.378,1.378H1119.5V3119.31h-5.512Zm-5.512-13.665v2.756h2.756v-2.756h2.756v5.512h-8.268c0-.459.115-.918.115-1.378a16.905,16.905,0,0,0-.459-4.134Zm-3.215,8.153h.459v2.756h2.756v-2.756h2.756v5.512h-7.923a18.563,18.563,0,0,0,1.952-5.512Zm-68.208-65.912h46.735v2.756h-46.735Zm11.139,31.349a16.692,16.692,0,0,1-7.119-8.038h34.449v-2.756h-35.252a18.9,18.9,0,0,1-.459-3.56v-11.483h41.224v11.483a12.108,12.108,0,0,1-.459,3.56h-2.3v2.756h1.493a16.693,16.693,0,0,1-7.119,8.038l-12.172,6.89Zm-8.5,31.349a16.415,16.415,0,0,1,8.383-14.354l12.172-6.89,10.22,5.742a20.14,20.14,0,0,0-5.741,11.023,21.722,21.722,0,0,0-15.387,2.412l-9.646,5.626Zm0,6.774,11.024-6.43a18.974,18.974,0,0,1,13.665-2.067v.919a21.152,21.152,0,0,0,4.134,12.4H1039.7Zm-2.641,8.842h0a1.327,1.327,0,0,1,1.378-1.378h32.726a27.894,27.894,0,0,0,3.674,2.756h-36.516A1.3,1.3,0,0,1,1037.056,3126.084Zm30.2-16.536a17.855,17.855,0,1,1,17.8,17.8,17.74,17.74,0,0,1-17.8-17.8Zm49.491,17.914h-21.358a19.98,19.98,0,0,0,4.823-3.9v1.148h2.756v-2.756h2.756v2.756h2.756v-2.756h2.756v2.756h2.756v-2.756h2.756v5.512Zm0,0" transform="translate(-1034.3 -3044.9)" fill="#f15a24"/>
      </g>
    </g>
  </g>
</svg>
