<svg xmlns="http://www.w3.org/2000/svg" width="92.777" height="89.7" viewBox="0 0 92.777 89.7">
  <g id="Grupo_484" data-name="Grupo 484" transform="translate(-1029.1 -2846.5)">
    <g id="Grupo_383" data-name="Grupo 383" transform="translate(1029.6 2847)">
      <g id="Grupo_360" data-name="Grupo 360" transform="translate(9.123 9.232)">
        <path id="Trazado_202" data-name="Trazado 202" d="M1044.824,2855.4a6.925,6.925,0,1,0,6.925,6.925,6.9,6.9,0,0,0-6.925-6.925Zm0,10.662a3.847,3.847,0,1,1,3.847-3.847,3.895,3.895,0,0,1-3.847,3.847Zm0,0" transform="translate(-1037.9 -2855.4)" fill="#f15a24" stroke="#f15a24" stroke-width="1"/>
      </g>
      <g id="Grupo_361" data-name="Grupo 361" transform="translate(74.961 12.2)">
        <path id="Trazado_203" data-name="Trazado 203" d="M1100.878,2859.639a1.539,1.539,0,1,1-1.539-1.539,1.572,1.572,0,0,1,1.539,1.539Zm0,0" transform="translate(-1097.8 -2858.1)" fill="#f15a24" stroke="#f15a24" stroke-width="1"/>
      </g>
      <g id="Grupo_362" data-name="Grupo 362" transform="translate(68.806 12.2)">
        <path id="Trazado_204" data-name="Trazado 204" d="M1095.278,2859.639a1.539,1.539,0,1,1-1.539-1.539,1.572,1.572,0,0,1,1.539,1.539Zm0,0" transform="translate(-1092.2 -2858.1)" fill="#f15a24" stroke="#f15a24" stroke-width="1"/>
      </g>
      <g id="Grupo_363" data-name="Grupo 363" transform="translate(78.038 16.816)">
        <path id="Trazado_205" data-name="Trazado 205" d="M1103.678,2863.839a1.539,1.539,0,1,1-1.539-1.539,1.572,1.572,0,0,1,1.539,1.539Zm0,0" transform="translate(-1100.6 -2862.3)" fill="#f15a24" stroke="#f15a24" stroke-width="1"/>
      </g>
      <g id="Grupo_364" data-name="Grupo 364" transform="translate(71.883 16.816)">
        <path id="Trazado_206" data-name="Trazado 206" d="M1098.078,2863.839a1.539,1.539,0,1,1-1.539-1.539,1.5,1.5,0,0,1,1.539,1.539Zm0,0" transform="translate(-1095 -2862.3)" fill="#f15a24" stroke="#f15a24" stroke-width="1"/>
      </g>
      <g id="Grupo_365" data-name="Grupo 365" transform="translate(62.65 12.2)">
        <path id="Trazado_207" data-name="Trazado 207" d="M1089.678,2859.639a1.539,1.539,0,1,1-1.539-1.539,1.572,1.572,0,0,1,1.539,1.539Zm0,0" transform="translate(-1086.6 -2858.1)" fill="#f15a24" stroke="#f15a24" stroke-width="1"/>
      </g>
      <g id="Grupo_366" data-name="Grupo 366" transform="translate(65.728 16.816)">
        <path id="Trazado_208" data-name="Trazado 208" d="M1092.477,2863.839a1.539,1.539,0,1,1-1.539-1.539,1.5,1.5,0,0,1,1.539,1.539Zm0,0" transform="translate(-1089.4 -2862.3)" fill="#f15a24" stroke="#f15a24" stroke-width="1"/>
      </g>
      <g id="Grupo_367" data-name="Grupo 367" transform="translate(56.605 12.2)">
        <path id="Trazado_209" data-name="Trazado 209" d="M1084.177,2859.639a1.539,1.539,0,1,1-1.539-1.539,1.572,1.572,0,0,1,1.539,1.539Zm0,0" transform="translate(-1081.1 -2858.1)" fill="#f15a24" stroke="#f15a24" stroke-width="1"/>
      </g>
      <g id="Grupo_368" data-name="Grupo 368" transform="translate(59.683 16.816)">
        <path id="Trazado_210" data-name="Trazado 210" d="M1086.978,2863.839a1.539,1.539,0,1,1-1.539-1.539,1.571,1.571,0,0,1,1.539,1.539Zm0,0" transform="translate(-1083.9 -2862.3)" fill="#f15a24" stroke="#f15a24" stroke-width="1"/>
      </g>
      <g id="Grupo_369" data-name="Grupo 369" transform="translate(50.45 12.2)">
        <path id="Trazado_211" data-name="Trazado 211" d="M1078.578,2859.639a1.539,1.539,0,1,1-1.539-1.539,1.572,1.572,0,0,1,1.539,1.539Zm0,0" transform="translate(-1075.5 -2858.1)" fill="#f15a24" stroke="#f15a24" stroke-width="1"/>
      </g>
      <g id="Grupo_370" data-name="Grupo 370" transform="translate(53.528 16.816)">
        <path id="Trazado_212" data-name="Trazado 212" d="M1081.378,2863.839a1.539,1.539,0,1,1-1.539-1.539,1.5,1.5,0,0,1,1.539,1.539Zm0,0" transform="translate(-1078.3 -2862.3)" fill="#f15a24" stroke="#f15a24" stroke-width="1"/>
      </g>
      <g id="Grupo_371" data-name="Grupo 371">
        <path id="Trazado_213" data-name="Trazado 213" d="M1121.377,2872.06v-18.026a7.084,7.084,0,0,0-7.035-7.034h-77.708a7.084,7.084,0,0,0-7.035,7.034v18.026a6.869,6.869,0,0,1,0,10.991v18.026a7.084,7.084,0,0,0,7.035,7.034h37.26v12.42a7.654,7.654,0,0,0-5.935,5.935h-36.821a1.539,1.539,0,1,0,0,3.077h36.821a7.615,7.615,0,0,0,14.948,0h36.821a1.539,1.539,0,1,0,0-3.077h-36.821a7.509,7.509,0,0,0-5.935-5.935v-12.42h37.26a7.084,7.084,0,0,0,7.034-7.034v-18.026a7.087,7.087,0,0,0-2.748-5.5,6.573,6.573,0,0,0,2.858-5.5Zm-41.327,56.056a4.616,4.616,0,1,1-4.616-4.616,4.644,4.644,0,0,1,4.616,4.616Zm38.25-44.955v18.026a3.941,3.941,0,0,1-3.957,3.957h-77.709a3.941,3.941,0,0,1-3.957-3.957v-18.026a3.94,3.94,0,0,1,3.957-3.957h77.708a3.873,3.873,0,0,1,3.957,3.957Zm-81.666-7.144a3.94,3.94,0,0,1-3.957-3.957v-18.026a3.94,3.94,0,0,1,3.957-3.957h77.708a3.94,3.94,0,0,1,3.957,3.957v18.026a3.94,3.94,0,0,1-3.957,3.957Zm0,0" transform="translate(-1029.6 -2847)" fill="#159d0b" stroke="#159d0b" stroke-width="1"/>
      </g>
      <g id="Grupo_372" data-name="Grupo 372" transform="translate(9.123 38.14)">
        <path id="Trazado_214" data-name="Trazado 214" d="M1044.824,2895.549a6.925,6.925,0,1,0-6.925-6.924,7.039,7.039,0,0,0,6.925,6.924Zm0-10.661a3.847,3.847,0,1,1-3.847,3.847,3.823,3.823,0,0,1,3.847-3.847Zm0,0" transform="translate(-1037.9 -2881.7)" fill="#f15a24" stroke="#f15a24" stroke-width="1"/>
      </g>
      <g id="Grupo_373" data-name="Grupo 373" transform="translate(74.961 41.327)">
        <path id="Trazado_215" data-name="Trazado 215" d="M1100.878,2886.139a1.539,1.539,0,1,1-1.539-1.539,1.5,1.5,0,0,1,1.539,1.539Zm0,0" transform="translate(-1097.8 -2884.6)" fill="#f15a24" stroke="#f15a24" stroke-width="1"/>
      </g>
      <g id="Grupo_374" data-name="Grupo 374" transform="translate(68.806 41.327)">
        <path id="Trazado_216" data-name="Trazado 216" d="M1095.278,2886.139a1.539,1.539,0,1,1-1.539-1.539,1.5,1.5,0,0,1,1.539,1.539Zm0,0" transform="translate(-1092.2 -2884.6)" fill="#f15a24" stroke="#f15a24" stroke-width="1"/>
      </g>
      <g id="Grupo_375" data-name="Grupo 375" transform="translate(78.038 45.943)">
        <path id="Trazado_217" data-name="Trazado 217" d="M1103.678,2890.339a1.539,1.539,0,1,1-1.539-1.539,1.572,1.572,0,0,1,1.539,1.539Zm0,0" transform="translate(-1100.6 -2888.8)" fill="#f15a24" stroke="#f15a24" stroke-width="1"/>
      </g>
      <g id="Grupo_376" data-name="Grupo 376" transform="translate(71.883 45.943)">
        <path id="Trazado_218" data-name="Trazado 218" d="M1098.078,2890.339a1.539,1.539,0,1,1-1.539-1.539,1.5,1.5,0,0,1,1.539,1.539Zm0,0" transform="translate(-1095 -2888.8)" fill="#f15a24" stroke="#f15a24" stroke-width="1"/>
      </g>
      <g id="Grupo_377" data-name="Grupo 377" transform="translate(62.65 41.327)">
        <path id="Trazado_219" data-name="Trazado 219" d="M1089.678,2886.139a1.539,1.539,0,1,1-1.539-1.539,1.5,1.5,0,0,1,1.539,1.539Zm0,0" transform="translate(-1086.6 -2884.6)" fill="#f15a24" stroke="#f15a24" stroke-width="1"/>
      </g>
      <g id="Grupo_378" data-name="Grupo 378" transform="translate(65.728 45.943)">
        <path id="Trazado_220" data-name="Trazado 220" d="M1092.477,2890.339a1.539,1.539,0,1,1-1.539-1.539,1.5,1.5,0,0,1,1.539,1.539Zm0,0" transform="translate(-1089.4 -2888.8)" fill="#f15a24" stroke="#f15a24" stroke-width="1"/>
      </g>
      <g id="Grupo_379" data-name="Grupo 379" transform="translate(56.605 41.327)">
        <path id="Trazado_221" data-name="Trazado 221" d="M1084.177,2886.139a1.539,1.539,0,1,1-1.539-1.539,1.5,1.5,0,0,1,1.539,1.539Zm0,0" transform="translate(-1081.1 -2884.6)" fill="#f15a24" stroke="#f15a24" stroke-width="1"/>
      </g>
      <g id="Grupo_380" data-name="Grupo 380" transform="translate(59.683 45.943)">
        <path id="Trazado_222" data-name="Trazado 222" d="M1086.978,2890.339a1.539,1.539,0,1,1-1.539-1.539,1.572,1.572,0,0,1,1.539,1.539Zm0,0" transform="translate(-1083.9 -2888.8)" fill="#f15a24" stroke="#f15a24" stroke-width="1"/>
      </g>
      <g id="Grupo_381" data-name="Grupo 381" transform="translate(50.45 41.327)">
        <path id="Trazado_223" data-name="Trazado 223" d="M1078.578,2886.139a1.539,1.539,0,1,1-1.539-1.539,1.5,1.5,0,0,1,1.539,1.539Zm0,0" transform="translate(-1075.5 -2884.6)" fill="#f15a24" stroke="#f15a24" stroke-width="1"/>
      </g>
      <g id="Grupo_382" data-name="Grupo 382" transform="translate(53.528 45.943)">
        <path id="Trazado_224" data-name="Trazado 224" d="M1081.378,2890.339a1.539,1.539,0,1,1-1.539-1.539,1.5,1.5,0,0,1,1.539,1.539Zm0,0" transform="translate(-1078.3 -2888.8)" fill="#f15a24" stroke="#f15a24" stroke-width="1"/>
      </g>
    </g>
  </g>
</svg>
