<svg xmlns="http://www.w3.org/2000/svg" width="122" height="115.854" viewBox="0 0 122 115.854">
  <g id="Grupo_736" data-name="Grupo 736" transform="translate(-254 -2484)">
    <g id="Grupo_684" data-name="Grupo 684" transform="translate(254 2484)">
      <g id="calendar" transform="translate(0 0)">
        <path id="Trazado_505" data-name="Trazado 505" d="M40.694,219.757V160H33v59.757a8.473,8.473,0,0,0,8.463,8.464h7.694A8.473,8.473,0,0,1,40.694,219.757Z" transform="translate(-29.193 -126.693)" fill="#ffd5c7"/>
        <path id="Trazado_506" data-name="Trazado 506" d="M44.311,83.929V83H40.463A8.473,8.473,0,0,0,32,91.464v8.464h7.694V91.464A8.471,8.471,0,0,1,44.311,83.929Z" transform="translate(-28.449 -69.441)" fill="#ffd5c7"/>
        <path id="Trazado_507" data-name="Trazado 507" d="M50.977,195.521h9.746a2.824,2.824,0,0,0,2.821-2.821v-9.746a2.824,2.824,0,0,0-2.821-2.821H50.977a2.824,2.824,0,0,0-2.821,2.821V192.7A2.824,2.824,0,0,0,50.977,195.521Zm.769-11.8h8.207v8.207H51.747Z" transform="translate(-40.462 -141.663)" fill="#f8622d"/>
        <path id="Trazado_508" data-name="Trazado 508" d="M124.156,182.954V192.7a2.824,2.824,0,0,0,2.821,2.821h9.746a2.824,2.824,0,0,0,2.821-2.821v-9.746a2.824,2.824,0,0,0-2.821-2.821h-9.746A2.824,2.824,0,0,0,124.156,182.954Zm3.591.769h8.207v8.207h-8.207Z" transform="translate(-96.97 -141.663)" fill="#f8622d"/>
        <path id="Trazado_509" data-name="Trazado 509" d="M203.977,195.521h9.746a2.824,2.824,0,0,0,2.821-2.821v-9.746a2.824,2.824,0,0,0-2.821-2.821h-9.746a2.824,2.824,0,0,0-2.821,2.821V192.7A2.824,2.824,0,0,0,203.977,195.521Zm.769-11.8h8.207v8.207h-8.207Z" transform="translate(-154.222 -141.663)" fill="#f8622d"/>
        <path id="Trazado_510" data-name="Trazado 510" d="M279.977,195.521h9.746a2.824,2.824,0,0,0,2.821-2.821v-9.746a2.824,2.824,0,0,0-2.821-2.821h-9.746a2.825,2.825,0,0,0-2.821,2.821V192.7A2.824,2.824,0,0,0,279.977,195.521Zm.769-11.8h8.207v8.207h-8.207Z" transform="translate(-210.73 -141.663)" fill="#f8622d"/>
        <path id="Trazado_511" data-name="Trazado 511" d="M354.156,182.954V192.7a2.824,2.824,0,0,0,2.821,2.821h9.746a2.824,2.824,0,0,0,2.821-2.821v-9.746a2.824,2.824,0,0,0-2.821-2.821h-9.746A2.825,2.825,0,0,0,354.156,182.954Zm3.591.769h8.207v8.207h-8.207Z" transform="translate(-267.982 -141.663)" fill="#f8622d"/>
        <path id="Trazado_512" data-name="Trazado 512" d="M51.977,280.521h9.746a2.824,2.824,0,0,0,2.821-2.821v-9.746a2.824,2.824,0,0,0-2.821-2.821H51.977a2.825,2.825,0,0,0-2.821,2.821V277.7A2.824,2.824,0,0,0,51.977,280.521Zm.769-11.8h8.207v8.207H52.747Z" transform="translate(-41.205 -204.863)" fill="#f8622d"/>
        <path id="Trazado_513" data-name="Trazado 513" d="M137.723,265.133h-9.746a2.824,2.824,0,0,0-2.821,2.821V277.7a2.824,2.824,0,0,0,2.821,2.821h9.746a2.824,2.824,0,0,0,2.821-2.821v-9.746A2.824,2.824,0,0,0,137.723,265.133Zm-.769,11.8h-8.207v-8.207h8.207Z" transform="translate(-97.714 -204.863)" fill="#f8622d"/>
        <path id="Trazado_514" data-name="Trazado 514" d="M214.723,265.133h-9.746a2.824,2.824,0,0,0-2.821,2.821V277.7a2.824,2.824,0,0,0,2.821,2.821h9.746a2.824,2.824,0,0,0,2.821-2.821v-9.746A2.824,2.824,0,0,0,214.723,265.133Zm-.769,11.8h-8.207v-8.207h8.207Z" transform="translate(-154.966 -204.863)" fill="#f8622d"/>
        <path id="Trazado_515" data-name="Trazado 515" d="M49.156,356.956a2.824,2.824,0,0,0,2.821,2.821h9.746a2.824,2.824,0,0,0,2.821-2.821v-10a2.824,2.824,0,0,0-2.821-2.821H51.977a2.825,2.825,0,0,0-2.821,2.821Zm3.591-9.233h8.207v8.464H52.747Z" transform="translate(-41.205 -263.602)" fill="#f8622d"/>
        <path id="Trazado_516" data-name="Trazado 516" d="M137.723,359.778a2.824,2.824,0,0,0,2.821-2.821v-10a2.824,2.824,0,0,0-2.821-2.821h-9.746a2.825,2.825,0,0,0-2.821,2.821v10a2.824,2.824,0,0,0,2.821,2.821Zm-8.976-12.054h8.207v8.464h-8.207Z" transform="translate(-97.714 -263.602)" fill="#f8622d"/>
        <path id="Trazado_517" data-name="Trazado 517" d="M291.749,272.827a1.8,1.8,0,0,0,1.8-1.8v-3.078a2.824,2.824,0,0,0-2.821-2.821h-9.746a2.824,2.824,0,0,0-2.821,2.821V277.7a2.824,2.824,0,0,0,2.821,2.821H283.8a1.8,1.8,0,1,0,0-3.591h-2.052v-8.207h8.207v2.308A1.8,1.8,0,0,0,291.749,272.827Z" transform="translate(-211.474 -204.863)" fill="#f8622d"/>
        <path id="Trazado_518" data-name="Trazado 518" d="M331.512,321.041a1.787,1.787,0,0,0,.94-.267l12.423-7.651a1.8,1.8,0,0,0,.854-1.529V291.928a1.8,1.8,0,1,0-3.591,0v18.663l-11.569,7.126a1.8,1.8,0,0,0,.943,3.324Z" transform="translate(-249.809 -223.451)" fill="#f8622d"/>
        <path id="Trazado_521" data-name="Trazado 521" d="M116.951,78.724h56.167a1.8,1.8,0,0,0,0-3.591H116.951a1.8,1.8,0,0,0,0,3.591Z" transform="translate(-90.278 -63.592)" fill="#159d0b"/>
        <path id="Trazado_522" data-name="Trazado 522" d="M127.412,128.422V86.045a10.658,10.658,0,0,0-10.627-10.912h-5.53a1.8,1.8,0,0,0,0,3.591h5.53a7.107,7.107,0,0,1,7.037,7.321v7.3H21.747v-7.3c0-3.9,3.654-7.321,7.818-7.321h4.749a1.8,1.8,0,1,0,0-3.591H29.565c-6.184,0-11.409,5-11.409,10.912V157.2a11.376,11.376,0,0,0,11.409,11.034H90.188a27.705,27.705,0,1,0,37.224-39.809ZM29.565,164.641c-4.165,0-7.818-3.478-7.818-7.443V96.933H123.821v29.534a27.706,27.706,0,0,0-35.9,38.174Zm82.877,11.216a24.123,24.123,0,1,1,24.123-24.123A24.123,24.123,0,0,1,112.442,175.857Z" transform="translate(-18.156 -63.592)" fill="#159d0b"/>
        <path id="Trazado_611" data-name="Trazado 611" d="M80.541,53.215h1.077A6.393,6.393,0,0,0,88,46.829V36.519a6.393,6.393,0,0,0-6.386-6.386H80.541a6.393,6.393,0,0,0-6.386,6.386v10.31A6.393,6.393,0,0,0,80.541,53.215Zm-2.8-16.7a2.8,2.8,0,0,1,2.8-2.8h1.077a2.8,2.8,0,0,1,2.8,2.8v10.31a2.8,2.8,0,0,1-2.8,2.8H80.541a2.8,2.8,0,0,1-2.8-2.8Z" transform="translate(-59.793 -30.133)" fill="#f8622d"/>
        <path id="Trazado_612" data-name="Trazado 612" d="M340.541,53.215h1.077A6.393,6.393,0,0,0,348,46.829V36.519a6.393,6.393,0,0,0-6.386-6.386h-1.077a6.393,6.393,0,0,0-6.386,6.386v10.31A6.393,6.393,0,0,0,340.541,53.215Zm-2.8-16.7a2.8,2.8,0,0,1,2.8-2.8h1.077a2.8,2.8,0,0,1,2.8,2.8v10.31a2.8,2.8,0,0,1-2.8,2.8h-1.077a2.8,2.8,0,0,1-2.8-2.8Z" transform="translate(-253.111 -30.133)" fill="#f8622d"/>
      </g>
    </g>
  </g>
</svg>
