<svg xmlns="http://www.w3.org/2000/svg" width="102.746" height="105.264" viewBox="0 0 102.746 105.264">
  <g id="Grupo_737" data-name="Grupo 737" transform="translate(-1405.721 -2698.127)">
    <path id="Trazado_626" data-name="Trazado 626" d="M4326.94,3639.127s-37.082,21.39-11.44,51.568c15.564,18.318,1.876,14.26-9,3.3-6.7-6.748-10.5-20-10.5-20l2-16,8.5-12.3,12-5.025Z" transform="translate(-2871 -941)" fill="#c2ffbe"/>
    <g id="Grupo_731" data-name="Grupo 731" transform="translate(1405.721 2700.645)">
      <g id="Grupo_137" data-name="Grupo 137" transform="translate(20.706)">
        <path id="Trazado_77" data-name="Trazado 77" d="M697.831,2322.6a14.432,14.432,0,1,0,14.432,14.432,14.394,14.394,0,0,0-14.432-14.432Zm0,24.785a10.353,10.353,0,1,1,10.353-10.353,10.445,10.445,0,0,1-10.353,10.353Zm0,0" transform="translate(-683.4 -2322.6)" fill="#159d0b"/>
      </g>
      <g id="Grupo_138" data-name="Grupo 138" transform="translate(53.177)">
        <path id="Trazado_78" data-name="Trazado 78" d="M718.531,2322.6a14.432,14.432,0,1,0,14.432,14.432,14.394,14.394,0,0,0-14.432-14.432Zm0,24.785a10.353,10.353,0,1,1,10.353-10.353,10.445,10.445,0,0,1-10.353,10.353Zm0,0" transform="translate(-704.1 -2322.6)" fill="#159d0b"/>
      </g>
      <g id="Grupo_139" data-name="Grupo 139" transform="translate(77.961 23.843)">
        <path id="Trazado_79" data-name="Trazado 79" d="M732.292,2337.8a12.392,12.392,0,1,0,12.392,12.392,12.319,12.319,0,0,0-12.392-12.392Zm0,20.706a8.314,8.314,0,1,1,8.313-8.314,8.368,8.368,0,0,1-8.313,8.314Zm0,0" transform="translate(-719.9 -2337.8)" fill="#159d0b"/>
      </g>
      <g id="Grupo_140" data-name="Grupo 140" transform="translate(0 23.843)">
        <path id="Trazado_80" data-name="Trazado 80" d="M682.592,2337.8a12.392,12.392,0,1,0,12.392,12.392,12.319,12.319,0,0,0-12.392-12.392Zm0,20.706a8.314,8.314,0,1,1,8.314-8.314,8.268,8.268,0,0,1-8.314,8.314Zm0,0" transform="translate(-670.2 -2337.8)" fill="#159d0b"/>
      </g>
      <g id="Grupo_141" data-name="Grupo 141" transform="translate(17.098 34.04)">
        <path id="Trazado_81" data-name="Trazado 81" d="M715.453,2344.3a34.354,34.354,0,1,0,34.353,34.354,34.344,34.344,0,0,0-34.353-34.354Zm0,64.786a30.432,30.432,0,1,1,30.432-30.431,30.46,30.46,0,0,1-30.432,30.431Zm0,0" transform="translate(-681.1 -2344.3)" fill="#159d0b"/>
      </g>
      <g id="Grupo_142" data-name="Grupo 142" transform="translate(24.941 42.039)">
        <path id="Trazado_82" data-name="Trazado 82" d="M735.826,2382.969a2.085,2.085,0,0,0-2.667,1.1,7.34,7.34,0,0,1-.784,1.568,22.049,22.049,0,0,1-19.922,12.392,22.274,22.274,0,1,1,0-44.548,2.04,2.04,0,0,0,0-4.079,26.353,26.353,0,1,0,14.118,48.627,26.844,26.844,0,0,0,9.569-10.509,9.607,9.607,0,0,0,.784-1.883,1.957,1.957,0,0,0-1.1-2.666Zm0,0" transform="translate(-686.1 -2349.4)" fill="#f15a24"/>
      </g>
      <g id="Grupo_143" data-name="Grupo 143" transform="translate(73.569 67.236)">
        <path id="Trazado_83" data-name="Trazado 83" d="M721.179,2366.933c0-.158,0-.314-.157-.314a.547.547,0,0,0-.157-.313c0-.157-.157-.157-.314-.313a1.955,1.955,0,0,0-1.882-.471c-.157,0-.314,0-.314.158a.548.548,0,0,0-.314.156c-.157,0-.157.158-.314.313l-.314.314c0,.157-.157.157-.157.313a.545.545,0,0,1-.157.313v.785c0,.157,0,.313.157.313a.547.547,0,0,0,.157.314c0,.157.157.157.314.314l.314.313c.157,0,.157.157.314.157a.549.549,0,0,1,.314.157h.47a1.7,1.7,0,0,0,1.412-.627l.314-.314c0-.157.157-.157.157-.314a.543.543,0,0,1,.157-.312v-.942Zm0,0" transform="translate(-717.1 -2365.462)" fill="#f15a24"/>
      </g>
      <g id="Grupo_144" data-name="Grupo 144" transform="translate(34.824 51.922)">
        <path id="Trazado_84" data-name="Trazado 84" d="M723.3,2364.8h-7.059v-7.058a2.076,2.076,0,0,0-2.039-2.04H703.537a2.076,2.076,0,0,0-2.039,2.04v7.058h-7.059a2.077,2.077,0,0,0-2.039,2.04V2377.5a2.077,2.077,0,0,0,2.039,2.04H701.5v7.059a2.077,2.077,0,0,0,2.039,2.039H714.2a2.077,2.077,0,0,0,2.039-2.039v-7.059H723.3a2.077,2.077,0,0,0,2.039-2.04v-10.667a2.077,2.077,0,0,0-2.039-2.04Zm-2.039,10.824H714.2a2.076,2.076,0,0,0-2.039,2.038v7.059H705.42v-7.059a2.076,2.076,0,0,0-2.039-2.038h-7.059v-6.746h7.059a2.077,2.077,0,0,0,2.039-2.04v-7.059h6.745v7.059a2.077,2.077,0,0,0,2.039,2.04h7.059Zm0,0" transform="translate(-692.4 -2355.7)" fill="#f15a24"/>
      </g>
    </g>
  </g>
</svg>
