<svg xmlns="http://www.w3.org/2000/svg" width="100.642" height="74.223" viewBox="0 0 100.642 74.223">
  <g id="Grupo_690" data-name="Grupo 690" transform="translate(-1183.278 -2057.119)">
    <g id="Grupo_687" data-name="Grupo 687" transform="translate(1183.278 2057.119)">
      <g id="contact" transform="translate(0)">
        <path id="Trazado_534" data-name="Trazado 534" d="M20.483,77.933V24.677A8.384,8.384,0,0,1,28.87,16.29h77.305A8.369,8.369,0,0,0,98.061,10H18.387A8.384,8.384,0,0,0,10,18.387V71.643a8.384,8.384,0,0,0,8.387,8.387h2.369a7.649,7.649,0,0,1-.273-2.1Zm0,0" transform="translate(-7.903 -7.903)" fill="#c2ffbe"/>
        <g id="Grupo_677" data-name="Grupo 677">
          <path id="Trazado_535" data-name="Trazado 535" d="M90.158,0H10.484A10.488,10.488,0,0,0,0,10.484V63.74A10.488,10.488,0,0,0,10.484,74.223H90.158A10.488,10.488,0,0,0,100.642,63.74V10.484A10.488,10.488,0,0,0,90.158,0Zm6.29,63.74a6.309,6.309,0,0,1-6.29,6.29H10.484a6.309,6.309,0,0,1-6.29-6.29V10.484a6.309,6.309,0,0,1,6.29-6.29H90.158a6.309,6.309,0,0,1,6.29,6.29Zm0,0" fill="#159d0b"/>
          <path id="Trazado_536" data-name="Trazado 536" d="M305.421,167H280.995a2.1,2.1,0,0,0,0,4.193h24.427a2.1,2.1,0,1,0,0-4.193Zm0,0" transform="translate(-220.421 -131.985)" fill="#f8622d"/>
          <path id="Trazado_537" data-name="Trazado 537" d="M305.421,231H280.995a2.1,2.1,0,0,0,0,4.193h24.427a2.1,2.1,0,1,0,0-4.193Zm0,0" transform="translate(-220.421 -182.566)" fill="#f8622d"/>
          <path id="Trazado_538" data-name="Trazado 538" d="M305.421,103H280.995a2.1,2.1,0,0,0,0,4.193h24.427a2.1,2.1,0,1,0,0-4.193Zm0,0" transform="translate(-220.421 -81.404)" fill="#f8622d"/>
        </g>
        <path id="Trazado_539" data-name="Trazado 539" d="M102.539,91.358A10.83,10.83,0,1,0,91.7,80.519,10.829,10.829,0,0,0,102.539,91.358Zm0-17.466a6.636,6.636,0,1,1-6.646,6.626A6.637,6.637,0,0,1,102.539,73.893Zm0,0" transform="translate(-72.472 -55.085)" fill="#f8622d"/>
        <path id="Trazado_540" data-name="Trazado 540" d="M80.647,192.1a16.3,16.3,0,0,0-11.783,4.927A17.388,17.388,0,0,0,64,209.335a2.1,2.1,0,0,0,2.1,2.1H95.2a2.1,2.1,0,0,0,2.1-2.1,17.388,17.388,0,0,0-4.864-12.307A16.267,16.267,0,0,0,80.647,192.1ZM68.34,207.238a12.826,12.826,0,0,1,3.523-7.275,12.352,12.352,0,0,1,17.571,0,12.888,12.888,0,0,1,3.523,7.275Zm0,0" transform="translate(-50.581 -151.822)" fill="#f8622d"/>
      </g>
    </g>
  </g>
</svg>
