<svg xmlns="http://www.w3.org/2000/svg" width="89.292" height="89.531" viewBox="0 0 89.292 89.531">
  <g id="Grupo_715" data-name="Grupo 715" transform="translate(0.5 0.5)">
    <g id="Grupo_395" data-name="Grupo 395" transform="translate(0)">
      <g id="Grupo_385" data-name="Grupo 385" transform="translate(38.044 23.09)">
        <path id="Trazado_225" data-name="Trazado 225" d="M583.551,2892.595H572.664a6.034,6.034,0,0,0-4.307-4.307v-15.433a1.555,1.555,0,1,0-3.11,0v15.433a6.033,6.033,0,0,0-4.546,5.863,6.127,6.127,0,0,0,6.1,6.1,6.033,6.033,0,0,0,5.862-4.546h10.887a1.555,1.555,0,1,0,0-3.11Zm-16.749,4.546a2.991,2.991,0,1,1,2.991-2.99,2.962,2.962,0,0,1-2.991,2.99Zm0,0" transform="translate(-560.7 -2871.3)" fill="#159d0b" stroke="#159d0b" stroke-width="1"/>
      </g>
      <g id="Grupo_386" data-name="Grupo 386">
        <path id="Trazado_226" data-name="Trazado 226" d="M605.228,2866.835l6.221,6.221a1.781,1.781,0,0,0,1.077.478,1.3,1.3,0,0,0,1.077-.478,12.351,12.351,0,0,0-17.467-17.467,1.78,1.78,0,0,0-.479,1.077,1.3,1.3,0,0,0,.479,1.077l6.939,6.939-2.632,2.631a41.277,41.277,0,0,0-27.4-10.528,40.69,40.69,0,0,0-27.4,10.528l-2.632-2.631,6.939-6.939a1.785,1.785,0,0,0,.479-1.077,1.3,1.3,0,0,0-.479-1.077,12.351,12.351,0,0,0-17.467,17.467,1.782,1.782,0,0,0,1.077.478,1.3,1.3,0,0,0,1.077-.478l6.221-6.221,2.512,2.513a41.086,41.086,0,0,0,8.734,63.885l-4.666,4.666a1.516,1.516,0,0,0,0,2.153,1.781,1.781,0,0,0,1.077.479,1.3,1.3,0,0,0,1.077-.479l5.264-5.264a41.061,41.061,0,0,0,36.13,0l5.264,5.264a1.781,1.781,0,0,0,1.077.479,1.461,1.461,0,0,0,1.077-.479,1.516,1.516,0,0,0,0-2.153l-4.666-4.666a41.087,41.087,0,0,0,8.734-63.885Zm6.221-9.092a9.277,9.277,0,0,1,.957,11.963l-13.041-13.04a9.606,9.606,0,0,1,12.083,1.077Zm-77.764,12.083a9.254,9.254,0,0,1,12.921-12.921Zm39.36,66.159a38.045,38.045,0,1,1,38.044-38.044,38.141,38.141,0,0,1-38.044,38.044Zm0,0" transform="translate(-528.9 -2852)" fill="#f15a24" stroke="#f15a24" stroke-width="1"/>
      </g>
      <g id="Grupo_387" data-name="Grupo 387" transform="translate(42.591 10.648)">
        <path id="Trazado_227" data-name="Trazado 227" d="M566.055,2865.566a1.584,1.584,0,0,0,1.555-1.556v-1.555a1.555,1.555,0,1,0-3.11,0v1.555a1.584,1.584,0,0,0,1.555,1.556Zm0,0" transform="translate(-564.5 -2860.9)" fill="#159d0b" stroke="#159d0b" stroke-width="1"/>
      </g>
      <g id="Grupo_388" data-name="Grupo 388" transform="translate(42.591 76.209)">
        <path id="Trazado_228" data-name="Trazado 228" d="M566.055,2915.7a1.584,1.584,0,0,0-1.555,1.556v1.556a1.555,1.555,0,0,0,3.11,0v-1.556a1.508,1.508,0,0,0-1.555-1.556Zm0,0" transform="translate(-564.5 -2915.699)" fill="#159d0b" stroke="#159d0b" stroke-width="1"/>
      </g>
      <g id="Grupo_389" data-name="Grupo 389" transform="translate(74.534 44.146)">
        <path id="Trazado_229" data-name="Trazado 229" d="M592.755,2892.011h1.555a1.556,1.556,0,0,0,0-3.111h-1.555a1.584,1.584,0,0,0-1.555,1.556,1.672,1.672,0,0,0,1.555,1.555Zm0,0" transform="translate(-591.2 -2888.9)" fill="#159d0b" stroke="#159d0b" stroke-width="1"/>
      </g>
      <g id="Grupo_390" data-name="Grupo 390" transform="translate(9.092 44.146)">
        <path id="Trazado_230" data-name="Trazado 230" d="M539.61,2888.9h-1.555a1.556,1.556,0,0,0,0,3.111h1.555a1.556,1.556,0,0,0,0-3.111Zm0,0" transform="translate(-536.5 -2888.9)" fill="#159d0b" stroke="#159d0b" stroke-width="1"/>
      </g>
      <g id="Grupo_391" data-name="Grupo 391" transform="translate(65.232 20.488)">
        <path id="Trazado_231" data-name="Trazado 231" d="M584.95,2869.574l-1.077,1.076a1.516,1.516,0,0,0,0,2.153,1.782,1.782,0,0,0,1.077.479,1.3,1.3,0,0,0,1.077-.479l1.077-1.076a1.523,1.523,0,0,0-2.153-2.153Zm0,0" transform="translate(-583.425 -2869.125)" fill="#159d0b" stroke="#159d0b" stroke-width="1"/>
      </g>
      <g id="Grupo_392" data-name="Grupo 392" transform="translate(18.932 66.787)">
        <path id="Trazado_232" data-name="Trazado 232" d="M546.25,2908.274l-1.077,1.075a1.518,1.518,0,0,0,0,2.155,1.785,1.785,0,0,0,1.077.478,1.3,1.3,0,0,0,1.077-.478l1.077-1.076a1.523,1.523,0,0,0-2.154-2.154Zm0,0" transform="translate(-544.725 -2907.825)" fill="#159d0b" stroke="#159d0b" stroke-width="1"/>
      </g>
      <g id="Grupo_393" data-name="Grupo 393" transform="translate(65.232 66.787)">
        <path id="Trazado_233" data-name="Trazado 233" d="M586.027,2908.274a1.523,1.523,0,0,0-2.153,2.154l1.077,1.076a1.784,1.784,0,0,0,1.077.478,1.3,1.3,0,0,0,1.077-.478,1.518,1.518,0,0,0,0-2.155Zm0,0" transform="translate(-583.425 -2907.825)" fill="#159d0b" stroke="#159d0b" stroke-width="1"/>
      </g>
      <g id="Grupo_394" data-name="Grupo 394" transform="translate(18.933 20.488)">
        <path id="Trazado_234" data-name="Trazado 234" d="M547.327,2869.574a1.523,1.523,0,0,0-2.153,2.153l1.077,1.076a1.782,1.782,0,0,0,1.077.479,1.3,1.3,0,0,0,1.077-.479,1.516,1.516,0,0,0,0-2.153Zm0,0" transform="translate(-544.725 -2869.125)" fill="#159d0b" stroke="#159d0b" stroke-width="1"/>
      </g>
    </g>
  </g>
</svg>
