<svg id="hospital_1_" data-name="hospital (1)" xmlns="http://www.w3.org/2000/svg" width="118.283" height="118.784" viewBox="0 0 118.283 118.784">
  <rect id="Rect치ngulo_169" data-name="Rect치ngulo 169" width="6.886" height="5.165" transform="translate(21.519 3.443)" fill="#d4e1f4"/>
  <rect id="Rect치ngulo_170" data-name="Rect치ngulo 170" width="8.608" height="101.569" transform="translate(27.544 12.911)" fill="#d4e1f4"/>
  <path id="Trazado_554" data-name="Trazado 554" d="M136.028,58.094h-22.3V31.53h4.761a2.258,2.258,0,0,0,2.255-2.255V21.255A2.258,2.258,0,0,0,118.486,19H39.8a2.258,2.258,0,0,0-2.255,2.255v8.019A2.258,2.258,0,0,0,39.8,31.53h4.761V45.313h-22.3A2.258,2.258,0,0,0,20,47.568v8.27a2.258,2.258,0,0,0,2.255,2.255h4.01V136.03a1.754,1.754,0,0,0,1.754,1.754H130.264a1.754,1.754,0,0,0,1.754-1.754V70.874h4.01a2.258,2.258,0,0,0,2.255-2.255v-8.27A2.258,2.258,0,0,0,136.028,58.094ZM41.05,22.508h76.182v5.513H41.05ZM23.508,48.821h21.05v5.764H23.508Zm6.265,9.272H44.559v76.182H29.773ZM48.067,31.53h62.149V134.276h-19.8V105.958a2.76,2.76,0,0,0-2.757-2.757H70.872a2.76,2.76,0,0,0-2.757,2.757v28.318H48.067ZM86.91,134.276H71.624V106.71H86.91Zm41.6,0H113.724v-63.4H128.51Zm6.265-66.91h-21.05V61.6h21.05Z" transform="translate(-20 -19)" fill="#159d0b"/>
  <path id="Trazado_555" data-name="Trazado 555" d="M158.019,203h-5.263A2.76,2.76,0,0,0,150,205.757v6.265a2.76,2.76,0,0,0,2.757,2.757h5.263a2.76,2.76,0,0,0,2.757-2.757v-6.265A2.76,2.76,0,0,0,158.019,203Zm-.752,8.27h-3.759v-4.761h3.759Z" transform="translate(-117.422 -156.89)" fill="#f8622d"/>
  <path id="Trazado_556" data-name="Trazado 556" d="M158.019,282h-5.263A2.76,2.76,0,0,0,150,284.757v6.265a2.76,2.76,0,0,0,2.757,2.757h5.263a2.76,2.76,0,0,0,2.757-2.757v-6.265A2.76,2.76,0,0,0,158.019,282Zm-.752,8.27h-3.759v-4.761h3.759Z" transform="translate(-117.422 -216.092)" fill="#f8622d"/>
  <path id="Trazado_557" data-name="Trazado 557" d="M236.757,214.778h5.263a2.76,2.76,0,0,0,2.757-2.757v-6.265A2.76,2.76,0,0,0,242.019,203h-5.263A2.76,2.76,0,0,0,234,205.757v6.265A2.76,2.76,0,0,0,236.757,214.778Zm.752-8.27h3.759v4.761h-3.759Z" transform="translate(-180.372 -156.89)" fill="#f8622d"/>
  <path id="Trazado_558" data-name="Trazado 558" d="M236.757,293.778h5.263a2.76,2.76,0,0,0,2.757-2.757v-6.265A2.76,2.76,0,0,0,242.019,282h-5.263A2.76,2.76,0,0,0,234,284.757v6.265A2.76,2.76,0,0,0,236.757,293.778Zm.752-8.27h3.759v4.761h-3.759Z" transform="translate(-180.372 -216.092)" fill="#f8622d"/>
  <path id="Trazado_559" data-name="Trazado 559" d="M321.757,214.778h5.263a2.76,2.76,0,0,0,2.757-2.757v-6.265A2.76,2.76,0,0,0,327.019,203h-5.263A2.76,2.76,0,0,0,319,205.757v6.265A2.76,2.76,0,0,0,321.757,214.778Zm.752-8.27h3.759v4.761h-3.759Z" transform="translate(-244.071 -156.89)" fill="#f8622d"/>
  <path id="Trazado_560" data-name="Trazado 560" d="M321.757,293.778h5.263a2.76,2.76,0,0,0,2.757-2.757v-6.265A2.76,2.76,0,0,0,327.019,282h-5.263A2.76,2.76,0,0,0,319,284.757v6.265A2.76,2.76,0,0,0,321.757,293.778Zm.752-8.27h3.759v4.761h-3.759Z" transform="translate(-244.071 -216.092)" fill="#f8622d"/>
  <path id="Trazado_561" data-name="Trazado 561" d="M402.757,261.778h5.263a2.76,2.76,0,0,0,2.757-2.757v-6.265A2.76,2.76,0,0,0,408.019,250h-5.263A2.76,2.76,0,0,0,400,252.757v6.265A2.76,2.76,0,0,0,402.757,261.778Zm.752-8.27h3.759v4.761h-3.759Z" transform="translate(-304.772 -192.111)" fill="#f8622d"/>
  <path id="Trazado_562" data-name="Trazado 562" d="M75.019,250H69.757A2.76,2.76,0,0,0,67,252.757v6.265a2.76,2.76,0,0,0,2.757,2.757h5.263a2.76,2.76,0,0,0,2.757-2.757v-6.265A2.76,2.76,0,0,0,75.019,250Zm-.752,8.27H70.508v-4.761h3.759Z" transform="translate(-55.222 -192.111)" fill="#f8622d"/>
  <path id="Trazado_563" data-name="Trazado 563" d="M228.055,88.769h-5.012V83.757A2.76,2.76,0,0,0,220.287,81h-4.26a2.76,2.76,0,0,0-2.757,2.757v5.012h-5.513A2.76,2.76,0,0,0,205,91.525v4.01a2.76,2.76,0,0,0,2.757,2.757h5.513v5.263a2.76,2.76,0,0,0,2.757,2.757h4.26a2.76,2.76,0,0,0,2.757-2.757V98.291h5.012a2.76,2.76,0,0,0,2.757-2.757v-4.01A2.76,2.76,0,0,0,228.055,88.769Zm-.752,6.014h-5.012a2.76,2.76,0,0,0-2.757,2.757V102.8h-2.757V97.54a2.76,2.76,0,0,0-2.757-2.757h-5.513V92.277h5.513a2.76,2.76,0,0,0,2.757-2.757V84.508h2.757V89.52a2.76,2.76,0,0,0,2.757,2.757H227.3Z" transform="translate(-158.639 -65.463)" fill="#f8622d"/>
</svg>
