<svg xmlns="http://www.w3.org/2000/svg" width="90.174" height="97.667" viewBox="0 0 90.174 97.667">
  <g id="save-money" transform="translate(-28.871 -67.406)">
    <path id="Trazado_570" data-name="Trazado 570" d="M271.342,284.631V237.566a1.693,1.693,0,0,1,1.69-1.691h-5.955a1.693,1.693,0,0,0-1.691,1.691v47.065a1.693,1.693,0,0,0,1.69,1.691h5.955A1.693,1.693,0,0,1,271.342,284.631Z" transform="translate(-189.565 -123.631)" fill="#ffd2c2"/>
    <path id="Trazado_586" data-name="Trazado 586" d="M281.433,281.3h31.7a1.191,1.191,0,0,0,0-2.382h-31.7a1.191,1.191,0,1,0,0,2.382Z" transform="translate(-201.471 -158.126)" fill="#f8622d"/>
    <path id="Trazado_587" data-name="Trazado 587" d="M355.042,318.21a1.191,1.191,0,0,0-1.191-1.191H332.239a1.191,1.191,0,1,0,0,2.382h21.612A1.191,1.191,0,0,0,355.042,318.21Z" transform="translate(-242.192 -188.667)" fill="#f8622d"/>
    <path id="Trazado_588" data-name="Trazado 588" d="M332.239,355.123a1.191,1.191,0,1,0,0,2.382h5.33a1.191,1.191,0,1,0,0-2.382Z" transform="translate(-242.192 -219.207)" fill="#f8622d"/>
    <path id="Trazado_589" data-name="Trazado 589" d="M281.433,395.611h15.993a1.191,1.191,0,1,0,0-2.382H281.433a1.191,1.191,0,1,0,0,2.382Z" transform="translate(-201.471 -249.748)" fill="#f8622d"/>
    <path id="Trazado_590" data-name="Trazado 590" d="M301.6,431.333H281.433a1.191,1.191,0,1,0,0,2.382H301.6a1.191,1.191,0,1,0,0-2.382Z" transform="translate(-201.471 -280.288)" fill="#f8622d"/>
    <path id="Trazado_591" data-name="Trazado 591" d="M284.111,314.67h-.04a1.485,1.485,0,0,1-1.465-1.483,1.191,1.191,0,0,0-2.382,0,3.871,3.871,0,0,0,2.675,3.677v.59a1.191,1.191,0,0,0,2.382,0v-.59a3.865,3.865,0,0,0-1.191-7.543,1.484,1.484,0,1,1,1.484-1.484,1.191,1.191,0,1,0,2.382,0,3.871,3.871,0,0,0-2.675-3.677v-.469a1.191,1.191,0,1,0-2.382,0v.469a3.865,3.865,0,0,0,1.191,7.543,1.484,1.484,0,1,1,.02,2.968Z" transform="translate(-201.455 -177.03)" fill="#f8622d"/>
    <path id="Trazado_592" data-name="Trazado 592" d="M294.918,209.332h-9.044a4.8,4.8,0,0,0-4.643-3.6H271.145a4.8,4.8,0,0,0-4.645,3.6h-9.043a4.077,4.077,0,0,0-4.073,4.073V260.47a4.077,4.077,0,0,0,4.073,4.073h37.461a4.077,4.077,0,0,0,4.073-4.073V213.4a4.077,4.077,0,0,0-4.072-4.073Zm-25.478-.514a2.4,2.4,0,0,1,1.705-.706H281.23a2.411,2.411,0,1,1,0,4.822H271.145a2.411,2.411,0,0,1-1.705-4.116Zm27.169,51.652a1.693,1.693,0,0,1-1.691,1.69H257.457a1.692,1.692,0,0,1-1.691-1.691V213.4a1.693,1.693,0,0,1,1.691-1.691H266.5a4.8,4.8,0,0,0,4.643,3.6H281.23a4.8,4.8,0,0,0,4.645-3.6h9.043a1.692,1.692,0,0,1,1.691,1.691Z" transform="translate(-179.945 -99.47)" fill="#f8622d"/>
    <path id="Trazado_593" data-name="Trazado 593" d="M380.538,348.957a7.973,7.973,0,0,0-1.38.121l-.029-.086a1.191,1.191,0,0,0-1.13-.814,6.308,6.308,0,0,0-6.307,6.307,1.191,1.191,0,0,0,.814,1.131l.182.061a7.944,7.944,0,1,0,7.849-6.72Zm-5.313,2.753a3.892,3.892,0,0,1,1.945-1.062l1.5,4.513-4.513-1.5a3.9,3.9,0,0,1,1.063-1.948Zm5.313,10.755a5.569,5.569,0,0,1-5.563-5.563c0-.153.008-.305.02-.457l5.186,1.727a1.191,1.191,0,0,0,1.506-1.507l-1.764-5.29a5.561,5.561,0,1,1,.614,11.088Z" transform="translate(-274.769 -213.641)" fill="#f8622d"/>
    <g id="Grupo_713" data-name="Grupo 713">
      <path id="Trazado_613" data-name="Trazado 613" d="M275.873,321.727V238.853a2.98,2.98,0,0,1,2.977-2.977H268.364a2.98,2.98,0,0,0-2.977,2.977v82.874a2.98,2.98,0,0,0,2.976,2.977h10.486A2.98,2.98,0,0,1,275.873,321.727Z" transform="translate(-234.565 -166.631)" fill="#c2ffbe"/>
      <g id="Grupo_679" data-name="Grupo 679" transform="translate(28.871 67.406)">
        <path id="Trazado_571" data-name="Trazado 571" d="M94.8,10H33.9a5.039,5.039,0,0,0-5.033,5.033V97.974a5.039,5.039,0,0,0,5.033,5.033H74.631a1.191,1.191,0,0,0,0-2.382H33.9a2.654,2.654,0,0,1-2.651-2.651V15.033A2.654,2.654,0,0,1,33.9,12.382H94.8a2.654,2.654,0,0,1,2.65,2.651V50.045a1.191,1.191,0,1,0,2.382,0V15.033A5.039,5.039,0,0,0,94.8,10Z" transform="translate(-28.871 -10)" fill="#159d0b"/>
        <path id="Trazado_572" data-name="Trazado 572" d="M125.874,68.565V51.91a1.191,1.191,0,0,0-1.191-1.191H73.247a1.191,1.191,0,0,0-1.191,1.191V68.565a1.191,1.191,0,0,0,1.191,1.191h51.436A1.191,1.191,0,0,0,125.874,68.565Zm-2.382-1.191H74.438V53.1h49.053Z" transform="translate(-63.483 -42.636)" fill="#159d0b"/>
        <path id="Trazado_573" data-name="Trazado 573" d="M86.685,178.919a1.191,1.191,0,0,0-1.191-1.191H73.247a1.191,1.191,0,0,0-1.191,1.191v12.247a1.191,1.191,0,0,0,1.191,1.191H85.494a1.191,1.191,0,0,0,1.191-1.191ZM84.3,189.975H74.438V180.11H84.3Z" transform="translate(-63.483 -144.432)" fill="#159d0b"/>
        <path id="Trazado_574" data-name="Trazado 574" d="M185.393,178.919a1.191,1.191,0,0,0-1.191-1.191H171.955a1.191,1.191,0,0,0-1.191,1.191v12.247a1.191,1.191,0,0,0,1.191,1.191H184.2a1.191,1.191,0,0,0,1.191-1.191Zm-2.382,11.056h-9.865V180.11h9.865Z" transform="translate(-142.597 -144.432)" fill="#159d0b"/>
        <path id="Trazado_575" data-name="Trazado 575" d="M271.854,180.11h9.865v4.524H284.1v-5.715a1.191,1.191,0,0,0-1.191-1.191H270.663a1.191,1.191,0,0,0-1.191,1.191v9.173h2.382Z" transform="translate(-221.71 -144.432)" fill="#159d0b"/>
        <path id="Trazado_576" data-name="Trazado 576" d="M86.685,277.628a1.191,1.191,0,0,0-1.191-1.191H73.247a1.191,1.191,0,0,0-1.191,1.191v12.246a1.191,1.191,0,0,0,1.191,1.191H85.494a1.191,1.191,0,0,0,1.191-1.191ZM84.3,288.683H74.438v-9.864H84.3Z" transform="translate(-63.483 -223.547)" fill="#159d0b"/>
        <path id="Trazado_577" data-name="Trazado 577" d="M185.393,277.628a1.191,1.191,0,0,0-1.191-1.191H171.955a1.191,1.191,0,0,0-1.191,1.191v12.246a1.191,1.191,0,0,0,1.191,1.191H184.2a1.191,1.191,0,0,0,1.191-1.191Zm-2.382,11.055h-9.865v-9.864h9.865Z" transform="translate(-142.597 -223.547)" fill="#159d0b"/>
        <path id="Trazado_578" data-name="Trazado 578" d="M85.494,375.145H73.247a1.191,1.191,0,0,0-1.191,1.191v12.246a1.191,1.191,0,0,0,1.191,1.191H85.494a1.191,1.191,0,0,0,1.191-1.191V376.336A1.191,1.191,0,0,0,85.494,375.145ZM84.3,387.391H74.438v-9.864H84.3Z" transform="translate(-63.483 -302.66)" fill="#159d0b"/>
        <path id="Trazado_579" data-name="Trazado 579" d="M184.2,375.145H171.955a1.191,1.191,0,0,0-1.191,1.191v12.246a1.191,1.191,0,0,0,1.191,1.191H184.2a1.191,1.191,0,0,0,1.191-1.191V376.336A1.191,1.191,0,0,0,184.2,375.145Zm-1.191,12.246h-9.865v-9.864h9.865Z" transform="translate(-142.597 -302.66)" fill="#159d0b"/>
        <path id="Trazado_580" data-name="Trazado 580" d="M97.969,86.218c1.644,0,2.918-.762,2.918-2.811V83.3a2.233,2.233,0,0,0-2.5-2.5,1.9,1.9,0,0,0-1.489.524V80.252c0-.822.417-1.191,1.12-1.191.56,0,1.036.238,1.036.691,0,.548.453.679.965.679.6,0,.869-.179.869-.75,0-.989-.8-2.239-2.811-2.239-1.715,0-3.037.762-3.037,2.811v3.156C95.039,85.455,96.326,86.218,97.969,86.218ZM96.9,83.324a.956.956,0,0,1,1.06-1.1c.679,0,1.072.333,1.072,1.2v.107c0,.822-.393,1.179-1.06,1.179S96.9,84.36,96.9,83.538Z" transform="translate(-81.904 -64.053)" fill="#159d0b"/>
        <path id="Trazado_581" data-name="Trazado 581" d="M130.971,86.214c1.644,0,2.918-.679,2.918-2.454v-.143a2.139,2.139,0,0,0-1.465-2.239,1.752,1.752,0,0,0,1.179-1.822c0-1.489-1.1-2.12-2.632-2.12s-2.632.631-2.632,2.12a1.752,1.752,0,0,0,1.179,1.822,2.147,2.147,0,0,0-1.477,2.239v.143C128.041,85.535,129.327,86.214,130.971,86.214Zm0-7.289a.758.758,0,0,1,.846.869c0,.619-.31.858-.846.858s-.845-.238-.845-.858A.758.758,0,0,1,130.971,78.925ZM129.9,83.272a.986.986,0,0,1,1.072-1.132c.667,0,1.06.357,1.06,1.132v.262c0,.8-.381,1.191-1.06,1.191-.655,0-1.072-.369-1.072-1.191Z" transform="translate(-108.355 -64.049)" fill="#159d0b"/>
        <path id="Trazado_582" data-name="Trazado 582" d="M164.389,86.218c1.644,0,2.918-.762,2.918-2.811V83.3a2.232,2.232,0,0,0-2.5-2.5,1.9,1.9,0,0,0-1.489.524V80.252c0-.822.417-1.191,1.12-1.191.56,0,1.036.238,1.036.691,0,.548.452.679.965.679.6,0,.869-.179.869-.75,0-.989-.8-2.239-2.811-2.239-1.715,0-3.037.762-3.037,2.811v3.156C161.459,85.455,162.745,86.218,164.389,86.218Zm-1.072-2.894a.956.956,0,0,1,1.06-1.1c.679,0,1.072.333,1.072,1.2v.107c0,.822-.393,1.179-1.06,1.179s-1.072-.357-1.072-1.179Z" transform="translate(-135.139 -64.053)" fill="#159d0b"/>
        <path id="Trazado_583" data-name="Trazado 583" d="M197.391,86.214c1.644,0,2.918-.679,2.918-2.454v-.143a2.138,2.138,0,0,0-1.465-2.239,1.752,1.752,0,0,0,1.179-1.822c0-1.489-1.1-2.12-2.632-2.12s-2.632.631-2.632,2.12a1.752,1.752,0,0,0,1.179,1.822,2.147,2.147,0,0,0-1.477,2.239v.143C194.461,85.535,195.747,86.214,197.391,86.214Zm0-7.289a.758.758,0,0,1,.846.869c0,.619-.31.858-.846.858s-.846-.238-.846-.858A.758.758,0,0,1,197.391,78.925Zm-1.072,4.347a.986.986,0,0,1,1.072-1.132c.667,0,1.06.357,1.06,1.132v.262c0,.8-.381,1.191-1.06,1.191-.655,0-1.072-.369-1.072-1.191Z" transform="translate(-161.59 -64.049)" fill="#159d0b"/>
        <path id="Trazado_584" data-name="Trazado 584" d="M229.394,84.594c-.536,0-1.06-.131-1.06-.691,0-.453-.191-.619-.953-.619-.655,0-.881.143-.881.679,0,1,.786,2.251,2.835,2.251,1.667,0,3.013-.738,3.013-2.692V83.3a1.727,1.727,0,0,0-1.215-1.751,2.091,2.091,0,0,0,.917-1.953c0-1.608-1.143-2.156-2.656-2.156-2.049,0-2.716,1.2-2.716,2.132,0,.572.107.75.965.75.691,0,.869-.274.869-.679,0-.465.3-.607.881-.607.488,0,.881.167.881.857,0,.965-.476,1.024-.929,1.024-.4,0-.536.357-.536.715s.131.715.536.715c.655,0,1.143.155,1.143.953v.226C230.49,84.3,230.2,84.594,229.394,84.594Z" transform="translate(-187.269 -64.049)" fill="#159d0b"/>
        <path id="Trazado_585" data-name="Trazado 585" d="M259.77,86.142h4.24c.3,0,.56-.393.56-.822s-.262-.8-.56-.8h-3.121v-.107c0-1.084,3.68-1.929,3.68-4.514a2.572,2.572,0,0,0-2.775-2.465,2.465,2.465,0,0,0-2.692,2.287c0,.75.357.965.834.965.607,0,.977-.333.977-.679a.813.813,0,0,1,.893-.893.826.826,0,0,1,.905.845c0,1.513-3.752,2.585-3.752,4.454V85.57C258.96,85.916,259.436,86.142,259.77,86.142Z" transform="translate(-213.285 -64.049)" fill="#159d0b"/>
      </g>
    </g>
  </g>
</svg>
