<svg xmlns="http://www.w3.org/2000/svg" width="107.436" height="107.434" viewBox="0 0 107.436 107.434">
  <g id="syringe" transform="translate(-49 -49.006)">
    <path id="Trazado_594" data-name="Trazado 594" d="M205.047,214.251l-4.372,4.372a3.827,3.827,0,0,1-5.388,0l-43.446-43.446-3.893,3.893,47.338,47.338a3.827,3.827,0,0,0,5.388,0l5.57-5.57a3.827,3.827,0,0,0,0-5.388Z" transform="translate(-73.271 -93.429)" fill="#c2ffbe"/>
    <path id="Trazado_595" data-name="Trazado 595" d="M386.406,388.976l16.382,16.381a1.817,1.817,0,0,0,2.569-2.569l-16.382-16.381a1.817,1.817,0,1,0-2.569,2.569Z" transform="translate(-249.453 -249.449)" fill="#f8622d"/>
    <path id="Trazado_596" data-name="Trazado 596" d="M51.066,64.771a2.932,2.932,0,0,0,4.142,0l.71-.71L68.6,76.748l-8.632,8.721a2.861,2.861,0,0,0,.01,4.027l3.4,3.4a2.858,2.858,0,0,0,4.037,0l4.687-4.687,47.338,47.338a7.46,7.46,0,0,0,10.527,0l5.57-5.57a7.46,7.46,0,0,0,0-10.526L88.205,72.114l4.688-4.687a2.858,2.858,0,0,0,0-4.037l-3.534-3.533a2.835,2.835,0,0,0-2.018-.836h-.008a2.836,2.836,0,0,0-2.022.847l-8.611,8.7L64.056,55.922l.709-.709a2.929,2.929,0,0,0,0-4.142l-1.207-1.207a2.932,2.932,0,0,0-4.142,0l-9.558,9.558a2.929,2.929,0,0,0,0,4.142Zm81.909,57.25a3.827,3.827,0,0,1,0,5.388l-5.57,5.57a3.827,3.827,0,0,1-5.388,0L74.678,85.641,85.636,74.682ZM87.344,62.978l2.43,2.429-5.14,5.14a1.782,1.782,0,0,0-.564.564L71.106,84.075a1.782,1.782,0,0,0-.563.563l-5.14,5.14-2.3-2.3Zm-13.2,8.171-2.987,3.017L58.486,61.492l3-3Z" transform="translate(0 0)" fill="#159d0b"/>
    <path id="Trazado_597" data-name="Trazado 597" d="M355.359,358.319a2.944,2.944,0,0,1-2.1-.863l-3.382-3.382a1.817,1.817,0,0,0-2.569,2.569l3.382,3.382a6.6,6.6,0,1,0,9.333-9.333l-3.382-3.382a1.817,1.817,0,1,0-2.569,2.569l3.381,3.382a2.96,2.96,0,0,1-2.1,5.058Z" transform="translate(-220.503 -220.499)" fill="#159d0b"/>
    <path id="Trazado_598" data-name="Trazado 598" d="M304.116,287.385a1.817,1.817,0,0,0,2.569,0l6.764-6.764a1.817,1.817,0,0,0-2.569-2.569l-6.764,6.764a1.816,1.816,0,0,0,0,2.569Z" transform="translate(-188.518 -169.213)" fill="#159d0b"/>
    <path id="Trazado_599" data-name="Trazado 599" d="M258.887,242.157a1.817,1.817,0,0,0,2.569,0l6.764-6.764a1.817,1.817,0,0,0-2.569-2.569l-6.764,6.764A1.817,1.817,0,0,0,258.887,242.157Z" transform="translate(-155.026 -135.723)" fill="#159d0b"/>
    <path id="Trazado_600" data-name="Trazado 600" d="M213.66,196.928a1.816,1.816,0,0,0,2.569,0l6.763-6.764a1.817,1.817,0,0,0-2.569-2.569l-6.764,6.764a1.817,1.817,0,0,0,0,2.569Z" transform="translate(-121.535 -102.231)" fill="#159d0b"/>
    <path id="Trazado_601" data-name="Trazado 601" d="M336.313,307.029a1.817,1.817,0,0,0,2.569,0l4.178-4.178a1.817,1.817,0,1,0-2.569-2.569l-4.178,4.178A1.817,1.817,0,0,0,336.313,307.029Z" transform="translate(-212.359 -185.674)" fill="#159d0b"/>
    <path id="Trazado_602" data-name="Trazado 602" d="M291.082,261.8a1.816,1.816,0,0,0,2.569,0l4.178-4.178a1.817,1.817,0,0,0-2.569-2.569l-4.178,4.178A1.817,1.817,0,0,0,291.082,261.8Z" transform="translate(-178.866 -152.182)" fill="#159d0b"/>
    <path id="Trazado_603" data-name="Trazado 603" d="M245.856,216.571a1.817,1.817,0,0,0,2.569,0l4.178-4.178a1.817,1.817,0,1,0-2.569-2.569L245.856,214A1.817,1.817,0,0,0,245.856,216.571Z" transform="translate(-145.376 -118.69)" fill="#159d0b"/>
    <path id="Trazado_604" data-name="Trazado 604" d="M201.915,171.876a1.811,1.811,0,0,0,1.284-.532l4.178-4.178a1.817,1.817,0,0,0-2.569-2.569l-4.178,4.178a1.817,1.817,0,0,0,1.285,3.1Z" transform="translate(-111.887 -85.2)" fill="#159d0b"/>
  </g>
</svg>
