<svg xmlns="http://www.w3.org/2000/svg" xmlns:xlink="http://www.w3.org/1999/xlink" width="110.338" height="110.383" viewBox="0 0 110.338 110.383">
  <defs>
    <linearGradient id="linear-gradient" x1="0.177" y1="0.898" x2="0.5" y2="0.087" gradientUnits="objectBoundingBox">
      <stop offset="0" stop-color="#e4f2ff"/>
      <stop offset="1" stop-color="#6bd5eb"/>
    </linearGradient>
    <linearGradient id="linear-gradient-2" x1="0.382" y1="0.568" x2="1.153" y2="0.721" gradientUnits="objectBoundingBox">
      <stop offset="0" stop-color="#b5dbff" stop-opacity="0"/>
      <stop offset="0.24" stop-color="#93cef6" stop-opacity="0.239"/>
      <stop offset="0.58" stop-color="#6abfec" stop-opacity="0.58"/>
      <stop offset="0.84" stop-color="#51b5e5" stop-opacity="0.839"/>
      <stop offset="1" stop-color="#48b2e3"/>
    </linearGradient>
    <linearGradient id="linear-gradient-3" x1="0.437" y1="-3.504" x2="0.437" y2="-4.237" xlink:href="#linear-gradient-2"/>
    <linearGradient id="linear-gradient-4" x1="-1.007" y1="-0.56" x2="-1.007" y2="-1.322" xlink:href="#linear-gradient-2"/>
    <linearGradient id="linear-gradient-5" x1="-1.015" y1="0.313" x2="-1.015" y2="-0.449" xlink:href="#linear-gradient-2"/>
    <linearGradient id="linear-gradient-6" x1="-1.022" y1="-1.859" x2="-1.022" y2="-2.621" xlink:href="#linear-gradient-2"/>
    <linearGradient id="linear-gradient-7" x1="0.054" y1="0.5" x2="1.743" y2="0.5" gradientUnits="objectBoundingBox">
      <stop offset="0" stop-color="#27a4e2" stop-opacity="0"/>
      <stop offset="1" stop-color="#426171"/>
    </linearGradient>
    <linearGradient id="linear-gradient-8" x1="0.246" y1="0.5" x2="1.321" y2="0.5" gradientUnits="objectBoundingBox">
      <stop offset="0" stop-color="#01a2f1" stop-opacity="0"/>
      <stop offset="1" stop-color="#386479"/>
    </linearGradient>
    <linearGradient id="linear-gradient-9" x1="1" y1="0.5" x2="-0.282" y2="0.5" gradientUnits="objectBoundingBox">
      <stop offset="0" stop-color="#7acdf3" stop-opacity="0.2"/>
      <stop offset="1" stop-color="#0a6892"/>
    </linearGradient>
    <linearGradient id="linear-gradient-10" x1="1.307" y1="0.5" x2="0.088" y2="0.5" gradientUnits="objectBoundingBox">
      <stop offset="0" stop-color="#b5dbff" stop-opacity="0"/>
      <stop offset="1" stop-color="#43b7ec"/>
    </linearGradient>
    <linearGradient id="linear-gradient-11" x1="0.5" y1="1.247" x2="0.742" y2="0.5" gradientUnits="objectBoundingBox">
      <stop offset="0" stop-color="#c1272d"/>
      <stop offset="1" stop-color="#f8622d"/>
    </linearGradient>
    <linearGradient id="linear-gradient-12" x1="-0.4" y1="-16.614" x2="0.044" y2="-17.058" gradientUnits="objectBoundingBox">
      <stop offset="0" stop-color="#537983"/>
      <stop offset="1" stop-color="#3e5959"/>
    </linearGradient>
    <linearGradient id="linear-gradient-13" x1="0.172" y1="0.5" x2="0.84" y2="1.247" gradientUnits="objectBoundingBox">
      <stop offset="0" stop-color="#eb542d"/>
      <stop offset="1" stop-color="#cb112b"/>
    </linearGradient>
    <linearGradient id="linear-gradient-14" x1="-0.432" y1="-16.614" x2="0.012" y2="-17.058" xlink:href="#linear-gradient-12"/>
    <linearGradient id="linear-gradient-15" x1="0.704" y1="0.5" x2="0.5" y2="1" gradientUnits="objectBoundingBox">
      <stop offset="0" stop-color="#f8622d"/>
      <stop offset="0.852" stop-color="#df2327"/>
      <stop offset="1" stop-color="#de1f27"/>
    </linearGradient>
    <linearGradient id="linear-gradient-16" x1="-0.426" y1="-7.928" x2="0.025" y2="-8.266" gradientUnits="objectBoundingBox">
      <stop offset="0" stop-color="#edf5ff"/>
      <stop offset="1" stop-color="#b5dbff"/>
    </linearGradient>
    <linearGradient id="linear-gradient-17" x1="-0.426" y1="-9.903" x2="0.025" y2="-10.24" xlink:href="#linear-gradient-16"/>
    <linearGradient id="linear-gradient-18" x1="-0.426" y1="-11.911" x2="0.025" y2="-12.249" xlink:href="#linear-gradient-16"/>
    <linearGradient id="linear-gradient-19" x1="-0.411" y1="-7.928" x2="0.041" y2="-8.266" xlink:href="#linear-gradient-16"/>
    <linearGradient id="linear-gradient-20" x1="-0.411" y1="-9.903" x2="0.041" y2="-10.24" xlink:href="#linear-gradient-16"/>
    <linearGradient id="linear-gradient-21" x1="-0.411" y1="-11.911" x2="0.041" y2="-12.249" xlink:href="#linear-gradient-16"/>
    <linearGradient id="linear-gradient-22" x1="-116.603" y1="-132.921" x2="-116.159" y2="-133.266" xlink:href="#linear-gradient-16"/>
    <linearGradient id="linear-gradient-23" x1="-117.602" y1="-133.939" x2="-117.159" y2="-134.283" xlink:href="#linear-gradient-16"/>
    <linearGradient id="linear-gradient-24" x1="-118.602" y1="-134.956" x2="-118.159" y2="-135.3" xlink:href="#linear-gradient-16"/>
    <linearGradient id="linear-gradient-25" x1="-120.628" y1="-128.492" x2="-120.184" y2="-128.835" xlink:href="#linear-gradient-16"/>
    <linearGradient id="linear-gradient-26" x1="-121.628" y1="-129.507" x2="-121.184" y2="-129.851" xlink:href="#linear-gradient-16"/>
    <linearGradient id="linear-gradient-27" x1="-122.628" y1="-130.522" x2="-122.184" y2="-130.865" xlink:href="#linear-gradient-16"/>
    <linearGradient id="linear-gradient-28" x1="0.5" y1="1" x2="0.455" y2="-0.917" gradientUnits="objectBoundingBox">
      <stop offset="0" stop-color="#f8622d"/>
      <stop offset="1" stop-color="#c1272d"/>
    </linearGradient>
    <linearGradient id="linear-gradient-29" x1="0.5" y1="0" x2="0.465" y2="1.697" xlink:href="#linear-gradient-28"/>
    <linearGradient id="linear-gradient-30" x1="0.5" y1="0.28" x2="0.5" y2="1.306" gradientUnits="objectBoundingBox">
      <stop offset="0" stop-color="#b9dd39"/>
      <stop offset="1" stop-color="#618e0a"/>
    </linearGradient>
  </defs>
  <g id="turnonet_1_8_" data-name="turnonet_1 (8)" transform="translate(-19.042 -17.617)">
    <path id="Trazado_334" data-name="Trazado 334" d="M98.91,34.07a30.52,30.52,0,0,0-9.46,1.5,25.42,25.42,0,0,0-49,13.35A23.07,23.07,0,0,0,42.08,95H98.91a30.47,30.47,0,0,0,0-60.94Z" fill="url(#linear-gradient)"/>
    <path id="Trazado_335" data-name="Trazado 335" d="M68.44,64.54a29.479,29.479,0,0,0,.22,3.66A25.41,25.41,0,1,1,89.45,35.57a30.48,30.48,0,0,0-21,29Z" fill="url(#linear-gradient-2)"/>
    <path id="Trazado_336" data-name="Trazado 336" d="M19.18,74.81A23.07,23.07,0,0,0,42.08,95H98.91a30.482,30.482,0,0,0,28.7-20.206Z" fill="url(#linear-gradient-3)"/>
    <path id="Trazado_337" data-name="Trazado 337" d="M63.24,48.16h4.54V73.92H63.24Z" fill="url(#linear-gradient-4)"/>
    <path id="Trazado_338" data-name="Trazado 338" d="M71.92,32h4.54V73.92H71.92Z" fill="url(#linear-gradient-5)"/>
    <path id="Trazado_339" data-name="Trazado 339" d="M80.6,57.55h4.54V73.92H80.6Z" fill="url(#linear-gradient-6)"/>
    <path id="Trazado_340" data-name="Trazado 340" d="M56.65,87.68v4.54H37.29V87.68Z" fill="url(#linear-gradient-7)"/>
    <path id="Trazado_341" data-name="Trazado 341" d="M56.65,79.8v4.54H25.15V79.8Z" fill="url(#linear-gradient-8)"/>
    <path id="Trazado_342" data-name="Trazado 342" d="M91.39,87.68v4.54h16.43V87.68Z" fill="url(#linear-gradient-9)"/>
    <path id="Trazado_343" data-name="Trazado 343" d="M91.39,79.8v4.54h26.74V79.8Z" fill="url(#linear-gradient-10)"/>
    <path id="Trazado_344" data-name="Trazado 344" d="M60.18,125.69H37.34a2.17,2.17,0,0,1,0-4.33H60.18a3.22,3.22,0,0,0,3.22-3.22V107.78a2.17,2.17,0,0,1,4.33,0v10.36A7.56,7.56,0,0,1,60.18,125.69Z" fill="url(#linear-gradient-11)"/>
    <circle id="Elipse_16" data-name="Elipse 16" cx="4.55" cy="4.55" r="4.55" transform="translate(31.39 118.9)" fill="url(#linear-gradient-12)"/>
    <path id="Trazado_345" data-name="Trazado 345" d="M88.2,125.69H111a2.17,2.17,0,0,0,0-4.33H88.2a3.22,3.22,0,0,1-3.2-3.22V107.78a2.17,2.17,0,0,0-4.33,0v10.36A7.56,7.56,0,0,0,88.2,125.69Z" fill="url(#linear-gradient-13)"/>
    <circle id="Elipse_17" data-name="Elipse 17" cx="4.55" cy="4.55" r="4.55" transform="translate(107.89 118.9)" fill="url(#linear-gradient-14)"/>
    <path id="Trazado_346" data-name="Trazado 346" d="M74.19,128A2.16,2.16,0,0,1,72,125.84V107.78a2.16,2.16,0,0,1,4.32,0v18.06A2.16,2.16,0,0,1,74.19,128Z" fill="url(#linear-gradient-15)"/>
    <path id="Trazado_347" data-name="Trazado 347" d="M92.9,86H90.56a3.08,3.08,0,0,1-3.08-3.08V80.41a3.08,3.08,0,0,1,3.08-3.08H92.9A3.08,3.08,0,0,1,96,80.41v2.52A3.08,3.08,0,0,1,92.9,86Z" fill="url(#linear-gradient-16)"/>
    <path id="Trazado_348" data-name="Trazado 348" d="M92.9,94.69H90.56a3.08,3.08,0,0,1-3.08-3.08V89.09A3.08,3.08,0,0,1,90.56,86H92.9A3.08,3.08,0,0,1,96,89.09v2.52a3.08,3.08,0,0,1-3.1,3.08Z" fill="url(#linear-gradient-17)"/>
    <path id="Trazado_349" data-name="Trazado 349" d="M92.9,103.37H90.56a3.08,3.08,0,0,1-3.08-3.08V97.76a3.08,3.08,0,0,1,3.08-3.07H92.9A3.08,3.08,0,0,1,96,97.76v2.53a3.08,3.08,0,0,1-3.1,3.08Z" fill="url(#linear-gradient-18)"/>
    <path id="Trazado_350" data-name="Trazado 350" d="M57.82,86H55.48a3.08,3.08,0,0,1-3.08-3.08V80.41a3.08,3.08,0,0,1,3.08-3.08h2.34a3.08,3.08,0,0,1,3.08,3.08v2.52A3.08,3.08,0,0,1,57.82,86Z" fill="url(#linear-gradient-19)"/>
    <path id="Trazado_351" data-name="Trazado 351" d="M57.82,94.69H55.48a3.08,3.08,0,0,1-3.08-3.08V89.09A3.08,3.08,0,0,1,55.48,86h2.34a3.08,3.08,0,0,1,3.08,3.08V91.6a3.08,3.08,0,0,1-3.08,3.09Z" fill="url(#linear-gradient-20)"/>
    <path id="Trazado_352" data-name="Trazado 352" d="M57.82,103.37H55.48a3.08,3.08,0,0,1-3.08-3.08V97.76a3.08,3.08,0,0,1,3.08-3.07h2.34a3.08,3.08,0,0,1,3.08,3.07v2.53a3.08,3.08,0,0,1-3.08,3.08Z" fill="url(#linear-gradient-21)"/>
    <path id="Trazado_353" data-name="Trazado 353" d="M69.85,109.06v-2.34a3.08,3.08,0,0,0-3.08-3.08H64.25a3.08,3.08,0,0,0-3.08,3.08v2.34a3.08,3.08,0,0,0,3.08,3.08h2.52a3.08,3.08,0,0,0,3.08-3.08Z" fill="url(#linear-gradient-22)"/>
    <path id="Trazado_354" data-name="Trazado 354" d="M78.53,109.06v-2.34a3.08,3.08,0,0,0-3.08-3.08H72.93a3.08,3.08,0,0,0-3.08,3.08v2.34a3.08,3.08,0,0,0,3.08,3.08h2.52a3.08,3.08,0,0,0,3.08-3.08Z" fill="url(#linear-gradient-23)"/>
    <path id="Trazado_355" data-name="Trazado 355" d="M87.21,109.06v-2.34a3.08,3.08,0,0,0-3.08-3.08H81.61a3.08,3.08,0,0,0-3.08,3.08v2.34a3.08,3.08,0,0,0,3.08,3.08h2.52a3.08,3.08,0,0,0,3.08-3.08Z" fill="url(#linear-gradient-24)"/>
    <path id="Trazado_356" data-name="Trazado 356" d="M69.85,74V71.64a3.08,3.08,0,0,0-3.08-3.08H64.25a3.08,3.08,0,0,0-3.08,3.08V74a3.08,3.08,0,0,0,3.08,3.08h2.52A3.08,3.08,0,0,0,69.85,74Z" fill="url(#linear-gradient-25)"/>
    <path id="Trazado_357" data-name="Trazado 357" d="M78.53,74V71.64a3.08,3.08,0,0,0-3.08-3.08H72.93a3.08,3.08,0,0,0-3.08,3.08V74a3.08,3.08,0,0,0,3.08,3.08h2.52A3.08,3.08,0,0,0,78.53,74Z" fill="url(#linear-gradient-26)"/>
    <path id="Trazado_358" data-name="Trazado 358" d="M87.21,74V71.64a3.08,3.08,0,0,0-3.08-3.08H81.61a3.08,3.08,0,0,0-3.08,3.08V74a3.08,3.08,0,0,0,3.08,3.08h2.52A3.08,3.08,0,0,0,87.21,74Z" fill="url(#linear-gradient-27)"/>
    <path id="Trazado_359" data-name="Trazado 359" d="M86.63,107.54H61.75A4.75,4.75,0,0,1,57,102.79V77.9a4.76,4.76,0,0,1,4.76-4.75H86.63a4.76,4.76,0,0,1,4.76,4.75v24.89a4.75,4.75,0,0,1-4.76,4.75Z" fill="url(#linear-gradient-28)"/>
    <path id="Trazado_360" data-name="Trazado 360" d="M64.32,76.71H84.06a3.77,3.77,0,0,1,3.77,3.77v19.74A3.76,3.76,0,0,1,84.06,104H64.32a3.76,3.76,0,0,1-3.77-3.76V80.48a3.77,3.77,0,0,1,3.77-3.77Z" fill="url(#linear-gradient-29)"/>
    <path id="Trazado_361" data-name="Trazado 361" d="M81.94,101.06H66.44a3,3,0,0,1-3-3V82.6a3,3,0,0,1,3-3h15.5a3,3,0,0,1,3,3V98.1a3,3,0,0,1-3,2.96Z" fill="url(#linear-gradient-30)"/>
  </g>
</svg>
