<svg xmlns="http://www.w3.org/2000/svg" width="1083.789" height="335" viewBox="0 0 1083.789 335">
  <g id="Grupo_646" data-name="Grupo 646" transform="translate(-331 -3000)">
    <g id="Grupo_645" data-name="Grupo 645" transform="translate(331 3000)">
      <g id="Grupo_616" data-name="Grupo 616" transform="translate(839.693 36.906)">
        <g id="Grupo_606" data-name="Grupo 606" transform="translate(25.488 135.483)">
          <path id="Trazado_430" data-name="Trazado 430" d="M541.475-40.4c-.982-23.3-3.133-53.2-7.814-62.077-8-15.184-54.168-16.63-61.554-28.921s-6.156-34.708-6.156-34.708l-20.929.724-20.928-.724s1.23,22.415-6.156,34.708-53.554,13.738-61.556,28.921c-4.68,8.881-6.832,38.778-7.812,62.077Z" transform="translate(-348.571 166.103)" fill="#ffd7c5"/>
          <path id="Trazado_431" data-name="Trazado 431" d="M447.466-127.916a12.053,12.053,0,0,1-3.458-3.479c-7.388-12.293-6.156-34.708-6.156-34.708l-20.929.724L396-166.1s.832,15.447-3.111,27.729C403.341-131.92,425.266-121.239,447.466-127.916Z" transform="translate(-320.473 166.103)" fill="#fcbca9"/>
        </g>
        <g id="Grupo_610" data-name="Grupo 610" transform="translate(49.82 11.767)">
          <g id="Grupo_609" data-name="Grupo 609" transform="translate(0 66.284)">
            <g id="Grupo_607" data-name="Grupo 607">
              <path id="Trazado_432" data-name="Trazado 432" d="M382.215-198.065s-9.288-7.84-16.64,1.085c-6.126,7.44,2.2,22.547,10.512,27.361s11.378-.438,11.378-.438Z" transform="translate(-363.461 201.249)" fill="#ffd7c5"/>
              <path id="Trazado_433" data-name="Trazado 433" d="M380.738-186.962s-5.437-10.329-12.231-10.6,5.708,2.175,5.164,6.795-5.979,8.7-2.989,8.427,5.708-5.981,7.067-2.99,3.262,5.165,3.262,3.535S380.738-186.962,380.738-186.962Z" transform="translate(-361.548 203.575)" fill="#d99885"/>
            </g>
            <g id="Grupo_608" data-name="Grupo 608" transform="translate(120.235)">
              <path id="Trazado_434" data-name="Trazado 434" d="M442.293-198.065s9.288-7.84,16.638,1.085c6.126,7.44-2.2,22.547-10.512,27.361s-11.378-.438-11.378-.438Z" transform="translate(-437.041 201.249)" fill="#ffd1c1"/>
              <path id="Trazado_496" data-name="Trazado 496" d="M440.092-186.962s5.437-10.329,12.231-10.6-5.708,2.175-5.164,6.795,5.979,8.7,2.99,8.427-5.709-5.981-7.067-2.99-3.262,5.165-3.262,3.535S440.092-186.962,440.092-186.962Z" transform="translate(-434.416 203.575)" fill="#d99885"/>
            </g>
          </g>
          <path id="Trazado_436" data-name="Trazado 436" d="M429.976-241.813c-35.388,1.311-58.108,24.029-57.67,41.942.458,18.787,2.621,70.777,20.1,89.564A76.354,76.354,0,0,0,407.13-97.993a42.294,42.294,0,0,0,45.692,0,76.407,76.407,0,0,0,14.728-12.314c17.475-18.787,19.638-70.777,20.1-89.564C488.084-217.784,465.365-240.5,429.976-241.813Z" transform="translate(-357.857 241.813)" fill="#ffd7c5"/>
          <path id="Trazado_437" data-name="Trazado 437" d="M423.228-241.813c-16.022.593-29.41,5.6-39.265,12.533-.655,5.293-1.021,8.646-1.021,8.646s16.422,33.809,43.471,32.843,36.708,12.558,31.878,46.369c-4.111,28.778-22.964,46.983-53.488,45.831a42.24,42.24,0,0,0,41.272-2.4A76.406,76.406,0,0,0,460.8-110.307c17.475-18.787,19.638-70.777,20.1-89.564C481.336-217.784,458.618-240.5,423.228-241.813Z" transform="translate(-351.109 241.813)" fill="#feccc0"/>
        </g>
        <g id="Grupo_612" data-name="Grupo 612" transform="translate(0 170.272)">
          <path id="Trazado_438" data-name="Trazado 438" d="M569.017-53.9a8.052,8.052,0,0,0,7.958-9.277c-3.257-21.305-9.571-45.122-21.812-55.037-19.261-15.6-53.72-23.822-67.45-26.6-2.083,15.594-23.111,35.04-32.8,35.04s-30.716-19.446-32.8-35.04c-13.73,2.781-48.189,11-67.45,26.6-11.948,9.679-18.249,32.6-21.571,53.506A9.363,9.363,0,0,0,342.357-53.9Z" transform="translate(-332.973 144.813)" fill="#ff641a"/>
          <g id="Grupo_611" data-name="Grupo 611" transform="translate(28.454)">
            <path id="Trazado_439" data-name="Trazado 439" d="M375.219-76.694c-2.7-17.86-7.7-41.138-11.654-28.616-2.471,7.824-9.463,18.526-13.179,28.616Z" transform="translate(-350.386 167.611)" fill="#ef5518"/>
            <path id="Trazado_440" data-name="Trazado 440" d="M496.3-118.21c-19.261-15.6-53.72-23.822-67.45-26.6a29.265,29.265,0,0,1-3.038,9.148c12.314,3.458,32.775,11.852,36.757,30.057,5.272,24.1-18.264,31.737-19.9,51.712h67.484a8.052,8.052,0,0,0,7.958-9.277C514.851-84.478,508.538-108.295,496.3-118.21Z" transform="translate(-302.561 144.813)" fill="#ef5518"/>
          </g>
        </g>
        <path id="Trazado_441" data-name="Trazado 441" d="M378.282-149.617a35.621,35.621,0,0,0,2.2,6.7,18.1,18.1,0,0,1,.547-7.054c1.088-5.128,1.523-10.344,2.258-15.537.595-4.2-.346-8.394-.346-12.674,0-15.5,13.9-25.66,13.9-28.333s10.692,13.9,32.611,14.434c8.891.217,17.375-2.636,25.389-6.227,7.059-3.165,14.5-7.468,22.357-7.943a90.259,90.259,0,0,0,1.815,35.724c1.477,5.767,3.943,12.105,4.271,18.06.046.848.028,1.7.056,2.548a23.579,23.579,0,0,0,1.191,6.678c-.4-1.208.536-3.468.786-4.673a33.3,33.3,0,0,0,.557-4.888,65.042,65.042,0,0,1,1.574-11.43c1.858-7.672,5.085-15.012,5.085-23.036,0-9.623-2.673-17.107-2.139-24.591s7.486-13.365,2.673-22.988-7.484,1.069-25.66-1.6-20.315-9.621-45.442-12.295-30.471,15.5-32.075,17.641-12.295-2.139-19.245,13.9c-3.234,7.461-2.216,16.735-1.245,24.557a253.969,253.969,0,0,0,5.356,27.544c.7,2.928,1.449,5.847,2.09,8.788C377.313-154.167,377.743-151.875,378.282-149.617Z" transform="translate(-310.483 249.014)" fill="#352218"/>
        <g id="Grupo_613" data-name="Grupo 613" transform="translate(93.515 87.25)">
          <path id="Trazado_442" data-name="Trazado 442" d="M398.679-190.384c0,2.892-1.9,5.236-4.239,5.236s-4.239-2.343-4.239-5.236,1.9-5.236,4.239-5.236S398.679-193.277,398.679-190.384Z" transform="translate(-390.201 195.62)" fill="#352218"/>
          <path id="Trazado_443" data-name="Trazado 443" d="M427.869-190.384c0,2.892-1.9,5.236-4.239,5.236s-4.239-2.343-4.239-5.236,1.9-5.236,4.239-5.236S427.869-193.277,427.869-190.384Z" transform="translate(-371.692 195.62)" fill="#352218"/>
        </g>
        <path id="Trazado_444" data-name="Trazado 444" d="M410.138-193.705s-2.508,3.451,1.255,10.664,7.213,11.919,5.018,14.427-8.154,4.7-7.84,3.763,5.154-3.7,2.644-10.283S404.491-187.445,410.138-193.705Z" transform="translate(-285.823 284.084)" fill="#d99885"/>
        <path id="Trazado_445" data-name="Trazado 445" d="M385.99-192.93s3.935-12.692,14.22-10.811c3.641.665,4.079,4.615-3.626,4.853C391.789-198.739,385.99-192.93,385.99-192.93Z" transform="translate(-299.356 277.6)" fill="#352218"/>
        <path id="Trazado_446" data-name="Trazado 446" d="M434.66-192.178s-2.891-12.97-13.293-11.93c-3.683.368-4.44,4.268,3.219,5.133C429.352-198.439,434.66-192.178,434.66-192.178Z" transform="translate(-278.634 277.45)" fill="#352218"/>
        <g id="Grupo_615" data-name="Grupo 615" transform="translate(106.371 128.258)">
          <g id="Grupo_614" data-name="Grupo 614">
            <path id="Trazado_447" data-name="Trazado 447" d="M413.808-166.4a44.713,44.713,0,0,1-15.154-2.348.918.918,0,0,1-.521-1.191.922.922,0,0,1,1.19-.523c.129.049,12.994,4.922,30.046-.026a.921.921,0,0,1,1.141.628.923.923,0,0,1-.629,1.141A57.642,57.642,0,0,1,413.808-166.4Z" transform="translate(-398.069 170.524)" fill="#c47f6e"/>
          </g>
          <path id="Trazado_448" data-name="Trazado 448" d="M404.048-165.335a18.186,18.186,0,0,0,12.935,0S410.767-158.072,404.048-165.335Z" transform="translate(-394.277 173.814)" fill="#c47f6e"/>
        </g>
      </g>
      <g id="Grupo_631" data-name="Grupo 631" transform="translate(0 41.769)">
        <g id="Grupo_628" data-name="Grupo 628">
          <path id="Trazado_449" data-name="Trazado 449" d="M-114.056-229.18s-15.333-3.834-27.377,27.925c-11.911,31.4,12.045,82.679,5.474,98.559s-32.3,21.9-30.662,23,26.282,26.282,86.513,36.687S10.237-68.2,10.237-68.2-14.4-87.365-6.736-131.168s9.61-79.954-17.932-102S-107.485-245.605-114.056-229.18Z" transform="translate(189.892 246.037)" fill="#271214"/>
          <g id="Grupo_617" data-name="Grupo 617" transform="translate(24.764 133.049)">
            <path id="Trazado_450" data-name="Trazado 450" d="M15.976-46.2c-.925-21.946-2.951-50.109-7.36-58.474-7.538-14.3-51.026-15.666-57.984-27.245s-5.8-32.693-5.8-32.693l-19.713.68-19.715-.68s1.16,21.114-5.8,32.693-50.446,12.94-57.984,27.245c-4.409,8.365-6.437,36.528-7.36,58.474Z" transform="translate(165.736 164.616)" fill="#e9b19d"/>
            <path id="Trazado_451" data-name="Trazado 451" d="M-123.555-140.964c11.256,8.049,27.952,15.259,49.089,11.027a9.377,9.377,0,0,1-1.647-1.985c-6.958-11.579-5.8-32.693-5.8-32.693l-19.714.68-19.715-.68S-120.666-152.034-123.555-140.964Z" transform="translate(192.482 164.616)" fill="#d99885"/>
          </g>
          <g id="Grupo_621" data-name="Grupo 621" transform="translate(47.685 12.869)">
            <g id="Grupo_620" data-name="Grupo 620" transform="translate(0 66.812)">
              <g id="Grupo_618" data-name="Grupo 618">
                <path id="Trazado_452" data-name="Trazado 452" d="M-134.044-194.276s-8.749-7.384-15.674,1.023c-5.77,7.009,2.07,21.238,9.9,25.774s10.718-.413,10.718-.413Z" transform="translate(151.709 197.275)" fill="#e9b19d"/>
                <path id="Trazado_453" data-name="Trazado 453" d="M-135.435-183.816s-5.121-9.731-11.522-9.986,5.376,2.048,4.865,6.4-5.633,8.193-2.817,7.938,5.378-5.634,6.657-2.817,3.074,4.865,3.074,3.329S-135.435-183.816-135.435-183.816Z" transform="translate(153.511 199.465)" fill="#d99885"/>
              </g>
              <g id="Grupo_619" data-name="Grupo 619" transform="translate(113.258)">
                <path id="Trazado_454" data-name="Trazado 454" d="M-77.451-194.276s8.749-7.384,15.672,1.023c5.772,7.009-2.069,21.238-9.9,25.774s-10.72-.413-10.72-.413Z" transform="translate(82.399 197.275)" fill="#e4ae9d"/>
                <path id="Trazado_455" data-name="Trazado 455" d="M-79.525-183.816S-74.4-193.547-68-193.8s-5.378,2.048-4.866,6.4,5.634,8.193,2.817,7.938-5.378-5.634-6.657-2.817-3.072,4.865-3.072,3.329S-79.525-183.816-79.525-183.816Z" transform="translate(84.06 199.465)" fill="#d99885"/>
              </g>
            </g>
            <path id="Trazado_456" data-name="Trazado 456" d="M-89.053-238.162c-33.335,1.235-54.737,22.635-54.325,39.509.431,17.7,2.469,66.672,18.931,84.369a71.916,71.916,0,0,0,13.873,11.6,39.839,39.839,0,0,0,43.042,0,71.96,71.96,0,0,0,13.872-11.6c16.462-17.7,18.5-66.672,18.932-84.369C-34.318-215.527-55.718-236.927-89.053-238.162Z" transform="translate(156.988 238.162)" fill="#edbba5"/>
            <path id="Trazado_457" data-name="Trazado 457" d="M-55.524-114.284c16.462-17.7,18.5-66.672,18.931-84.369.412-16.873-20.988-38.273-54.323-39.509-23.828.882-41.5,12.076-49.529,24.545a39.169,39.169,0,0,0,12.321,9.956s51.98-2.345,64.731,30.023-.98,59.343-17.655,68.17c-10.017,5.3-24.774,2.992-34.992.306,1.214.887,2.418,1.717,3.6,2.476a39.839,39.839,0,0,0,43.042,0A71.96,71.96,0,0,0-55.524-114.284Z" transform="translate(158.852 238.162)" fill="#e4ae9d"/>
          </g>
          <g id="Grupo_623" data-name="Grupo 623" transform="translate(0 165.819)">
            <path id="Trazado_458" data-name="Trazado 458" d="M45.888-58.92a4.4,4.4,0,0,0,4.365-5c-2.889-20.947-8.837-45.656-21.089-55.581-18.143-14.7-50.6-22.439-63.536-25.06-1.963,14.689-15.032,51.084-30.9,51.084s-28.935-36.4-30.9-51.084c-12.935,2.621-45.395,10.362-63.538,25.06-12.336,9.992-18.282,34.974-21.148,56.011a4.024,4.024,0,0,0,3.987,4.571Z" transform="translate(180.891 144.562)" fill="#fff"/>
            <g id="Grupo_622" data-name="Grupo 622" transform="translate(39.502)">
              <path id="Trazado_459" data-name="Trazado 459" d="M-144.169-79.4c-4.531-18.588-9.476-38.268-10.27-31.5-.775,6.572-1.789,20.477-2.278,31.5Z" transform="translate(156.717 165.041)" fill="#e6e6e6"/>
              <path id="Trazado_460" data-name="Trazado 460" d="M-10.531-58.92a4.4,4.4,0,0,0,4.365-5C-9.056-84.868-15-109.576-27.256-119.5c-18.143-14.7-50.6-22.439-63.536-25.06-.227,1.7-.61,3.7-1.121,5.894,12.715,1.618,33.711,7.5,34.984,28.706,1.592,26.542-11.118,32.33-18.88,51.042Z" transform="translate(197.808 144.562)" fill="#e6e6e6"/>
            </g>
          </g>
          <path id="Trazado_461" data-name="Trazado 461" d="M-138.988-161.672s18.392-20.182,16.535-35.4c0,0,8.571,24.23,87.993,29.886,0,0,7.968-19.357,7.224-31.61S-46.169-244.1-81.812-242.239s-56.8,18.934-63.116,34.9S-138.988-161.672-138.988-161.672Z" transform="translate(202.549 248.398)" fill="#271214"/>
          <g id="Grupo_624" data-name="Grupo 624" transform="translate(87.149 89.932)">
            <ellipse id="Elipse_20" data-name="Elipse 20" cx="3.993" cy="4.932" rx="3.993" ry="4.932" fill="#271214"/>
            <path id="Trazado_462" data-name="Trazado 462" d="M-92.075-186.07c0,2.724-1.788,4.933-3.994,4.933s-3.992-2.209-3.992-4.933S-98.275-191-96.069-191-92.075-188.794-92.075-186.07Z" transform="translate(144.994 191.002)" fill="#271214"/>
          </g>
          <path id="Trazado_463" data-name="Trazado 463" d="M-108.777-189.2s-2.365,3.25,1.181,10.046,6.794,11.226,4.726,13.589-7.68,4.432-7.386,3.546,4.856-3.484,2.492-9.688S-114.1-183.3-108.777-189.2Z" transform="translate(224.941 282.078)" fill="#d99885"/>
          <g id="Grupo_625" data-name="Grupo 625" transform="translate(77.62 76.944)">
            <path id="Trazado_464" data-name="Trazado 464" d="M-133.39-188.1s1.2-10.546,16.431-10.852c3.485-.069,3.775,4.407-3.487,4.52C-124.965-194.36-133.39-188.1-133.39-188.1Z" transform="translate(133.39 198.95)" fill="#271214"/>
          </g>
          <g id="Grupo_626" data-name="Grupo 626" transform="translate(129.557 76.714)">
            <path id="Trazado_465" data-name="Trazado 465" d="M-83.219-187.518s-.732-10.59-15.936-11.564c-3.481-.224-3.966,4.236,3.283,4.667C-91.36-194.146-83.219-187.518-83.219-187.518Z" transform="translate(101.606 199.091)" fill="#271214"/>
          </g>
          <g id="Grupo_627" data-name="Grupo 627" transform="translate(102.621 124.623)">
            <path id="Trazado_466" data-name="Trazado 466" d="M-118.064-168.107a1.384,1.384,0,0,1,1.355-1.665c4.956.016,20.7,1.257,20.705,3.033,0,2.1-4.768,9.543-13.971,6.881C-116.257-161.675-117.662-166-118.064-168.107Z" transform="translate(118.09 169.772)" fill="#ba3c54"/>
            <path id="Trazado_467" data-name="Trazado 467" d="M-111.014-161.749a11.432,11.432,0,0,0,9.67-1.129c-6.169-6.144-12.4-3.616-15.109-1.976A12.017,12.017,0,0,0-111.014-161.749Z" transform="translate(119.129 171.663)" fill="#da677d"/>
            <path id="Trazado_468" data-name="Trazado 468" d="M-98.674-166.719A8.111,8.111,0,0,0-98-167.6c-3.685-1.258-14.5-2.1-18.949-2.167.1.6.786,1.36,3.683,2.164C-108.43-166.264-99.924-165.3-98.674-166.719Z" transform="translate(118.814 169.775)" fill="#fff"/>
          </g>
        </g>
        <g id="Grupo_630" data-name="Grupo 630" transform="translate(75.84 153.307)">
          <g id="Grupo_629" data-name="Grupo 629" transform="translate(60.436 35.872)">
            <path id="Trazado_469" data-name="Trazado 469" d="M-96.932-88.445s6.755,4.775,10.371,2.271,17.46-25.51,17.46-25.51" transform="translate(97.852 142.049)" fill="none" stroke="#e3e3e3" stroke-miterlimit="10" stroke-width="1.079"/>
            <path id="Trazado_470" data-name="Trazado 470" d="M-95.526-96.959c-.448.654-1.178.933-1.629.624s-.453-1.09,0-1.745,1.178-.933,1.629-.624S-95.077-97.614-95.526-96.959Z" transform="translate(97.495 150.199)" fill="#e3e3e3"/>
            <path id="Trazado_471" data-name="Trazado 471" d="M-72.76-84.373s-7.672,3.095-10.615-.173-11.133-28.837-11.133-28.837" transform="translate(99.389 140.971)" fill="none" stroke="#e3e3e3" stroke-miterlimit="10" stroke-width="1.079"/>
            <path id="Trazado_472" data-name="Trazado 472" d="M-81.72-95.318c.288.74.933,1.18,1.443.982s.691-.958.405-1.7-.931-1.18-1.441-.982S-82.006-96.059-81.72-95.318Z" transform="translate(107.411 151.32)" fill="#e3e3e3"/>
            <path id="Trazado_473" data-name="Trazado 473" d="M-94.128-102.68s-6.633-29.915,14.615-27.441S-70.257-99.9-70.257-99.9" transform="translate(99.008 130.266)" fill="none" stroke="#00b000" stroke-miterlimit="10" stroke-width="2"/>
          </g>
          <path id="Trazado_474" data-name="Trazado 474" d="M-78.563-114.448s6.5-42.43-18.583-37.348" transform="translate(158.151 152.219)" fill="none" stroke="#00b000" stroke-miterlimit="10" stroke-width="2"/>
          <path id="Trazado_475" data-name="Trazado 475" d="M-122.936-68.521s-30.039-87.6,6.8-82.8" transform="translate(134.479 152.669)" fill="none" stroke="#00b000" stroke-miterlimit="10" stroke-width="2"/>
          <path id="Trazado_476" data-name="Trazado 476" d="M-111.49-98.506a11.13,11.13,0,0,1-8.966,12.939,11.132,11.132,0,0,1-12.939-8.968,11.132,11.132,0,0,1,8.966-12.939A11.132,11.132,0,0,1-111.49-98.506Z" transform="translate(135.052 180.476)" fill="#e3e3e3"/>
          <path id="Trazado_477" data-name="Trazado 477" d="M-118.855-99.632a5.765,5.765,0,0,1-4.642,6.7,5.763,5.763,0,0,1-6.7-4.642,5.761,5.761,0,0,1,4.642-6.7A5.765,5.765,0,0,1-118.855-99.632Z" transform="translate(137.136 182.559)" fill="#d7d7d7"/>
        </g>
      </g>
      <g id="Grupo_642" data-name="Grupo 642" transform="translate(414.041 0)">
        <g id="Grupo_632" data-name="Grupo 632" transform="translate(23.97 316.559)">
          <ellipse id="Elipse_21" data-name="Elipse 21" cx="104.76" cy="9.221" rx="104.76" ry="9.221" transform="translate(0 0)" fill="#cdd9fc" opacity="0.43" style="mix-blend-mode: multiply;isolation: isolate"/>
        </g>
        <g id="Grupo_641" data-name="Grupo 641" transform="translate(0)">
          <g id="Grupo_633" data-name="Grupo 633" transform="translate(47.182)">
            <rect id="Rectángulo_115" data-name="Rectángulo 115" width="161.083" height="325.779" rx="16.123" fill="#ccc"/>
            <rect id="Rectángulo_116" data-name="Rectángulo 116" width="142.615" height="309.9" rx="19.889" transform="translate(9.236 7.938)" fill="#fff"/>
            <rect id="Rectángulo_117" data-name="Rectángulo 117" width="50.027" height="1.96" rx="0.6" transform="translate(52.961 303.311)" fill="#ccc" opacity="0.3" style="mix-blend-mode: multiply;isolation: isolate"/>
            <path id="Trazado_478" data-name="Trazado 478" d="M125.759-269.018v4.479a9.04,9.04,0,0,0,9.028,9.051h63.3a9.04,9.04,0,0,0,9.028-9.051v-6.412Z" transform="translate(-85.893 272.01)" fill="#ccc"/>
            <path id="Trazado_479" data-name="Trazado 479" d="M168.621-266.029a1.347,1.347,0,0,1-1.346,1.346,1.347,1.347,0,0,1-1.348-1.346,1.347,1.347,0,0,1,1.348-1.346A1.347,1.347,0,0,1,168.621-266.029Z" transform="translate(-60.424 274.276)" fill="#999"/>
            <path id="Trazado_480" data-name="Trazado 480" d="M168.6-264.683H143.4a1.347,1.347,0,0,1-1.348-1.346h0a1.347,1.347,0,0,1,1.348-1.346h25.2a1.347,1.347,0,0,1,1.347,1.346h0A1.347,1.347,0,0,1,168.6-264.683Z" transform="translate(-75.563 274.276)" fill="#999"/>
          </g>
          <g id="Grupo_634" data-name="Grupo 634" transform="translate(71.338 30.503)">
            <rect id="Rectángulo_118" data-name="Rectángulo 118" width="118.204" height="102.716" rx="6.972" fill="#ccc" opacity="0.3" style="mix-blend-mode: multiply;isolation: isolate"/>
            <rect id="Rectángulo_119" data-name="Rectángulo 119" width="118.204" height="47.649" rx="6.972" transform="translate(0 114.884)" fill="#ccc" opacity="0.3" style="mix-blend-mode: multiply;isolation: isolate"/>
            <rect id="Rectángulo_120" data-name="Rectángulo 120" width="101.999" height="3.743" rx="1.145" transform="translate(0 243.373)" fill="#ccc" opacity="0.3" style="mix-blend-mode: multiply;isolation: isolate"/>
            <rect id="Rectángulo_121" data-name="Rectángulo 121" width="59.937" height="3.743" rx="1.145" transform="translate(0 250.858)" fill="#ccc" opacity="0.3" style="mix-blend-mode: multiply;isolation: isolate"/>
            <rect id="Rectángulo_122" data-name="Rectángulo 122" width="118.204" height="47.649" rx="6.972" transform="translate(0 186.462)" fill="#92aaf7" opacity="0.3" style="mix-blend-mode: multiply;isolation: isolate"/>
          </g>
          <g id="Grupo_637" data-name="Grupo 637" transform="translate(130.896 50.385)">
            <rect id="Rectángulo_123" data-name="Rectángulo 123" width="118.204" height="102.716" rx="6.972" transform="translate(4.076 4.964)" fill="#f15a24" opacity="0.3" style="mix-blend-mode: multiply;isolation: isolate"/>
            <rect id="Rectángulo_124" data-name="Rectángulo 124" width="118.204" height="102.716" rx="6.972" fill="#ffd7c7"/>
            <path id="Rectángulo_125" data-name="Rectángulo 125" d="M6.972,0h104.26A6.972,6.972,0,0,1,118.2,6.972v11.7a0,0,0,0,1,0,0H0a0,0,0,0,1,0,0V6.972A6.972,6.972,0,0,1,6.972,0Z" fill="#ff641a"/>
            <rect id="Rectángulo_126" data-name="Rectángulo 126" width="11.171" height="11.171" rx="1.811" transform="translate(10.025 26.473)" fill="#fff"/>
            <rect id="Rectángulo_127" data-name="Rectángulo 127" width="11.171" height="11.171" rx="1.811" transform="translate(24.522 26.473)" fill="#fff"/>
            <rect id="Rectángulo_128" data-name="Rectángulo 128" width="11.171" height="11.171" rx="1.811" transform="translate(39.02 26.473)" fill="#fff"/>
            <rect id="Rectángulo_129" data-name="Rectángulo 129" width="11.171" height="11.171" rx="1.811" transform="translate(53.517 26.473)" fill="#fff"/>
            <rect id="Rectángulo_130" data-name="Rectángulo 130" width="11.171" height="11.171" rx="1.811" transform="translate(68.014 26.473)" fill="#fff"/>
            <rect id="Rectángulo_131" data-name="Rectángulo 131" width="11.171" height="11.171" rx="1.811" transform="translate(82.511 26.473)" fill="#ccc"/>
            <rect id="Rectángulo_132" data-name="Rectángulo 132" width="11.171" height="11.171" rx="1.811" transform="translate(97.008 26.473)" fill="#ccc"/>
            <rect id="Rectángulo_133" data-name="Rectángulo 133" width="11.171" height="11.171" rx="1.811" transform="translate(10.025 40.813)" fill="#fff"/>
            <rect id="Rectángulo_134" data-name="Rectángulo 134" width="11.171" height="11.171" rx="1.811" transform="translate(24.522 40.813)" fill="#fff"/>
            <rect id="Rectángulo_135" data-name="Rectángulo 135" width="11.171" height="11.171" rx="1.811" transform="translate(39.02 40.813)" fill="#fff"/>
            <rect id="Rectángulo_136" data-name="Rectángulo 136" width="11.171" height="11.171" rx="1.811" transform="translate(53.517 40.813)" fill="#fff"/>
            <rect id="Rectángulo_137" data-name="Rectángulo 137" width="11.171" height="11.171" rx="1.811" transform="translate(68.014 40.813)" fill="#fff"/>
            <rect id="Rectángulo_138" data-name="Rectángulo 138" width="11.171" height="11.171" rx="1.811" transform="translate(82.511 40.813)" fill="#ccc"/>
            <rect id="Rectángulo_139" data-name="Rectángulo 139" width="11.171" height="11.171" rx="1.811" transform="translate(97.008 40.813)" fill="#ccc"/>
            <rect id="Rectángulo_140" data-name="Rectángulo 140" width="11.171" height="11.171" rx="1.811" transform="translate(10.025 55.152)" fill="#fff"/>
            <path id="Rectángulo_141" data-name="Rectángulo 141" d="M1.811,0H9.36a1.811,1.811,0,0,1,1.811,1.811V9.36a1.81,1.81,0,0,1-1.81,1.81H1.811A1.811,1.811,0,0,1,0,9.36V1.811A1.811,1.811,0,0,1,1.811,0Z" transform="translate(24.522 55.152)" fill="#00b000"/>
            <path id="Rectángulo_142" data-name="Rectángulo 142" d="M1.811,0H9.36a1.811,1.811,0,0,1,1.811,1.811V9.36a1.81,1.81,0,0,1-1.81,1.81H1.811A1.811,1.811,0,0,1,0,9.36V1.811A1.811,1.811,0,0,1,1.811,0Z" transform="translate(39.02 55.152)" fill="#fff"/>
            <rect id="Rectángulo_143" data-name="Rectángulo 143" width="11.171" height="11.171" rx="1.811" transform="translate(53.517 55.152)" fill="#fff"/>
            <rect id="Rectángulo_144" data-name="Rectángulo 144" width="11.171" height="11.171" rx="1.811" transform="translate(68.014 55.152)" fill="#fff"/>
            <rect id="Rectángulo_145" data-name="Rectángulo 145" width="11.171" height="11.171" rx="1.811" transform="translate(82.511 55.152)" fill="#ccc"/>
            <path id="Rectángulo_146" data-name="Rectángulo 146" d="M1.811,0H9.36a1.811,1.811,0,0,1,1.811,1.811V9.36a1.81,1.81,0,0,1-1.81,1.81H1.811A1.811,1.811,0,0,1,0,9.36V1.811A1.811,1.811,0,0,1,1.811,0Z" transform="translate(97.008 55.152)" fill="#ccc"/>
            <rect id="Rectángulo_147" data-name="Rectángulo 147" width="11.171" height="11.171" rx="1.811" transform="translate(10.025 69.492)" fill="#fff"/>
            <path id="Rectángulo_148" data-name="Rectángulo 148" d="M1.81,0H9.36a1.811,1.811,0,0,1,1.811,1.811V9.36A1.811,1.811,0,0,1,9.36,11.171H1.811A1.811,1.811,0,0,1,0,9.36V1.81A1.81,1.81,0,0,1,1.81,0Z" transform="translate(24.522 69.492)" fill="#fff"/>
            <path id="Rectángulo_149" data-name="Rectángulo 149" d="M1.81,0H9.36a1.811,1.811,0,0,1,1.811,1.811V9.36A1.811,1.811,0,0,1,9.36,11.171H1.811A1.811,1.811,0,0,1,0,9.36V1.81A1.81,1.81,0,0,1,1.81,0Z" transform="translate(39.02 69.492)" fill="#fff"/>
            <rect id="Rectángulo_150" data-name="Rectángulo 150" width="11.171" height="11.171" rx="1.811" transform="translate(53.517 69.492)" fill="#fff"/>
            <rect id="Rectángulo_151" data-name="Rectángulo 151" width="11.171" height="11.171" rx="1.811" transform="translate(68.014 69.492)" fill="#fff"/>
            <rect id="Rectángulo_152" data-name="Rectángulo 152" width="11.171" height="11.171" rx="1.811" transform="translate(82.511 69.492)" fill="#ccc"/>
            <path id="Rectángulo_153" data-name="Rectángulo 153" d="M1.81,0H9.36a1.811,1.811,0,0,1,1.811,1.811V9.36A1.811,1.811,0,0,1,9.36,11.171H1.811A1.811,1.811,0,0,1,0,9.36V1.81A1.81,1.81,0,0,1,1.81,0Z" transform="translate(97.008 69.492)" fill="#ccc"/>
            <rect id="Rectángulo_154" data-name="Rectángulo 154" width="11.171" height="11.171" rx="1.811" transform="translate(10.025 83.831)" fill="#fff"/>
            <path id="Rectángulo_155" data-name="Rectángulo 155" d="M1.811,0H9.36a1.811,1.811,0,0,1,1.811,1.811V9.36a1.81,1.81,0,0,1-1.81,1.81H1.811A1.811,1.811,0,0,1,0,9.36V1.811A1.811,1.811,0,0,1,1.811,0Z" transform="translate(24.522 83.831)" fill="#fff"/>
            <path id="Rectángulo_156" data-name="Rectángulo 156" d="M1.811,0H9.36a1.811,1.811,0,0,1,1.811,1.811V9.36a1.81,1.81,0,0,1-1.81,1.81H1.811A1.811,1.811,0,0,1,0,9.36V1.811A1.811,1.811,0,0,1,1.811,0Z" transform="translate(39.02 83.831)" fill="#fff"/>
            <rect id="Rectángulo_157" data-name="Rectángulo 157" width="11.171" height="11.171" rx="1.811" transform="translate(53.517 83.831)" fill="#fff"/>
            <rect id="Rectángulo_158" data-name="Rectángulo 158" width="11.171" height="11.171" rx="1.811" transform="translate(68.014 83.831)" fill="#fff"/>
            <rect id="Rectángulo_159" data-name="Rectángulo 159" width="11.171" height="11.171" rx="1.811" transform="translate(82.511 83.831)" fill="#ccc"/>
            <path id="Rectángulo_160" data-name="Rectángulo 160" d="M1.811,0H9.36a1.811,1.811,0,0,1,1.811,1.811V9.36a1.81,1.81,0,0,1-1.81,1.81H1.811A1.811,1.811,0,0,1,0,9.36V1.811A1.811,1.811,0,0,1,1.811,0Z" transform="translate(97.008 83.831)" fill="#ccc"/>
            <g id="Grupo_635" data-name="Grupo 635" transform="translate(20.538 6.893)">
              <path id="Trazado_481" data-name="Trazado 481" d="M167.837-231.193l-2.677-2.677,2.677-2.677" transform="translate(-165.161 236.547)" fill="none" stroke="#fff" stroke-linecap="round" stroke-miterlimit="10" stroke-width="0.829"/>
            </g>
            <g id="Grupo_636" data-name="Grupo 636" transform="translate(94.99 6.893)">
              <path id="Trazado_482" data-name="Trazado 482" d="M210.723-231.193l2.677-2.677-2.677-2.677" transform="translate(-210.723 236.547)" fill="none" stroke="#fff" stroke-linecap="round" stroke-miterlimit="10" stroke-width="0.829"/>
            </g>
            <path id="Trazado_483" data-name="Trazado 483" d="M221.491-230.07H176.083a3.135,3.135,0,0,1-3.134-3.134h0a3.133,3.133,0,0,1,3.134-3.133h45.408a3.132,3.132,0,0,1,3.133,3.133h0A3.133,3.133,0,0,1,221.491-230.07Z" transform="translate(-139.685 243.572)" fill="#fff"/>
          </g>
          <g id="Grupo_638" data-name="Grupo 638" transform="translate(71.794 216.965)">
            <rect id="Rectángulo_161" data-name="Rectángulo 161" width="118.204" height="47.649" rx="6.972" fill="#b3b3b3"/>
            <path id="Trazado_484" data-name="Trazado 484" d="M216.243-127.187H126.029a2.683,2.683,0,0,1-2.683-2.685h0a2.683,2.683,0,0,1,2.683-2.683h90.214a2.683,2.683,0,0,1,2.685,2.683h0A2.684,2.684,0,0,1,216.243-127.187Z" transform="translate(-112.035 142.798)" fill="#fff"/>
            <path id="Trazado_485" data-name="Trazado 485" d="M216.243-120.518H126.029a2.683,2.683,0,0,1-2.683-2.683h0a2.683,2.683,0,0,1,2.683-2.685h90.214a2.684,2.684,0,0,1,2.685,2.685h0A2.683,2.683,0,0,1,216.243-120.518Z" transform="translate(-112.035 147.026)" fill="#fff"/>
            <path id="Trazado_486" data-name="Trazado 486" d="M157.876-113.849H126.029a2.683,2.683,0,0,1-2.683-2.683h0a2.683,2.683,0,0,1,2.683-2.685h31.846a2.683,2.683,0,0,1,2.683,2.685h0A2.683,2.683,0,0,1,157.876-113.849Z" transform="translate(-112.035 151.255)" fill="#fff"/>
          </g>
          <rect id="Rectángulo_162" data-name="Rectángulo 162" width="118.204" height="47.649" rx="4.456" transform="translate(3.877 161.929)" fill="#92aaf7" opacity="0.3" style="mix-blend-mode: multiply;isolation: isolate"/>
          <g id="Grupo_640" data-name="Grupo 640" transform="translate(0 158.065)">
            <rect id="Rectángulo_163" data-name="Rectángulo 163" width="118.204" height="47.649" rx="6.972" fill="#a0d227"/>
            <path id="Trazado_487" data-name="Trazado 487" d="M140.977-163.232H82.095a2.686,2.686,0,0,1-2.685-2.685h0a2.684,2.684,0,0,1,2.685-2.683h58.882a2.684,2.684,0,0,1,2.685,2.683h0A2.686,2.686,0,0,1,140.977-163.232Z" transform="translate(-68.099 178.843)" fill="#fff"/>
            <path id="Trazado_488" data-name="Trazado 488" d="M140.977-156.563H82.095a2.685,2.685,0,0,1-2.685-2.685h0a2.684,2.684,0,0,1,2.685-2.683h58.882a2.684,2.684,0,0,1,2.685,2.683h0A2.685,2.685,0,0,1,140.977-156.563Z" transform="translate(-68.099 183.072)" fill="#fff"/>
            <path id="Trazado_489" data-name="Trazado 489" d="M113.94-149.894H82.095a2.685,2.685,0,0,1-2.685-2.685h0a2.684,2.684,0,0,1,2.685-2.683H113.94a2.684,2.684,0,0,1,2.685,2.683h0A2.685,2.685,0,0,1,113.94-149.894Z" transform="translate(-68.099 187.3)" fill="#fff"/>
            <g id="Grupo_639" data-name="Grupo 639" transform="translate(85.731 10.243)">
              <g id="Trazado_490" data-name="Trazado 490" transform="translate(-124.953 170.039)" fill="#a0d227" stroke-linecap="round" stroke-linejoin="round">
                <path d="M 147.8409881591797 -147.4931030273438 L 144.7359924316406 -147.5129852294922 L 124.9522705078125 -147.529296875 L 121.8596572875977 -147.5318450927734 L 124.4491195678711 -149.1487579345703 C 124.5197601318359 -149.2038726806641 125.1531524658203 -149.7232666015625 125.7834320068359 -151.0746612548828 C 126.409912109375 -152.4179229736328 127.1567153930664 -154.8679046630859 127.1567153930664 -158.9112701416016 C 127.1567153930664 -160.859130859375 127.9369201660156 -162.8936462402344 129.2972869873047 -164.4931640625 C 130.7916870117188 -166.2502593994141 132.7615509033203 -167.2179412841797 134.8440246582031 -167.2179412841797 C 136.9271850585938 -167.2179412841797 138.8975524902344 -166.2502746582031 140.3921813964844 -164.4932250976563 C 141.7527160644531 -162.893798828125 142.5330200195313 -160.8592529296875 142.5330200195313 -158.9112701416016 C 142.5330200195313 -154.8665313720703 143.2803497314453 -152.4118347167969 143.9072875976563 -151.0648498535156 C 144.5386657714844 -149.7083282470703 145.1732177734375 -149.1855316162109 145.2432098388672 -149.1306457519531 L 147.8409881591797 -147.4931030273438 Z" stroke="none"/>
                <path d="M 134.8440246582031 -166.3299865722656 C 130.9222717285156 -166.3299865722656 128.0446624755859 -162.3706207275391 128.0446624755859 -158.9112701416016 C 128.0446624755859 -150.5072479248047 124.9530029296875 -148.4172515869141 124.9530029296875 -148.4172515869141 L 144.7367248535156 -148.4009246826172 C 144.7367248535156 -148.4009246826172 141.6450653076172 -150.5072479248047 141.6450653076172 -158.9112701416016 C 141.6450653076172 -162.3706207275391 138.7674560546875 -166.3299865722656 134.8440246582031 -166.3299865722656 M 134.8440246582031 -168.1058807373047 C 137.1918487548828 -168.1058807373047 139.4024200439453 -167.0272064208984 141.0685272216797 -165.0685424804688 C 142.5635375976563 -163.31103515625 143.4209594726563 -161.0668029785156 143.4209594726563 -158.9112701416016 C 143.4209594726563 -155.1602325439453 144.079833984375 -152.8736114501953 144.6325531005859 -151.6158905029297 C 145.141845703125 -150.4570007324219 145.6497955322266 -149.9559173583984 145.7651977539063 -149.8517150878906 C 146.4404602050781 -149.4447326660156 146.7132263183594 -148.6710205078125 146.507568359375 -147.9052886962891 C 146.2991943359375 -147.1293792724609 145.5401916503906 -146.6250305175781 144.7368469238281 -146.6250305175781 C 144.7362976074219 -146.6250305175781 144.7358093261719 -146.6250305175781 144.7352600097656 -146.6250305175781 L 124.9515380859375 -146.6413421630859 C 124.1466064453125 -146.6420135498047 123.3861846923828 -147.1487121582031 123.1798400878906 -147.9267425537109 C 122.9763793945313 -148.6938934326172 123.251708984375 -149.4671173095703 123.9293518066406 -149.8715209960938 C 124.0452728271484 -149.9757995605469 124.5514373779297 -150.4738616943359 125.0590667724609 -151.6273803710938 C 125.6109313964844 -152.8814086914063 126.2687683105469 -155.1630401611328 126.2687683105469 -158.9112701416016 C 126.2687683105469 -161.066650390625 127.1260833740234 -163.3108520507813 128.6208801269531 -165.0684204101563 C 130.2867736816406 -167.0271606445313 132.4968566894531 -168.1058807373047 134.8440246582031 -168.1058807373047 Z" stroke="none" fill="#fff"/>
              </g>
              <path id="Trazado_491" data-name="Trazado 491" d="M135.329-153.847a4.356,4.356,0,0,1-3.134,1.325,4.358,4.358,0,0,1-3.131-1.322" transform="translate(-122.346 177.955)" fill="#a0d227" stroke="#fff" stroke-linecap="round" stroke-linejoin="round" stroke-width="1.776"/>
              <path id="Trazado_492" data-name="Trazado 492" d="M129.493-166.128a2.6,2.6,0,0,1,2.472-2.472,2.6,2.6,0,0,1,2.474,2.472" transform="translate(-122.074 168.6)" fill="#a0d227" stroke="#fff" stroke-linecap="round" stroke-linejoin="round" stroke-width="1.776"/>
              <path id="Trazado_493" data-name="Trazado 493" d="M143.235-158.007H126.17c-.547,0-.992.057-.992.928s.444.927.992.927h17.065c.547,0,.992-.057.992-.927S143.782-158.007,143.235-158.007Z" transform="translate(-124.81 175.317)" fill="#a0d227"/>
            </g>
          </g>
        </g>
      </g>
      <g id="Grupo_643" data-name="Grupo 643" transform="translate(692.951 92.47)">
        <line id="Línea_55" data-name="Línea 55" x1="125.54" transform="translate(15.717 14.236)" fill="none" stroke="#ff641a" stroke-linecap="round" stroke-miterlimit="10" stroke-width="6"/>
        <path id="Trazado_494" data-name="Trazado 494" d="M268.516-200.774v11.653a2.581,2.581,0,0,1-3.871,2.235l-10.092-5.827-10.09-5.825a2.581,2.581,0,0,1,0-4.471l10.09-5.825,10.092-5.825a2.581,2.581,0,0,1,3.871,2.234Z" transform="translate(-243.172 215.01)" fill="#ff641a"/>
      </g>
      <g id="Grupo_644" data-name="Grupo 644" transform="translate(240.678 166.744)">
        <line id="Línea_56" data-name="Línea 56" x1="125.54" transform="translate(15.717 14.237)" fill="none" stroke="#ff641a" stroke-linecap="round" stroke-miterlimit="10" stroke-width="6"/>
        <path id="Trazado_495" data-name="Trazado 495" d="M-8.26-155.319v11.651a2.581,2.581,0,0,1-3.871,2.235l-10.092-5.825-10.09-5.827a2.58,2.58,0,0,1,0-4.469l10.09-5.827,10.092-5.826a2.581,2.581,0,0,1,3.871,2.235Z" transform="translate(33.604 169.557)" fill="#ff641a"/>
      </g>
    </g>
  </g>
</svg>
