<svg xmlns="http://www.w3.org/2000/svg" xmlns:xlink="http://www.w3.org/1999/xlink" width="89.265" height="89.265" viewBox="0 0 89.265 89.265">
  <defs>
    <linearGradient id="linear-gradient" x1="0.234" y1="0.137" x2="0.696" y2="-0.324" gradientUnits="objectBoundingBox">
      <stop offset="0" stop-color="#537983"/>
      <stop offset="1" stop-color="#bfdfdf"/>
    </linearGradient>
    <linearGradient id="linear-gradient-2" x1="0.5" x2="0.565" y2="0.395" gradientUnits="objectBoundingBox">
      <stop offset="0" stop-color="#18343b"/>
      <stop offset="1" stop-color="#619e9e"/>
    </linearGradient>
    <linearGradient id="linear-gradient-3" x1="0.233" y1="0.013" x2="0.576" y2="-0.331" gradientUnits="objectBoundingBox">
      <stop offset="0" stop-color="#fff"/>
      <stop offset="1" stop-color="#eef5f6"/>
    </linearGradient>
    <linearGradient id="linear-gradient-4" y1="1" x2="1.161" y2="0.071" gradientUnits="objectBoundingBox">
      <stop offset="0" stop-color="#b2f91a"/>
      <stop offset="1" stop-color="#3d5704"/>
    </linearGradient>
    <linearGradient id="linear-gradient-5" x1="0.5" y1="0.343" x2="0.5" y2="0.842" gradientUnits="objectBoundingBox">
      <stop offset="0" stop-color="#b9dd39"/>
      <stop offset="1" stop-color="#50740a"/>
    </linearGradient>
    <linearGradient id="linear-gradient-6" x1="0.5" x2="0.5" y2="1" gradientUnits="objectBoundingBox">
      <stop offset="0" stop-color="#ff4f11"/>
      <stop offset="0.439" stop-color="#e8401b"/>
      <stop offset="1" stop-color="#c1272d"/>
    </linearGradient>
  </defs>
  <g id="turnonet_1_6_" data-name="turnonet_1 (6)" transform="translate(-22.47 -22.47)">
    <circle id="Elipse_8" data-name="Elipse 8" cx="44.633" cy="44.633" r="44.633" transform="translate(22.47 22.47)" fill="url(#linear-gradient)"/>
    <circle id="Elipse_9" data-name="Elipse 9" cx="41.039" cy="41.039" r="41.039" transform="translate(26.064 26.064)" fill="url(#linear-gradient-2)"/>
    <circle id="Elipse_10" data-name="Elipse 10" cx="37.173" cy="37.173" r="37.173" transform="translate(29.93 29.93)" fill="url(#linear-gradient-3)"/>
    <path id="Trazado_320" data-name="Trazado 320" d="M74.379,47.512A3.509,3.509,0,0,1,70.87,44V39.619a3.509,3.509,0,0,1,7.018,0V44A3.509,3.509,0,0,1,74.379,47.512Z" transform="translate(-7.276 -2.051)" fill="#bccbd3"/>
    <path id="Trazado_321" data-name="Trazado 321" d="M74.379,111.872a3.509,3.509,0,0,1-3.509-3.509v-4.384a3.509,3.509,0,1,1,7.018,0v4.384a3.509,3.509,0,0,1-3.509,3.509Z" transform="translate(-7.276 -11.726)" fill="#bccbd3"/>
    <path id="Trazado_322" data-name="Trazado 322" d="M100.47,74.379a3.509,3.509,0,0,1,3.509-3.509h4.384a3.509,3.509,0,0,1,0,7.018h-4.384A3.509,3.509,0,0,1,100.47,74.379Z" transform="translate(-11.726 -7.276)" fill="#bccbd3"/>
    <path id="Trazado_323" data-name="Trazado 323" d="M36.11,74.379a3.509,3.509,0,0,1,3.509-3.509H44a3.509,3.509,0,0,1,0,7.018H39.619A3.509,3.509,0,0,1,36.11,74.379Z" transform="translate(-2.051 -7.276)" fill="#bccbd3"/>
    <path id="Trazado_324" data-name="Trazado 324" d="M92.818,55.391a3.509,3.509,0,0,1,0-4.962l3.1-3.1a3.509,3.509,0,1,1,4.962,4.962l-3.093,3.1a3.509,3.509,0,0,1-4.971,0Z" transform="translate(-10.422 -3.583)" fill="#bccbd3"/>
    <path id="Trazado_325" data-name="Trazado 325" d="M47.318,100.89a3.509,3.509,0,0,1,0-4.962l3.1-3.11a3.515,3.515,0,1,1,4.971,4.971l-3.1,3.1a3.509,3.509,0,0,1-4.971,0Z" transform="translate(-3.581 -10.421)" fill="#bccbd3"/>
    <path id="Trazado_326" data-name="Trazado 326" d="M92.817,92.818a3.509,3.509,0,0,1,4.962,0l3.1,3.1a3.509,3.509,0,1,1-4.962,4.962l-3.1-3.093a3.509,3.509,0,0,1,0-4.971Z" transform="translate(-10.421 -10.422)" fill="#bccbd3"/>
    <path id="Trazado_327" data-name="Trazado 327" d="M47.318,47.318a3.509,3.509,0,0,1,4.962,0l3.11,3.1a3.515,3.515,0,1,1-4.971,4.971l-3.1-3.11A3.509,3.509,0,0,1,47.318,47.318Z" transform="translate(-3.581 -3.581)" fill="#bccbd3"/>
    <path id="Trazado_328" data-name="Trazado 328" d="M56.743,91.763l8.327-1.7a1.2,1.2,0,0,0,.6-2.022l-.85-.85L74.849,77.165a1.147,1.147,0,0,0,0-1.64L71.544,72.22a1.156,1.156,0,0,0-1.631,0L59.887,82.246l-.85-.85a1.2,1.2,0,0,0-2.022.612l-1.7,8.327a1.207,1.207,0,0,0,1.427,1.427Z" transform="translate(-4.934 -7.429)" fill="url(#linear-gradient-4)"/>
    <path id="Trazado_329" data-name="Trazado 329" d="M72.956,33.115,68.275,40.21a1.2,1.2,0,0,0,1,1.861h1.19v24.98a1.156,1.156,0,0,0,1.156,1.156H76.3a1.156,1.156,0,0,0,1.156-1.156V42.071h1.19a1.2,1.2,0,0,0,1-1.861l-4.682-7.095a1.207,1.207,0,0,0-2.005,0Z" transform="translate(-6.856 -1.52)" fill="url(#linear-gradient-5)"/>
    <circle id="Elipse_11" data-name="Elipse 11" cx="6.789" cy="6.789" r="6.789" transform="translate(60.314 60.314)" fill="url(#linear-gradient-6)"/>
  </g>
</svg>
