<svg xmlns="http://www.w3.org/2000/svg" width="124.591" height="74.85" viewBox="0 0 124.591 74.85">
  <g id="weight" transform="translate(-18.75 -113.75)">
    <path id="Trazado_608" data-name="Trazado 608" d="M152.38,120.45h7.8v35.369h-7.8Z" transform="translate(-98.462 -4.761)" fill="#c2ffbe"/>
    <path id="Trazado_609" data-name="Trazado 609" d="M108.173,250h-15.6a1.685,1.685,0,0,0-1.58,1.689V258.9H37.849v-7.212a1.7,1.7,0,0,0-1.6-1.689h-15.6A1.749,1.749,0,0,0,19,251.689v35.367a1.749,1.749,0,0,0,1.654,1.689h15.6a1.7,1.7,0,0,0,1.6-1.689v-7.212H90.994v7.212a1.685,1.685,0,0,0,1.58,1.689h15.6a1.763,1.763,0,0,0,1.67-1.689V251.689A1.763,1.763,0,0,0,108.173,250Zm-86.032,3.142h4.712V285.6H22.142ZM34.708,285.6H30V253.142h4.712ZM83.14,262.043V276.7H45.7V262.043Zm-45.291,0h4.712V276.7H37.849ZM86.281,276.7V262.043h4.712V276.7Zm7.854-23.562h4.712V285.6H94.135ZM106.7,285.6h-4.712V253.142H106.7Z" transform="translate(0 -100.396)" fill="#f8622d" stroke="#f8622d" stroke-width="0.5"/>
    <path id="Trazado_610" data-name="Trazado 610" d="M235.189,114h-15.6a1.7,1.7,0,0,0-1.6,1.689V122.9H164.849v-7.212a1.685,1.685,0,0,0-1.58-1.689h-15.6a1.763,1.763,0,0,0-1.67,1.689v35.367a1.763,1.763,0,0,0,1.67,1.689h15.6a1.685,1.685,0,0,0,1.58-1.689v-7.212h53.144v7.212a1.7,1.7,0,0,0,1.6,1.689h15.6a1.749,1.749,0,0,0,1.653-1.689V115.689A1.749,1.749,0,0,0,235.189,114Zm-86.048,3.142h4.712V149.6h-4.712ZM161.708,149.6H157V117.142h4.712Zm48.432-23.562V140.7H172.7V126.043Zm-45.291,0h4.712V140.7h-4.712ZM213.281,140.7V126.043h4.712V140.7Zm7.854-23.562h4.712V149.6h-4.712ZM233.7,149.6h-4.712V117.142H233.7Z" transform="translate(-93.752 0)" fill="#159d0b" stroke="#159d0b" stroke-width="0.5"/>
  </g>
</svg>
